SplineFontDB: 3.0
FontName: Klein-Regular
FullName: Klein
FamilyName: Klein
Weight: Regular
Copyright: Copyright (c) 2016, mrkline
UComments: "2016-1-15: Created with FontForge (http://fontforge.org)"
Version: 0.1
ItalicAngle: 0
UnderlinePosition: -100
UnderlineWidth: 50
Ascent: 800
Descent: 200
InvalidEm: 0
LayerCount: 2
Layer: 0 0 "Back" 1
Layer: 1 0 "Fore" 0
XUID: [1021 77 -1879282181 14856649]
FSType: 0
OS2Version: 0
OS2_WeightWidthSlopeOnly: 0
OS2_UseTypoMetrics: 1
CreationTime: 1452917949
ModificationTime: 1453706562
PfmFamily: 17
TTFWeight: 500
TTFWidth: 5
LineGap: 100
VLineGap: 0
OS2TypoAscent: 0
OS2TypoAOffset: 1
OS2TypoDescent: 0
OS2TypoDOffset: 1
OS2TypoLinegap: 200
OS2WinAscent: 0
OS2WinAOffset: 1
OS2WinDescent: 0
OS2WinDOffset: 1
HheadAscent: 0
HheadAOffset: 1
HheadDescent: 0
HheadDOffset: 1
OS2XHeight: 530
OS2Vendor: 'PfEd'
Lookup: 4 0 1 "'liga' standard ligatures" { "'liga' standard ligatures-subtable"  } ['liga' ('DFLT' <'dflt' > 'latn' <'dflt' > ) ]
Lookup: 258 0 0 "'kern' Horizontal Kerning in Latin lookup 0" { "by class" [150,0,2] "per glyph" [150,15,0] } ['kern' ('DFLT' <'dflt' > 'latn' <'dflt' > ) ]
MarkAttachClasses: 1
DEI: 91125
KernClass2: 5 4 "by class"
 1 A
 1 T
 5 V W Y
 3 a u
 3 V W
 39 a c d e g i j m n o p q r s u v w x y z
 3 f t
 0 {} 0 {} 0 {} 0 {} 0 {} -180 {} 0 {} 0 {} 0 {} 0 {} -100 {} 0 {} 0 {} 0 {} -150 {} 0 {} 0 {} 0 {} 0 {} -10 {}

StartChar: l
Encoding: 108 108 0
Width: 296
Flags: HMW
LayerCount: 2
Back
SplineSet
266 20 m 1
 266 0 l 1
 35 0 l 1
 35 20 l 1
 105 35 l 1
 105 742 l 1
 35 768 l 1
 35 781 l 1
 188 830 l 1
 197 830 l 1
 197 35 l 1
 266 20 l 1
EndSplineSet
Fore
SplineSet
105 35 m 5
 105 741 l 5
 30 768 l 5
 30 782 l 5
 123 800 150 811 188 830 c 5
 197 830 l 5
 197 35 l 5
 266 20 l 5
 266 0 l 5
 35 0 l 5
 35 20 l 5
 105 35 l 5
EndSplineSet
Validated: 1
EndChar

StartChar: o
Encoding: 111 111 1
Width: 586
Flags: HMW
LayerCount: 2
Back
SplineSet
293 540 m 4
 331 540 366 533 398 519 c 4
 430 505 457.666992188 485.833007812 481 461.5 c 4
 504.333007812 437.166992188 522.666015625 408.166992188 535.999023438 374.5 c 4
 549.33203125 340.833007812 555.999023438 304.333007812 555.999023438 265 c 4
 555.999023438 225.666992188 549.33203125 189.166992188 535.999023438 155.5 c 4
 522.666015625 121.833007812 504.333007812 92.666015625 481 67.9990234375 c 4
 457.666992188 43.33203125 430 24.1650390625 398 10.498046875 c 4
 366 -3.1689453125 331 -10.001953125 293 -10.001953125 c 4
 255 -10.001953125 220 -3.1689453125 188 10.498046875 c 4
 156 24.1650390625 128.333007812 43.33203125 105 67.9990234375 c 4
 81.6669921875 92.666015625 63.333984375 121.833007812 50.0009765625 155.5 c 4
 36.66796875 189.166992188 30.0009765625 225.666992188 30.0009765625 265 c 4
 30.0009765625 304.333007812 36.66796875 340.833007812 50.0009765625 374.5 c 4
 63.333984375 408.166992188 81.6669921875 437.166992188 105 461.5 c 4
 128.333007812 485.833007812 156 505 188 519 c 4
 220 533 255 540 293 540 c 4
136 265 m 4
 136 192.333007812 149.83203125 135.83203125 177.499023438 95.4990234375 c 4
 205.166015625 55.166015625 243.333007812 34.9990234375 292 34.9990234375 c 4
 341.333007812 34.9990234375 380 55.33203125 408 95.9990234375 c 4
 436 136.666015625 450 193.333007812 450 266 c 4
 450 338 436.166992188 394.166992188 408.5 434.5 c 4
 380.833007812 474.833007812 342.333007812 495 293 495 c 4
 243.666992188 495 205.166992188 474.833007812 177.5 434.5 c 4
 149.833007812 394.166992188 136 337.666992188 136 265 c 4
EndSplineSet
Fore
SplineSet
556 265 m 3
 556 107 444 -10 295 -10 c 3
 136 -10 30 112 30 265 c 3
 30 424 145 540 291 540 c 3
 449 540 556 418 556 265 c 3
293 485 m 3
 180 485 136 389 136 265 c 3
 136 142 179 45 292 45 c 3
 405 45 450 142 450 266 c 3
 450 389 406 485 293 485 c 3
EndSplineSet
Validated: 1
EndChar

StartChar: x
Encoding: 120 120 2
Width: 578
Flags: HMW
LayerCount: 2
Back
SplineSet
316 334 m 1
 395.000976562 437.997070312 l 2
 403.000976562 448.6640625 408.000976562 456.331054688 410.000976562 460.998046875 c 0
 412.000976562 465.665039062 413.000976562 470.665039062 413.000976562 475.998046875 c 0
 413.000976562 483.331054688 408.500976562 489.998046875 399.500976562 495.998046875 c 0
 390.500976562 501.998046875 375.66796875 506.665039062 355.000976562 509.998046875 c 1
 355.000976562 529.998046875 l 1
 561.000976562 529.998046875 l 1
 561.000976562 509.998046875 l 1
 545.000976562 506.665039062 531.500976562 503.33203125 520.500976562 499.999023438 c 0
 509.500976562 496.666015625 499.66796875 492.499023438 491.000976562 487.499023438 c 0
 482.333984375 482.499023438 474.333984375 476.33203125 467.000976562 468.999023438 c 0
 459.66796875 461.666015625 451.66796875 452.666015625 443.000976562 441.999023438 c 2
 336.000976562 302.999023438 l 1
 492.000976562 62.9990234375 l 2
 501.333984375 48.9990234375 511.666992188 38.9990234375 523 32.9990234375 c 0
 534.333007812 26.9990234375 552.666015625 22.666015625 577.999023438 19.9990234375 c 1
 577.999023438 -0.0009765625 l 1
 328.999023438 -0.0009765625 l 1
 328.999023438 19.9990234375 l 1
 352.999023438 22.666015625 368.83203125 25.166015625 376.499023438 27.4990234375 c 0
 384.166015625 29.83203125 387.999023438 34.33203125 387.999023438 40.9990234375 c 0
 387.999023438 44.33203125 386.999023438 48.1650390625 384.999023438 52.498046875 c 0
 382.999023438 56.8310546875 378.666015625 63.998046875 371.999023438 73.998046875 c 2
 273.999023438 223.998046875 l 1
 173.999023438 91.998046875 l 2
 166.666015625 82.6650390625 161.833007812 75.33203125 159.5 69.9990234375 c 0
 157.166992188 64.666015625 156 59.9990234375 156 55.9990234375 c 0
 156 46.666015625 161 39.166015625 171 33.4990234375 c 0
 181 27.83203125 197.666992188 23.33203125 221 19.9990234375 c 1
 221 -0.0009765625 l 1
 0 -0.0009765625 l 1
 0 19.9990234375 l 1
 33.3330078125 24.666015625 59.5 32.166015625 78.5 42.4990234375 c 0
 97.5 52.83203125 115 68.9990234375 131 90.9990234375 c 2
 253 256.999023438 l 1
 117 466.999023438 l 2
 112.333007812 473.666015625 107.5 479.333007812 102.5 484 c 0
 97.5 488.666992188 91.5 492.666992188 84.5 496 c 0
 77.5 499.333007812 69.1669921875 502 59.5 504 c 0
 49.8330078125 506 38 508 24 510 c 1
 24 530 l 1
 126 530 l 4
 275 530 l 1
 275 510 l 1
 255 508.666992188 241.166992188 506.166992188 233.5 502.5 c 0
 225.833007812 498.833007812 222 494.333007812 222 489 c 0
 222 481.666992188 227 470.666992188 237 456 c 2
 316 334 l 1
EndSplineSet
Fore
SplineSet
355 510 m 1
 355 530 l 1
 561 530 l 1
 561 510 l 5
 516 498 511 496 455 422 c 2
 349 283 l 1
 492 63 l 2
 512 32 530 25 578 20 c 1
 578 0 l 1
 329 0 l 1
 329 20 l 1
 353 23 368 25 376 27 c 0
 384 29 388 34 388 41 c 0
 388 54 381 60 372 74 c 2
 287 204 l 1
 187 72 l 2
 179 61 175 53 175 46 c 0
 175 30 196 24 221 20 c 1
 221 0 l 1
 0 0 l 1
 0 20 l 1
 68 29 89 60 122 105 c 2
 244 271 l 1
 117 467 l 1
 96 496 69 504 24 510 c 1
 24 530 l 1
 275 530 l 1
 275 510 l 1
 251 508 222 506 222 489 c 0
 222 482 227 471 237 456 c 2
 307 348 l 1
 386 452 l 2
 396 465 406 476 406 485 c 0
 406 495 393 503 355 510 c 1
EndSplineSet
Validated: 1
EndChar

StartChar: y
Encoding: 121 121 3
Width: 575
Flags: HMW
LayerCount: 2
Back
SplineSet
326 144 m 1
 419.999023438 431.002929688 l 2
 424.666015625 444.3359375 426.999023438 456.3359375 426.999023438 467.002929688 c 0
 426.999023438 479.002929688 421.166015625 488.8359375 409.499023438 496.502929688 c 0
 397.83203125 504.169921875 377.999023438 508.669921875 349.999023438 510.002929688 c 1
 349.999023438 530.002929688 l 1
 574.999023438 530.002929688 l 1
 574.999023438 510.002929688 l 1
 555.666015625 506.669921875 539.833007812 503.169921875 527.5 499.502929688 c 0
 515.166992188 495.8359375 505 491.168945312 497 485.501953125 c 0
 489 479.834960938 482.5 472.501953125 477.5 463.501953125 c 0
 472.5 454.501953125 467.666992188 443.334960938 463 430.001953125 c 2
 268 -140.998046875 l 2
 260.666992188 -162.331054688 253 -179.831054688 245 -193.498046875 c 0
 237 -207.165039062 229 -217.998046875 221 -225.998046875 c 0
 211 -237.331054688 198.666992188 -245.831054688 184 -251.498046875 c 0
 169.333007812 -257.165039062 153.333007812 -259.998046875 136 -259.998046875 c 4
 111.333007812 -259.998046875 91.5 -253.831054688 76.5 -241.498046875 c 4
 61.5 -229.165039062 54 -212.998046875 54 -192.998046875 c 4
 54 -177.665039062 59 -165.165039062 69 -155.498046875 c 4
 79 -145.831054688 92.6669921875 -140.998046875 110 -140.998046875 c 4
 123.333007812 -140.998046875 133.5 -144.498046875 140.5 -151.498046875 c 4
 147.5 -158.498046875 152.666992188 -170.331054688 156 -186.998046875 c 4
 157.333007812 -199.665039062 159.333007812 -207.83203125 162 -211.499023438 c 0
 164.666992188 -215.166015625 169.333984375 -216.999023438 176.000976562 -216.999023438 c 0
 187.333984375 -216.999023438 197.500976562 -210.666015625 206.500976562 -197.999023438 c 0
 215.500976562 -185.33203125 225.000976562 -163.999023438 235.000976562 -133.999023438 c 2
 276.000976562 -7.9990234375 l 1
 81.0009765625 470.000976562 l 2
 75.0009765625 482.66796875 66.66796875 492.000976562 56.0009765625 498.000976562 c 0
 45.333984375 504.000976562 30.0009765625 508.000976562 10.0009765625 510.000976562 c 1
 10.0009765625 530.000976562 l 1
 257.000976562 530.000976562 l 1
 257.000976562 510.000976562 l 1
 230.333984375 508.66796875 212.666992188 506.66796875 204 504.000976562 c 0
 195.333007812 501.333984375 191 496.666992188 191 490 c 0
 191 484 193.666992188 474 199 460 c 2
 321 144 l 1
 326 144 l 1
EndSplineSet
Fore
SplineSet
54 -193 m 3
 54 -161 77 -141 110 -141 c 3
 163 -141 147 -196 167 -196 c 0
 178 -196 193 -180 207 -141 c 2
 264 22 l 1
 81 470 l 1
 68 497 48 506 10 510 c 1
 10 530 l 1
 257 530 l 1
 257 510 l 1
 225 510 191 510 191 490 c 0
 191 484 194 474 199 460 c 2
 309 174 l 1
 314 174 l 1
 408 461 l 2
 410 468 412 474 412 480 c 0
 412 497 399 510 350 510 c 1
 350 530 l 1
 575 530 l 1
 575 510 l 1
 530 502 495 496 477 464 c 0
 472 455 468 443 463 430 c 2
 267 -144 l 2
 235 -238 188 -260 136 -260 c 3
 91 -260 54 -236 54 -193 c 3
EndSplineSet
Validated: 1
EndChar

StartChar: z
Encoding: 122 122 4
Width: 512
Flags: HMW
LayerCount: 2
Fore
SplineSet
472 530 m 1
 472 503 l 1
 156 32 l 1
 388 32 l 1
 437 194 l 1
 458 191 l 1
 451 0 l 1
 40 0 l 1
 40 28 l 1
 352 498 l 1
 131 498 l 1
 81 331 l 1
 60 332 l 1
 72 530 l 1
 472 530 l 1
EndSplineSet
Validated: 1
EndChar

StartChar: i
Encoding: 105 105 5
Width: 301
Flags: HMW
LayerCount: 2
Back
SplineSet
89 715 m 4
 89 733.666992188 94.8330078125 749.166992188 106.5 761.5 c 4
 118.166992188 773.833007812 133.666992188 780 153 780 c 4
 173 780 188.833007812 773.833007812 200.5 761.5 c 4
 212.166992188 749.166992188 218 733.666992188 218 715 c 4
 218 697.666992188 212.166992188 682.666992188 200.5 670 c 4
 188.833007812 657.333007812 173 651 153 651 c 4
 133.666992188 651 118.166992188 657.333007812 106.5 670 c 4
 94.8330078125 682.666992188 89 697.666992188 89 715 c 4
276 20 m 5
 276 0 l 5
 30 0 l 5
 30 20 l 5
 106 35 l 5
 106 451 l 5
 32 478 l 5
 32 492 l 5
 192 540 l 5
 201 540 l 5
 201 35 l 5
 276 20 l 5
EndSplineSet
Fore
SplineSet
190 540 m 1
 201 540 l 1
 201 35 l 1
 276 20 l 1
 276 0 l 1
 30 0 l 1
 30 20 l 1
 106 35 l 1
 106 451 l 1
 32 478 l 1
 32 492 l 1
 125 510 152 521 190 540 c 1
153 651 m 3
 117 651 89 680 89 715 c 3
 89 753 115 780 153 780 c 3
 193 780 218 754 218 715 c 3
 218 678 191 651 153 651 c 3
EndSplineSet
Validated: 1
EndChar

StartChar: t
Encoding: 116 116 6
Width: 344
Flags: HMW
LayerCount: 2
Back
SplineSet
738.168945312 70 m 1
 702.168945312 23 656.168945312 0 597.168945312 0 c 0
 533.168945312 0 454.168945312 25 454.168945312 126 c 2
 454.168945312 461 l 1
 370.168945312 461 l 1
 370.168945312 494 l 1
 468.168945312 498 512.168945312 553 511.168945312 676 c 1
 549.168945312 676 l 1
 549.168945312 494 l 1
 692.168945312 494 l 1
 692.168945312 461 l 1
 549.168945312 461 l 1
 549.168945312 344 l 0
 549.168945312 172 l 2
 549.168945312 81 573.168945312 40 624.168945312 40 c 0
 654.168945312 40 677.168945312 53 711.168945312 92 c 1
 738.168945312 70 l 1
200.168945312 -10 m 0
 168.168945312 -10 142.168945312 -0.66796875 122.168945312 17.9990234375 c 0
 110.168945312 29.33203125 101.668945312 43.4990234375 96.6689453125 60.4990234375 c 0
 91.6689453125 77.4990234375 89.1689453125 101.33203125 89.1689453125 131.999023438 c 2
 89.1689453125 494.999023438 l 1
 24.1689453125 494.999023438 l 1
 22.1689453125 510.999023438 l 1
 166.168945312 660.999023438 l 1
 184.168945312 658.999023438 l 1
 184.168945312 529.999023438 l 1
 327.168945312 529.999023438 l 1
 319.168945312 494.999023438 l 1
 184.168945312 494.999023438 l 1
 184.168945312 140.999023438 l 2
 184.168945312 116.33203125 184.8359375 98.9990234375 186.168945312 88.9990234375 c 0
 187.501953125 78.9990234375 189.834960938 70.9990234375 193.16796875 64.9990234375 c 0
 203.834960938 46.33203125 220.501953125 36.9990234375 243.168945312 36.9990234375 c 0
 256.501953125 36.9990234375 270.001953125 40.666015625 283.668945312 47.9990234375 c 0
 297.3359375 55.33203125 309.168945312 65.33203125 319.168945312 77.9990234375 c 1
 336.168945312 64.9990234375 l 1
 320.8359375 41.666015625 301.168945312 23.3330078125 277.168945312 10 c 0
 253.168945312 -3.3330078125 227.501953125 -10 200.168945312 -10 c 0
EndSplineSet
Fore
SplineSet
334 65 m 1
 308 25 260 -10 198 -10 c 0
 146 -10 108 17 95 60 c 0
 90 77 87 101 87 132 c 2
 87 488 l 1
 20 488 l 1
 20 530 l 1
 96 533 152 611 156 700 c 1
 182 700 l 1
 182 530 l 1
 326 530 l 5
 326 488 l 1
 182 488 l 1
 182 141 l 2
 182 114 182 80 191 65 c 0
 202 47 218 37 241 37 c 0
 273 37 301 58 317 78 c 1
 334 65 l 1
EndSplineSet
Validated: 1
EndChar

StartChar: s
Encoding: 115 115 7
Width: 428
Flags: HMW
LayerCount: 2
Back
SplineSet
236 540 m 4
 258.666992188 540 280.836914062 538.499023438 302.50390625 535.499023438 c 4
 324.170898438 532.499023438 341.337890625 528.33203125 354.004882812 522.999023438 c 5
 354.004882812 383.999023438 l 5
 333.004882812 383.999023438 l 5
 323.004882812 467.999023438 284.004882812 509.999023438 216.004882812 509.999023438 c 4
 189.337890625 509.999023438 168.170898438 502.83203125 152.50390625 488.499023438 c 4
 136.836914062 474.166015625 129.00390625 454.333007812 129.00390625 429 c 4
 129.00390625 407 135.170898438 389.166992188 147.50390625 375.5 c 4
 159.836914062 361.833007812 175.169921875 350 193.502929688 340 c 4
 211.8359375 330 231.8359375 320.333007812 253.502929688 311 c 4
 275.169921875 301.666992188 295.169921875 290.5 313.502929688 277.5 c 4
 331.8359375 264.5 347.168945312 248.166992188 359.501953125 228.5 c 4
 371.834960938 208.833007812 378.001953125 183.333007812 378.001953125 152 c 4
 378.001953125 102 361.501953125 62.5 328.501953125 33.5 c 4
 295.501953125 4.5 250.668945312 -10 194.001953125 -10 c 4
 172.668945312 -10 149.168945312 -8 123.501953125 -4 c 4
 97.8349609375 0 75.3349609375 5.3330078125 56.001953125 12 c 5
 50.001953125 174 l 5
 74.001953125 174 l 5
 83.3349609375 71.3330078125 126.001953125 20 202.001953125 20 c 4
 232.001953125 20 256.001953125 28.3330078125 274.001953125 45 c 4
 292.001953125 61.6669921875 301.001953125 84 301.001953125 112 c 4
 301.001953125 135.333007812 294.834960938 154.333007812 282.501953125 169 c 4
 270.168945312 183.666992188 254.668945312 196.5 236.001953125 207.5 c 4
 217.334960938 218.5 197.16796875 228.833007812 175.500976562 238.5 c 4
 153.833984375 248.166992188 133.666992188 259.5 115 272.5 c 4
 96.3330078125 285.5 80.8330078125 301.5 68.5 320.5 c 4
 56.1669921875 339.5 50 364 50 394 c 4
 50 440.666992188 66 476.666992188 98 502 c 4
 130 527.333007812 176 540 236 540 c 4
EndSplineSet
Fore
SplineSet
50 394 m 3
 50 496 107 540 215 540 c 3
 256 540 327 534 354 523 c 1
 354 384 l 1
 333 384 l 1
 323 468 284 485 216 485 c 3
 164 485 129 462.241540277 129 429 c 3
 129 381 161 358 194 340 c 0
 232 319 279 303 314 278 c 0
 351 252 378 215 378 152 c 3
 378 47 309 -10 202 -10 c 3
 157 -10 90 0 56 12 c 1
 50 174 l 1
 74 174 l 1
 83 71 126 45 202 45 c 3
 282.056640625 45 301 80.9838751615 301 112 c 3
 301 162 269 188 236 208 c 0
 198 230 151 247 115 272 c 0
 79 297 50 333 50 394 c 3
EndSplineSet
Validated: 1
EndChar

StartChar: h
Encoding: 104 104 8
Width: 621
Flags: HMW
LayerCount: 2
Back
SplineSet
271 20 m 1
 270.999023438 0.0009765625 l 1
 24.9990234375 0.0009765625 l 1
 24.9990234375 20.0009765625 l 1
 100.999023438 35.0009765625 l 1
 100.999023438 741.000976562 l 1
 26.9990234375 768.000976562 l 1
 26.9990234375 782.000976562 l 1
 185.999023438 830.000976562 l 1
 195.999023438 830.000976562 l 1
 195.999023438 457.000976562 l 1
 226.666015625 483.66796875 259.166015625 504.16796875 293.499023438 518.500976562 c 0
 327.83203125 532.833984375 361.999023438 540.000976562 395.999023438 540.000976562 c 0
 422.666015625 540.000976562 446.333007812 534.66796875 467 524.000976562 c 0
 487.666992188 513.333984375 502.666992188 498.666992188 512 480 c 0
 514.666992188 474.666992188 516.833984375 468.833984375 518.500976562 462.500976562 c 0
 520.16796875 456.16796875 521.500976562 447.66796875 522.500976562 437.000976562 c 0
 523.500976562 426.333984375 524.16796875 413.166992188 524.500976562 397.5 c 0
 524.833984375 381.833007812 525.000976562 362 525.000976562 338 c 2
 525.000976562 34 l 1
 600.000976562 20 l 1
 600.000976562 0 l 1
 355.000976562 0 l 1
 355.000976562 20 l 1
 430.000976562 34 l 1
 430.000976562 328 l 2
 430.000976562 356.666992188 429.16796875 379.5 427.500976562 396.5 c 0
 425.833984375 413.5 422.666992188 427.666992188 418 439 c 0
 405.333007812 469.666992188 379.333007812 485 340 485 c 0
 284 485 236 463.333007812 196 420 c 1
 196 35 l 1
 271 20 l 1
EndSplineSet
Fore
SplineSet
184 830 m 1
 196 830 l 1
 196 475 l 1
 246 519 313 540 396 540 c 3
 457 540 506 511 519 463 c 0
 525 441 525 416 525 389 c 2
 525 389 525 152 525 34 c 1
 600 20 l 1
 600 0 l 1
 355 0 l 1
 355 20 l 1
 430 34 l 1
 430 328 l 2
 430 417 425 472 340 472 c 3
 284 472 236 454 196 411 c 1
 196 35 l 1
 271 20 l 1
 271 0 l 1
 25 0 l 1
 25 20 l 1
 101 35 l 1
 101 741 l 1
 26 768 l 1
 26 782 l 1
 119 800 146 811 184 830 c 1
EndSplineSet
Validated: 1
EndChar

StartChar: b
Encoding: 98 98 9
Width: 597
Flags: HMW
LayerCount: 2
Back
SplineSet
293 -10 m 4
 241.666992188 -10 195.665039062 5.33203125 154.998046875 35.9990234375 c 5
 149.998046875 35.9990234375 l 5
 103.998046875 1.9990234375 l 5
 87.998046875 1.9990234375 l 5
 87.998046875 740.999023438 l 5
 14.998046875 767.999023438 l 5
 14.998046875 780.999023438 l 5
 173.998046875 829.999023438 l 5
 183.998046875 829.999023438 l 5
 183.998046875 471.999023438 l 5
 225.998046875 517.33203125 276.665039062 539.999023438 335.998046875 539.999023438 c 4
 368.665039062 539.999023438 398.498046875 533.83203125 425.498046875 521.499023438 c 4
 452.498046875 509.166015625 475.831054688 491.833007812 495.498046875 469.5 c 4
 515.165039062 447.166992188 530.33203125 420.5 540.999023438 389.5 c 4
 551.666015625 358.5 556.999023438 324.333007812 556.999023438 287 c 4
 556.999023438 245 550.33203125 205.833007812 536.999023438 169.5 c 4
 523.666015625 133.166992188 505.166015625 101.666992188 481.499023438 75 c 4
 457.83203125 48.3330078125 429.83203125 27.5 397.499023438 12.5 c 4
 365.166015625 -2.5 330.333007812 -10 293 -10 c 4
292.998046875 23.9990234375 m 4
 316.998046875 23.9990234375 338.666992188 29.6669921875 358 41 c 4
 377.333007812 52.3330078125 393.833007812 68.166015625 407.5 88.4990234375 c 4
 421.166992188 108.83203125 431.666992188 133.499023438 439 162.499023438 c 4
 446.333007812 191.499023438 450 223.666015625 450 258.999023438 c 4
 450 329.666015625 436.166992188 385.166015625 408.5 425.499023438 c 4
 380.833007812 465.83203125 342.666015625 485.999023438 293.999023438 485.999023438 c 4
 271.33203125 485.999023438 250.665039062 481.33203125 231.998046875 471.999023438 c 4
 213.331054688 462.666015625 197.331054688 449.999023438 183.998046875 433.999023438 c 5
 183.998046875 149.999023438 l 6
 183.998046875 111.999023438 193.831054688 81.4990234375 213.498046875 58.4990234375 c 4
 233.165039062 35.4990234375 259.665039062 23.9990234375 292.998046875 23.9990234375 c 4
EndSplineSet
Fore
SplineSet
88 741 m 1
 15 767 l 1
 15 781 l 1
 108 799 136 811 174 830 c 1
 184 830 l 1
 184 485 l 1
 226 530 277 540 336 540 c 3
 479 540 557 430 557 287 c 0
 557 121 456 -10 293 -10 c 0
 242 -10 196 5 155 36 c 1
 150 36 l 1
 104 2 l 1
 88 2 l 1
 88 741 l 1
184 150 m 2
 184 78 223 45 292 45 c 3
 395 45 450 153 450 259 c 3
 450 380 405 485 294 485 c 3
 244 485 208 449 184 420 c 1
 184 150 l 2
EndSplineSet
Validated: 1
EndChar

StartChar: v
Encoding: 118 118 10
Width: 563
Flags: HMW
LayerCount: 2
Back
SplineSet
261 -10 m 5
 82.0009765625 467.002929688 l 6
 78.66796875 475.002929688 75.5009765625 481.502929688 72.5009765625 486.502929688 c 4
 69.5009765625 491.502929688 65.5009765625 495.669921875 60.5009765625 499.002929688 c 4
 55.5009765625 502.3359375 49.0009765625 504.668945312 41.0009765625 506.001953125 c 4
 33.0009765625 507.334960938 22.66796875 508.66796875 10.0009765625 510.000976562 c 5
 10.0009765625 530.000976562 l 5
 258.000976562 530.000976562 l 5
 258.000976562 510.000976562 l 5
 229.333984375 508.66796875 210.666992188 506.16796875 202 502.500976562 c 4
 193.333007812 498.833984375 189 493.333984375 189 486.000976562 c 4
 189 478.000976562 191 468.000976562 195 456.000976562 c 6
 310 124.000976562 l 5
 314 124.000976562 l 5
 422 434.000976562 l 6
 428 452.000976562 431 465.333984375 431 474.000976562 c 4
 431 484.000976562 426.666992188 491.333984375 418 496.000976562 c 4
 409.333007812 500.66796875 390 505.334960938 360 510.001953125 c 5
 360 530.001953125 l 5
 563 530.001953125 l 5
 563 510.001953125 l 5
 544.333007812 506.668945312 529.333007812 503.168945312 518 499.501953125 c 4
 506.666992188 495.834960938 497.5 491.16796875 490.5 485.500976562 c 4
 483.5 479.833984375 477.833007812 472.666992188 473.5 464 c 4
 469.166992188 455.333007812 465 445 461 433 c 6
 305 -10 l 5
 261 -10 l 5
EndSplineSet
Fore
SplineSet
360 510 m 1
 360 530 l 1
 563 530 l 1
 563 510 l 1
 520 502 490 496 474 464 c 0
 470 455 465 445 461 433 c 2
 305 -10 l 1
 261 -10 l 1
 82 467 l 2
 73 488 66 502 41 506 c 0
 33 507 23 509 10 510 c 1
 10 530 l 1
 258 530 l 1
 258 510 l 1
 222 508 189 509 189 486 c 0
 189 478 191 468 195 456 c 2
 301 149 l 1
 305 149 l 1
 413 459 l 0
 414 463 415 466 415 470 c 0
 415 489 397 506 360 510 c 1
EndSplineSet
Validated: 1
EndChar

StartChar: u
Encoding: 117 117 11
Width: 611
Flags: HMW
LayerCount: 2
Back
SplineSet
330 510 m 5
 329.999023438 530.001953125 l 5
 499.999023438 530.001953125 l 5
 499.999023438 75.001953125 l 5
 567.999023438 51.001953125 l 5
 567.999023438 39.001953125 l 5
 417.999023438 -9.998046875 l 5
 410.999023438 -9.998046875 l 5
 410.999023438 81.001953125 l 5
 406.999023438 82.001953125 l 5
 382.999023438 52.001953125 355.666015625 29.1689453125 324.999023438 13.501953125 c 4
 294.33203125 -2.1650390625 261.999023438 -9.998046875 227.999023438 -9.998046875 c 4
 200.666015625 -9.998046875 177.166015625 -4.6650390625 157.499023438 6.001953125 c 4
 137.83203125 16.6689453125 123.33203125 31.6689453125 113.999023438 51.001953125 c 4
 111.33203125 57.001953125 108.999023438 63.501953125 106.999023438 70.501953125 c 4
 104.999023438 77.501953125 103.499023438 86.1689453125 102.499023438 96.501953125 c 4
 101.499023438 106.834960938 100.83203125 119.66796875 100.499023438 135.000976562 c 4
 100.166015625 150.333984375 99.9990234375 169.666992188 99.9990234375 193 c 6
 99.9990234375 495 l 5
 24.9990234375 510 l 5
 24.9990234375 530 l 5
 194.999023438 530 l 5
 194.999023438 193 l 6
 194.999023438 161.666992188 195.83203125 137.666992188 197.499023438 121 c 4
 199.166015625 104.333007812 202.333007812 91 207 81 c 4
 212.333007812 69.6669921875 221 60.6669921875 233 54 c 4
 245 47.3330078125 259.666992188 44 277 44 c 4
 300.333007812 44 323 50 345 62 c 4
 367 74 387 91.3330078125 405 114 c 5
 405 495 l 5
 330 510 l 5
EndSplineSet
Fore
SplineSet
418 -10 m 5
 411 -10 l 5
 411 60 l 5
 407 61 l 5
 367 11 309 -10 228 -10 c 4
 154 -10 109 29 102 97 c 4
 100 120 100 142 100 169 c 6
 100 495 l 5
 25 510 l 5
 25 530 l 5
 195 530 l 5
 195 193 l 6
 195 108 196 44 277 44 c 4
 334 44 376 99 405 135 c 5
 405 375 l 4
 405 495 l 5
 330 510 l 5
 330 530 l 5
 500 530 l 5
 500 75 l 5
 576 52 l 5
 576 38 l 5
 483 20 456 9 418 -10 c 5
EndSplineSet
Validated: 1
EndChar

StartChar: c
Encoding: 99 99 12
Width: 535
Flags: HMW
LayerCount: 2
Back
SplineSet
289 -10 m 0
 253 -10 220.171875 -3.5 190.504882812 9.5 c 0
 160.837890625 22.5 135.170898438 40.8330078125 113.50390625 64.5 c 0
 91.8369140625 88.1669921875 75.00390625 116.5 63.00390625 149.5 c 0
 51.00390625 182.5 45.00390625 218.666992188 45.00390625 258 c 0
 45.00390625 299.333007812 51.50390625 337.166015625 64.50390625 371.499023438 c 0
 77.50390625 405.83203125 95.8369140625 435.499023438 119.50390625 460.499023438 c 0
 143.170898438 485.499023438 171.170898438 504.999023438 203.50390625 518.999023438 c 0
 235.836914062 532.999023438 271.669921875 539.999023438 311.002929688 539.999023438 c 0
 336.3359375 539.999023438 360.002929688 536.83203125 382.002929688 530.499023438 c 0
 404.002929688 524.166015625 423.002929688 515.666015625 439.002929688 504.999023438 c 0
 455.002929688 494.33203125 467.669921875 481.83203125 477.002929688 467.499023438 c 0
 486.3359375 453.166015625 491.002929688 437.999023438 491.002929688 421.999023438 c 0
 491.002929688 404.666015625 487.002929688 390.833007812 479.002929688 380.5 c 0
 471.002929688 370.166992188 459.669921875 365 445.002929688 365 c 0
 410.3359375 365 390.668945312 386 386.001953125 428 c 0
 384.001953125 444.666992188 381.168945312 458.166992188 377.501953125 468.5 c 0
 373.834960938 478.833007812 369.16796875 487 363.500976562 493 c 0
 357.833984375 499 351.000976562 503 343.000976562 505 c 0
 335.000976562 507 325.333984375 508 314.000976562 508 c 0
 260.66796875 508 219.500976562 487.166992188 190.500976562 445.5 c 0
 161.500976562 403.833007812 147.000976562 348 147.000976562 278 c 0
 147.000976562 209.333007812 162.000976562 156.333007812 192.000976562 119 c 0
 222.000976562 81.6669921875 264.333984375 63 319.000976562 63 c 0
 349.000976562 63 377.16796875 69 403.500976562 81 c 0
 429.833984375 93 452.000976562 111.333007812 470.000976562 136 c 2
 481.000976562 151 l 1
 500.000976562 141 l 1
 495.000976562 128 l 2
 477.66796875 84 451.16796875 50 415.500976562 26 c 0
 379.833984375 2 337.666992188 -10 289 -10 c 0
EndSplineSet
Fore
SplineSet
491 422 m 7
 491 390 476 365 445 365 c 7
 410 365 391 386 386 428 c 4
 381 472 353 485 309 485 c 7
 183 485 131 398 131 278 c 7
 131 153 200 45 319 45 c 7
 388 45 439 93 470 136 c 6
 481 151 l 5
 500 141 l 5
 495 128 l 6
 464 48 395 -10 289 -10 c 7
 142 -10 45 104 45 258 c 7
 45 423 153 540 311 540 c 7
 394 540 491 496 491 422 c 7
EndSplineSet
EndChar

StartChar: e
Encoding: 101 101 13
Width: 554
Flags: HMWO
LayerCount: 2
Back
SplineSet
486 422 m 3
 486 390 471 365 440 365 c 3
 405 365 386 386 381 428 c 0
 376 472 348 485 304 485 c 3
 178 485 126 398 126 278 c 3
 126 153 195 45 314 45 c 3
 383 45 434 93 465 136 c 2
 476 151 l 1
 495 141 l 1
 490 128 l 2
 459 48 390 -10 284 -10 c 3
 137 -10 40 104 40 258 c 3
 40 423 148 540 306 540 c 3
 389 540 486 496 486 422 c 3
EndSplineSet
Fore
SplineSet
129 231 m 2
 129 179 172 45 313 45 c 0
 382 45 440 90 472 130 c 2
 484 145 l 1
 501 135 l 1
 495 121 l 2
 463 45 385 -10 280 -10 c 0
 161 -10 89 59 57 148 c 0
 45 181 40 217 40 257 c 0
 40 389 104 481 198 520 c 0
 231 534 267 540 307 540 c 3
 473 540 514 426 514 260 c 1
 508 254 l 1
 129 254 l 1
 129 231 l 2
297 489 m 3
 204.929374934 489 128 403 128 306 c 1
 430 306 l 5
 428 429 376 489 297 489 c 3
EndSplineSet
EndChar

StartChar: d
Encoding: 100 100 14
Width: 614
Flags: HMW
LayerCount: 2
Back
SplineSet
252 -10 m 0
 222.666992188 -10 195.331054688 -3.333984375 169.998046875 9.9990234375 c 0
 144.665039062 23.33203125 122.665039062 41.83203125 103.998046875 65.4990234375 c 0
 85.3310546875 89.166015625 70.8310546875 117.333007812 60.498046875 150 c 0
 50.1650390625 182.666992188 44.998046875 218 44.998046875 256 c 0
 44.998046875 298 51.3310546875 336.333007812 63.998046875 371 c 0
 76.6650390625 405.666992188 94.6650390625 435.5 117.998046875 460.5 c 0
 141.331054688 485.5 168.998046875 505 200.998046875 519 c 0
 232.998046875 533 268.665039062 540 307.998046875 540 c 0
 344.665039062 540 380.665039062 535 415.998046875 525 c 1
 415.998046875 740 l 1
 342.998046875 768 l 1
 342.998046875 781 l 1
 499.998046875 830 l 1
 509.998046875 830 l 1
 509.998046875 78 l 1
 577.998046875 63 l 1
 577.998046875 52 l 1
 429.998046875 -10 l 1
 422.998046875 -10 l 1
 422.998046875 76 l 1
 418.998046875 78 l 1
 397.665039062 48 372.83203125 25.8330078125 344.499023438 11.5 c 0
 316.166015625 -2.8330078125 285.333007812 -10 252 -10 c 0
293.997070312 54.9990234375 m 0
 319.997070312 54.9990234375 343.999023438 60.33203125 365.999023438 70.9990234375 c 0
 387.999023438 81.666015625 404.666015625 95.9990234375 415.999023438 113.999023438 c 1
 415.999023438 399.999023438 l 2
 415.999023438 473.33203125 379.33203125 509.999023438 305.999023438 509.999023438 c 0
 282.666015625 509.999023438 261.499023438 504.33203125 242.499023438 492.999023438 c 0
 223.499023438 481.666015625 207.166015625 465.666015625 193.499023438 444.999023438 c 0
 179.83203125 424.33203125 169.165039062 399.33203125 161.498046875 369.999023438 c 0
 153.831054688 340.666015625 149.998046875 307.999023438 149.998046875 271.999023438 c 0
 149.998046875 204.666015625 162.665039062 151.666015625 187.998046875 112.999023438 c 0
 213.331054688 74.33203125 248.6640625 54.9990234375 293.997070312 54.9990234375 c 0
EndSplineSet
Fore
SplineSet
423 -10 m 1
 423 51 l 1
 419 53 l 1
 398 23 331 -10 252 -10 c 3
 185 -10 136 24 104 65 c 0
 68 110 45 177 45 256 c 3
 45 389 108 478 201 519 c 0
 233 533 269 540 308 540 c 3
 345 540 381 535 416 525 c 1
 416 740 l 1
 341 767 l 1
 341 781 l 1
 434 799 462 811 500 830 c 1
 510 830 l 1
 510 78 l 1
 589 53 l 1
 589 39 l 1
 430 -10 l 1
 423 -10 l 1
150 272 m 3
 150 158 190 45 294 45 c 0
 348 45 395 80 416 114 c 1
 416 396 l 2
 416 452 372 485 306 485 c 3
 182 485 150 395 150 272 c 3
EndSplineSet
Validated: 1
EndChar

StartChar: f
Encoding: 102 102 15
Width: 356
Flags: HMW
LayerCount: 2
Back
SplineSet
37 530 m 1
 112.999023438 529.999023438 l 1
 112.999023438 577.999023438 113.83203125 615.166015625 115.499023438 641.499023438 c 0
 117.166015625 667.83203125 121.333007812 689.665039062 128 706.998046875 c 0
 134.666992188 725.665039062 144.666992188 742.498046875 158 757.498046875 c 0
 171.333007812 772.498046875 186.666015625 785.331054688 203.999023438 795.998046875 c 0
 221.33203125 806.665039062 239.999023438 814.998046875 259.999023438 820.998046875 c 0
 279.999023438 826.998046875 300.666015625 829.998046875 321.999023438 829.998046875 c 0
 339.999023438 829.998046875 356.83203125 827.831054688 372.499023438 823.498046875 c 0
 388.166015625 819.165039062 401.833007812 813.33203125 413.5 805.999023438 c 0
 425.166992188 798.666015625 434.333984375 789.666015625 441.000976562 778.999023438 c 0
 447.66796875 768.33203125 451.000976562 756.999023438 451.000976562 744.999023438 c 0
 451.000976562 730.33203125 446.500976562 718.499023438 437.500976562 709.499023438 c 0
 428.500976562 700.499023438 416.66796875 695.999023438 402.000976562 695.999023438 c 0
 385.333984375 695.999023438 373.666992188 701.33203125 367 711.999023438 c 0
 360.333007812 722.666015625 355.666015625 734.333007812 352.999023438 747 c 0
 349.666015625 765 344.499023438 778.166992188 337.499023438 786.5 c 0
 330.499023438 794.833007812 318.999023438 799 302.999023438 799 c 0
 287.666015625 799 273.499023438 795.166992188 260.499023438 787.5 c 0
 247.499023438 779.833007812 236.999023438 767.333007812 228.999023438 750 c 0
 221.666015625 734.666992188 216.333007812 714.166992188 213 688.5 c 0
 209.666992188 662.833007812 208 628.333007812 208 585 c 2
 208 530 l 1
 337 530 l 1
 325 498 l 1
 208 498 l 1
 208 35 l 1
 314 20 l 1
 314 0 l 1
 38 0 l 1
 38 20 l 1
 113 35 l 1
 113 498 l 1
 25 498 l 1
 37 530 l 1
EndSplineSet
Fore
SplineSet
451 745 m 3
 451 716 431 696 402 696 c 3
 331 696 377 790 303 790 c 3
 209 790 208 686 208 585 c 2
 208 530 l 1
 337 530 l 1
 337 488 l 1
 208 488 l 1
 208 35 l 1
 314 20 l 1
 314 0 l 1
 38 0 l 1
 38 20 l 1
 113 35 l 1
 113 488 l 1
 25 488 l 1
 37 530 l 1
 113 530 l 1
 113 578 113 615 115 641 c 0
 120 720 152 764 204 796 c 0
 235 815 275 830 322 830 c 3
 384 830 451 801 451 745 c 3
EndSplineSet
Validated: 1
EndChar

StartChar: g
Encoding: 103 103 16
Width: 502
Flags: HMW
LayerCount: 2
Back
SplineSet
223 -260 m 4
 199 -260 172.66796875 -257.5078125 144.000976562 -252.5078125 c 4
 115.333984375 -247.5078125 90.0009765625 -238.340820312 68.0009765625 -225.0078125 c 4
 50.66796875 -214.340820312 36.66796875 -201.173828125 26.0009765625 -185.506835938 c 4
 15.333984375 -169.83984375 10.0009765625 -151.006835938 10.0009765625 -129.006835938 c 4
 10.0009765625 -102.33984375 19.16796875 -78.33984375 37.5009765625 -57.0068359375 c 4
 55.833984375 -35.673828125 88.0009765625 -15.3408203125 134.000976562 3.9921875 c 5
 88.66796875 23.9921875 66.0009765625 51.3251953125 66.0009765625 85.9921875 c 4
 66.0009765625 93.9921875 67.66796875 102.9921875 71.0009765625 112.9921875 c 4
 74.333984375 122.9921875 80.833984375 133.325195312 90.5009765625 143.9921875 c 4
 100.16796875 154.659179688 113.66796875 165.326171875 131.000976562 175.993164062 c 4
 148.333984375 186.66015625 170.666992188 196.327148438 198 204.994140625 c 5
 159.333007812 215.661132812 127.166015625 235.161132812 101.499023438 263.494140625 c 4
 75.83203125 291.827148438 62.9990234375 326.994140625 62.9990234375 368.994140625 c 4
 62.9990234375 393.661132812 67.9990234375 416.494140625 77.9990234375 437.494140625 c 4
 87.9990234375 458.494140625 101.666015625 476.494140625 118.999023438 491.494140625 c 4
 136.33203125 506.494140625 156.83203125 518.327148438 180.499023438 526.994140625 c 4
 204.166015625 535.661132812 229.666015625 539.994140625 256.999023438 539.994140625 c 4
 279.666015625 539.994140625 300.833007812 537.161132812 320.5 531.494140625 c 4
 340.166992188 525.827148438 358 517.994140625 374 507.994140625 c 5
 378 519.994140625 383 532.327148438 389 544.994140625 c 4
 395 557.661132812 402 569.328125 410 579.995117188 c 4
 418 590.662109375 427.166992188 599.329101562 437.5 605.99609375 c 4
 447.833007812 612.663085938 459.666015625 615.99609375 472.999023438 615.99609375 c 4
 488.33203125 615.99609375 501.83203125 611.49609375 513.499023438 602.49609375 c 4
 525.166015625 593.49609375 530.999023438 581.329101562 530.999023438 565.99609375 c 4
 530.999023438 552.663085938 526.499023438 541.49609375 517.499023438 532.49609375 c 4
 508.499023438 523.49609375 497.33203125 518.99609375 483.999023438 518.99609375 c 4
 476.666015625 518.99609375 470.999023438 520.329101562 466.999023438 522.99609375 c 4
 462.999023438 525.663085938 459.499023438 528.663085938 456.499023438 531.99609375 c 4
 453.499023438 535.329101562 450.33203125 538.329101562 446.999023438 540.99609375 c 4
 443.666015625 543.663085938 438.999023438 544.99609375 432.999023438 544.99609375 c 4
 424.999023438 544.99609375 417.499023438 539.829101562 410.499023438 529.49609375 c 4
 403.499023438 519.163085938 398.33203125 507.330078125 394.999023438 493.997070312 c 5
 414.33203125 477.997070312 429.499023438 458.997070312 440.499023438 436.997070312 c 4
 451.499023438 414.997070312 456.999023438 392.330078125 456.999023438 368.997070312 c 4
 456.999023438 346.997070312 452.166015625 325.830078125 442.499023438 305.497070312 c 4
 432.83203125 285.1640625 419.165039062 266.997070312 401.498046875 250.997070312 c 4
 383.831054688 234.997070312 362.831054688 221.6640625 338.498046875 210.997070312 c 4
 314.165039062 200.330078125 287.33203125 193.997070312 257.999023438 191.997070312 c 4
 245.33203125 190.6640625 232.499023438 188.331054688 219.499023438 184.998046875 c 4
 206.499023438 181.665039062 194.83203125 177.165039062 184.499023438 171.498046875 c 4
 174.166015625 165.831054688 165.833007812 159.498046875 159.5 152.498046875 c 4
 153.166992188 145.498046875 150 137.665039062 150 128.998046875 c 4
 150 114.998046875 158 103.665039062 174 94.998046875 c 4
 190 86.3310546875 209.166992188 78.998046875 231.5 72.998046875 c 4
 253.833007812 66.998046875 277.333007812 61.998046875 302 57.998046875 c 4
 326.666992188 53.998046875 347.666992188 49.998046875 365 45.998046875 c 4
 392.333007812 39.998046875 414.333007812 31.998046875 431 21.998046875 c 4
 447.666992188 11.998046875 460.5 1.1650390625 469.5 -10.501953125 c 4
 478.5 -22.1689453125 484.5 -34.1689453125 487.5 -46.501953125 c 4
 490.5 -58.8349609375 492 -70.66796875 492 -82.0009765625 c 4
 492 -107.333984375 487 -129.333984375 477 -148.000976562 c 4
 467 -166.66796875 453.666992188 -182.66796875 437 -196.000976562 c 4
 423 -207.333984375 407.333007812 -217.000976562 390 -225.000976562 c 4
 372.666992188 -233.000976562 354.5 -239.66796875 335.5 -245.000976562 c 4
 316.5 -250.333984375 297.5 -254.166992188 278.5 -256.5 c 4
 259.5 -258.833007812 241 -260 223 -260 c 4
264.000976562 -29.0078125 m 4
 246.66796875 -25.6748046875 229.500976562 -22.0087890625 212.500976562 -18.0087890625 c 4
 195.500976562 -14.0087890625 180.333984375 -10.0087890625 167.000976562 -6.0087890625 c 5
 143.66796875 -16.67578125 125.16796875 -32.0087890625 111.500976562 -52.0087890625 c 4
 97.833984375 -72.0087890625 91.0009765625 -93.67578125 91.0009765625 -117.008789062 c 4
 91.0009765625 -135.008789062 95.0009765625 -151.17578125 103.000976562 -165.508789062 c 4
 111.000976562 -179.841796875 122.333984375 -191.674804688 137.000976562 -201.0078125 c 4
 163.66796875 -219.0078125 198.66796875 -228.0078125 242.000976562 -228.0078125 c 4
 262.000976562 -228.0078125 282.16796875 -226.0078125 302.500976562 -222.0078125 c 4
 322.833984375 -218.0078125 341.000976562 -212.0078125 357.000976562 -204.0078125 c 4
 374.333984375 -195.340820312 388.333984375 -184.0078125 399.000976562 -170.0078125 c 4
 409.66796875 -156.0078125 415.000976562 -139.340820312 415.000976562 -120.0078125 c 4
 415.000976562 -108.0078125 412.66796875 -97.6748046875 408.000976562 -89.0078125 c 4
 403.333984375 -80.3408203125 395.166992188 -72.5078125 383.5 -65.5078125 c 4
 371.833007812 -58.5078125 356.333007812 -52.1748046875 337 -46.5078125 c 4
 317.666992188 -40.8408203125 293.333984375 -35.0078125 264.000976562 -29.0078125 c 4
258.000976562 223.991210938 m 4
 276.66796875 223.991210938 292.333984375 228.662109375 305.000976562 237.995117188 c 4
 317.66796875 247.328125 327.66796875 259.161132812 335.000976562 273.494140625 c 4
 342.333984375 287.827148438 347.500976562 303.66015625 350.500976562 320.993164062 c 4
 353.500976562 338.326171875 355.000976562 354.993164062 355.000976562 370.993164062 c 4
 355.000976562 384.326171875 353.833984375 399.159179688 351.500976562 415.4921875 c 4
 349.16796875 431.825195312 344.66796875 447.158203125 338.000976562 461.491210938 c 4
 331.333984375 475.82421875 322.000976562 487.82421875 310.000976562 497.491210938 c 4
 298.000976562 507.158203125 282.333984375 511.991210938 263.000976562 511.991210938 c 4
 243.000976562 511.991210938 226.66796875 506.82421875 214.000976562 496.491210938 c 4
 201.333984375 486.158203125 191.500976562 473.158203125 184.500976562 457.491210938 c 4
 177.500976562 441.82421875 172.66796875 425.32421875 170.000976562 407.991210938 c 4
 167.333984375 390.658203125 166.000976562 374.991210938 166.000976562 360.991210938 c 4
 166.000976562 347.658203125 167.16796875 332.991210938 169.500976562 316.991210938 c 4
 171.833984375 300.991210938 176.500976562 286.158203125 183.500976562 272.491210938 c 4
 190.500976562 258.82421875 199.833984375 247.32421875 211.500976562 237.991210938 c 4
 223.16796875 228.658203125 238.66796875 223.991210938 258.000976562 223.991210938 c 4
EndSplineSet
Fore
SplineSet
258 234 m 3
 332 234 355 298 355 371 c 3
 355 440 333 500 263 500 c 3
 188 500 166 434 166 361 c 3
 166 293 189 234 258 234 c 3
167 19 m 1
 127 3 91 -26 91 -74 c 3
 91 -146 170 -151 245 -151 c 3
 325 -151 415 -132 415 -77 c 3
 415 -34 377 -28 337 -17 c 0
 290 -5 216 6 167 19 c 1
441 436 m 1
 450 416 457 398 457 369 c 0
 457 317 431 278 401 251 c 0
 367 220 318 192 258 192 c 3
 230 192 153 163 153 126 c 3
 153 43 492 72 492 -43 c 3
 492 -160 346 -202 223 -202 c 0
 125 -202 10 -177 10 -85 c 0
 10 -33 63 7 112 43 c 1
 67 61 66 75 66 106 c 3
 66 154 147 224 151 225 c 1
 93 255 63 309 63 369 c 0
 63 453 117 504 180 527 c 0
 204 536 230 540 257 540 c 0
 287 540 314 535 337 526 c 1
 357 521 371 519 383 519 c 3
 407 519 426 526 477 533 c 1
 486 501 l 1
 447 482 434 467 434 454 c 3
 434 448 437 442 441 436 c 1
EndSplineSet
Validated: 1
EndChar

StartChar: j
Encoding: 106 106 17
Width: 284
Flags: HMW
LayerCount: 2
Back
SplineSet
102 451 m 5
 27.99609375 477.999023438 l 5
 27.99609375 491.999023438 l 5
 187.99609375 539.999023438 l 5
 196.99609375 539.999023438 l 5
 196.99609375 154.999023438 l 6
 196.99609375 105.666015625 196.663085938 65.666015625 195.99609375 34.9990234375 c 4
 195.329101562 4.33203125 193.829101562 -21.16796875 191.49609375 -41.5009765625 c 4
 189.163085938 -61.833984375 185.830078125 -78.5009765625 181.497070312 -91.5009765625 c 4
 177.1640625 -104.500976562 171.331054688 -117.66796875 163.998046875 -131.000976562 c 4
 140.665039062 -173.000976562 112.498046875 -205.000976562 79.498046875 -227.000976562 c 4
 46.498046875 -249.000976562 9.998046875 -260.000976562 -30.001953125 -260.000976562 c 4
 -64.001953125 -260.000976562 -90.8349609375 -252.66796875 -110.501953125 -238.000976562 c 4
 -130.168945312 -223.333984375 -140.001953125 -203.333984375 -140.001953125 -178.000976562 c 4
 -140.001953125 -159.333984375 -135.168945312 -144.666992188 -125.501953125 -134 c 4
 -115.834960938 -123.333007812 -102.66796875 -118 -86.0009765625 -118 c 4
 -72.0009765625 -118 -60.66796875 -121.833007812 -52.0009765625 -129.5 c 4
 -43.333984375 -137.166992188 -36.333984375 -148.666992188 -31.0009765625 -164 c 4
 -23.66796875 -183.333007812 -16.66796875 -196.333007812 -10.0009765625 -203 c 4
 -3.333984375 -209.666992188 6.3330078125 -213 19 -213 c 4
 74.3330078125 -213 102 -158 102 -48 c 6
 102 451 l 5
84.99609375 715.999023438 m 4
 84.99609375 734.666015625 90.8291015625 749.999023438 102.49609375 761.999023438 c 4
 114.163085938 773.999023438 129.663085938 779.999023438 148.99609375 779.999023438 c 4
 168.329101562 779.999023438 183.99609375 773.999023438 195.99609375 761.999023438 c 4
 207.99609375 749.999023438 213.99609375 734.666015625 213.99609375 715.999023438 c 4
 213.99609375 696.666015625 207.99609375 680.999023438 195.99609375 668.999023438 c 4
 183.99609375 656.999023438 168.329101562 650.999023438 148.99609375 650.999023438 c 4
 129.663085938 650.999023438 114.163085938 656.999023438 102.49609375 668.999023438 c 4
 90.8291015625 680.999023438 84.99609375 696.666015625 84.99609375 715.999023438 c 4
EndSplineSet
Fore
SplineSet
197 540 m 1
 197 215 l 2
 197 -73 176 -200 -30 -200 c 0
 -90 -200 -140 -174 -140 -118 c 0
 -140 -82 -121 -58 -86 -58 c 0
 -19 -58 -55 -140 18 -140 c 3
 86 -140 104 -9 104 138 c 2
 102 451 l 2
 28 478 l 1
 28 492 l 1
 121 510 148 521 186 540 c 1
 197 540 l 1
149 651 m 3
 110 651 85 678 85 716 c 3
 85 754 111 780 149 780 c 3
 187 780 214 754 214 716 c 3
 214 678 187 651 149 651 c 3
EndSplineSet
Validated: 1
EndChar

StartChar: a
Encoding: 97 97 18
Width: 522
Flags: HMW
LayerCount: 2
Back
SplineSet
165 -10 m 0
 129 -10 99.998046875 1.328125 77.998046875 23.9951171875 c 0
 55.998046875 46.662109375 44.998046875 75.9951171875 44.998046875 111.995117188 c 0
 44.998046875 133.995117188 49.8310546875 153.495117188 59.498046875 170.495117188 c 0
 69.1650390625 187.495117188 84.83203125 202.995117188 106.499023438 216.995117188 c 0
 128.166015625 230.995117188 156.499023438 243.828125 191.499023438 255.495117188 c 0
 226.499023438 267.162109375 268.999023438 278.329101562 318.999023438 288.99609375 c 1
 318.999023438 386.99609375 l 2
 318.999023438 428.99609375 312.999023438 458.663085938 300.999023438 475.99609375 c 0
 288.999023438 493.329101562 268.33203125 501.99609375 238.999023438 501.99609375 c 0
 210.33203125 501.99609375 187.665039062 495.163085938 170.998046875 481.49609375 c 0
 154.331054688 467.829101562 145.998046875 449.329101562 145.998046875 425.99609375 c 0
 145.998046875 420.663085938 146.331054688 414.830078125 146.998046875 408.497070312 c 0
 147.665039062 402.1640625 147.998046875 396.331054688 147.998046875 390.998046875 c 0
 147.998046875 373.665039062 143.165039062 359.665039062 133.498046875 348.998046875 c 0
 123.831054688 338.331054688 111.331054688 332.998046875 95.998046875 332.998046875 c 0
 82.6650390625 332.998046875 71.6650390625 337.331054688 62.998046875 345.998046875 c 0
 54.3310546875 354.665039062 49.998046875 366.33203125 49.998046875 380.999023438 c 0
 49.998046875 402.999023438 59.8310546875 425.666015625 79.498046875 448.999023438 c 0
 99.1650390625 472.33203125 125.33203125 492.33203125 157.999023438 508.999023438 c 0
 197.999023438 529.666015625 240.33203125 539.999023438 284.999023438 539.999023438 c 0
 313.666015625 539.999023438 337.999023438 535.499023438 357.999023438 526.499023438 c 0
 377.999023438 517.499023438 392.33203125 504.33203125 400.999023438 486.999023438 c 0
 403.666015625 480.999023438 405.833007812 474.83203125 407.5 468.499023438 c 0
 409.166992188 462.166015625 410.5 454.166015625 411.5 444.499023438 c 0
 412.5 434.83203125 413.166992188 422.83203125 413.5 408.499023438 c 0
 413.833007812 394.166015625 414 376.666015625 414 355.999023438 c 2
 414 126.999023438 l 2
 414 93.666015625 416.5 71.3330078125 421.5 60 c 0
 426.5 48.6669921875 436.333007812 43 451 43 c 0
 460.333007812 43 468.666015625 45.1669921875 475.999023438 49.5 c 0
 483.33203125 53.8330078125 491.33203125 61.3330078125 499.999023438 72 c 1
 516.999023438 57 l 1
 501.666015625 33 485.833007812 15.8330078125 469.5 5.5 c 0
 453.166992188 -4.8330078125 434.333984375 -10 413.000976562 -10 c 0
 360.333984375 -10 330.666992188 20 324 80 c 1
 321 82 l 1
 301.666992188 53.3330078125 278.166992188 30.8330078125 250.5 14.5 c 0
 222.833007812 -1.8330078125 194.333007812 -10 165 -10 c 0
208.998046875 48.9951171875 m 0
 230.331054688 48.9951171875 250.666015625 54.826171875 269.999023438 66.4931640625 c 0
 289.33203125 78.16015625 305.665039062 94.66015625 318.998046875 115.993164062 c 1
 318.998046875 259.993164062 l 1
 283.665039062 252.66015625 254.165039062 245.327148438 230.498046875 237.994140625 c 0
 206.831054688 230.661132812 187.831054688 221.994140625 173.498046875 211.994140625 c 0
 159.165039062 201.994140625 148.998046875 190.661132812 142.998046875 177.994140625 c 0
 136.998046875 165.327148438 133.998046875 150.327148438 133.998046875 132.994140625 c 0
 133.998046875 105.661132812 140.498046875 84.828125 153.498046875 70.4951171875 c 0
 166.498046875 56.162109375 184.998046875 48.9951171875 208.998046875 48.9951171875 c 0
EndSplineSet
Fore
SplineSet
321 55 m 1
 289 8 235 -10 165 -10 c 3
 93 -10 45 40 45 112 c 3
 45 165 70 194 106 217 c 0
 161 253 236 271 319 289 c 1
 319 391 l 2
 319 459 284 485 246 485 c 0
 176 485 148 442 148 391 c 3
 148 358 128 333 96 333 c 0
 68 333 50 353 50 381 c 0
 50 403 59 426 79 449 c 0
 120 497 201 540 285 540 c 3
 384 540 414 494 414 394 c 2
 414 127 l 2
 414 79 414 43 451 43 c 3
 476 43 486 55 500 72 c 1
 517 57 l 1
 492 18 467 -10 413 -10 c 3
 360 -10 328 26 324 53 c 1
 321 55 l 1
134 133 m 3
 134 81 159 49 209 49 c 3
 260 49 297 102 319 137 c 1
 319 234 l 1
 249 220 134 202 134 133 c 3
EndSplineSet
EndChar

StartChar: A
Encoding: 65 65 19
Width: 777
Flags: MW
LayerCount: 2
Back
SplineSet
485 283 m 5
 243.000976562 282.998046875 l 5
 189.000976562 131.998046875 l 6
 181.66796875 111.331054688 178.000976562 95.6640625 178.000976562 84.9970703125 c 4
 178.000976562 66.9970703125 186.66796875 53.4970703125 204.000976562 44.4970703125 c 4
 221.333984375 35.4970703125 247.000976562 28.330078125 281.000976562 22.9970703125 c 5
 281.000976562 -0.0029296875 l 5
 0.0009765625 -0.0029296875 l 5
 0.0009765625 22.9970703125 l 5
 26.66796875 26.9970703125 48.0009765625 31.6640625 64.0009765625 36.9970703125 c 4
 80.0009765625 42.330078125 93.0009765625 49.330078125 103.000976562 57.9970703125 c 4
 113.000976562 66.6640625 121.000976562 77.1640625 127.000976562 89.4970703125 c 4
 133.000976562 101.830078125 139.000976562 116.663085938 145.000976562 133.99609375 c 6
 339.000976562 676.99609375 l 5
 313.000976562 735.99609375 l 5
 411.000976562 789.99609375 l 5
 675.000976562 83.99609375 l 6
 679.000976562 72.6630859375 683.333984375 63.330078125 688.000976562 55.9970703125 c 4
 692.66796875 48.6640625 698.66796875 42.6640625 706.000976562 37.9970703125 c 4
 713.333984375 33.330078125 722.666992188 29.9970703125 734 27.9970703125 c 4
 745.333007812 25.9970703125 759.666015625 24.330078125 776.999023438 22.9970703125 c 5
 776.999023438 -0.0029296875 l 5
 458.999023438 -0.0029296875 l 5
 458.999023438 22.9970703125 l 5
 481.666015625 23.6640625 499.833007812 24.8310546875 513.5 26.498046875 c 4
 527.166992188 28.1650390625 537.666992188 30.33203125 545 32.9990234375 c 4
 552.333007812 35.666015625 557 38.8330078125 559 42.5 c 4
 561 46.1669921875 562 50.6669921875 562 56 c 4
 562 60.6669921875 561.333007812 66.1669921875 560 72.5 c 4
 558.666992188 78.8330078125 555.666992188 88 551 100 c 6
 485 283 l 5
361.000976562 613.998046875 m 5
 257.000976562 322.998046875 l 5
 470.000976562 322.998046875 l 5
 365.000976562 613.998046875 l 5
 361.000976562 613.998046875 l 5
EndSplineSet
Fore
SplineSet
485 283 m 1
 267 283 l 1
 213 132 l 2
 206 111 202 96 202 85 c 3
 202 49 242 29 281 23 c 1
 281 0 l 1
 0 0 l 1
 0 23 l 1
 62 32 105 43 127 89 c 0
 133 101 139 117 145 134 c 2
 377 784 l 1
 411 790 l 1
 675 84 l 2
 692 37 712 27 777 23 c 1
 777 0 l 1
 459 0 l 1
 459 23 l 1
 495 24 522 25 545 33 c 0
 557 37 562 42 562 56 c 0
 562 74 558 82 551 100 c 2
 485 283 l 1
373 579 m 1
 290 348 l 1
 461 348 l 1
 377 579 l 1
 373 579 l 1
EndSplineSet
Validated: 1
EndChar

StartChar: B
Encoding: 66 66 20
Width: 676
Flags: HMW
LayerCount: 2
Back
SplineSet
336 770 m 6
 382 770 420.166992188 766.665039062 450.5 759.998046875 c 4
 480.833007812 753.331054688 506.333007812 742.998046875 527 728.998046875 c 4
 550.333007812 712.331054688 568.666015625 691.331054688 581.999023438 665.998046875 c 4
 595.33203125 640.665039062 601.999023438 612.998046875 601.999023438 582.998046875 c 4
 601.999023438 538.998046875 587.83203125 502.331054688 559.499023438 472.998046875 c 4
 531.166015625 443.665039062 490.333007812 423.33203125 437 411.999023438 c 5
 437 407.999023438 l 5
 467 404.666015625 494.166992188 397.333007812 518.5 386 c 4
 542.833007812 374.666992188 563.833007812 360 581.5 342 c 4
 599.166992188 324 612.666992188 303.333007812 622 280 c 4
 631.333007812 256.666992188 636 231.333984375 636 204.000976562 c 4
 636 173.333984375 630.166992188 144.666992188 618.5 118 c 4
 606.833007812 91.3330078125 590.333007812 69.3330078125 569 52 c 4
 545.666992188 33.3330078125 517.5 20 484.5 12 c 4
 451.5 4 407.666992188 0 353 0 c 6
 40 0 l 5
 40 23 l 5
 125 42 l 5
 125 728 l 5
 40 747 l 5
 40 770 l 5
 336 770 l 6
230 428.998046875 m 5
 291.999023438 429.000976562 l 6
 311.33203125 429.000976562 327.33203125 429.16796875 339.999023438 429.500976562 c 4
 352.666015625 429.833984375 364.666015625 430.666992188 375.999023438 432 c 4
 412.666015625 436 440.833007812 451.166992188 460.5 477.5 c 4
 480.166992188 503.833007812 490 540 490 586 c 4
 490 609.333007812 487.166992188 629.166015625 481.5 645.499023438 c 4
 475.833007812 661.83203125 466.333007812 676.665039062 453 689.998046875 c 4
 438.333007812 705.331054688 421 715.831054688 401 721.498046875 c 4
 381 727.165039062 352.666992188 729.998046875 316 729.998046875 c 6
 230 729.998046875 l 5
 230 428.998046875 l 5
229.999023438 389.000976562 m 5
 229.999023438 98 l 6
 229.999023438 74.6669921875 236.166015625 58.833984375 248.499023438 50.5009765625 c 4
 260.83203125 42.16796875 283.999023438 38.0009765625 317.999023438 38.0009765625 c 4
 387.33203125 38.0009765625 438.33203125 52.0009765625 470.999023438 80.0009765625 c 4
 503.666015625 108.000976562 519.999023438 152.333984375 519.999023438 213.000976562 c 4
 519.999023438 273.66796875 503.499023438 318.16796875 470.499023438 346.500976562 c 4
 437.499023438 374.833984375 385.666015625 389.000976562 314.999023438 389.000976562 c 6
 229.999023438 389.000976562 l 5
EndSplineSet
Fore
SplineSet
602 583 m 7
 602 482 528 431 437 412 c 5
 437 408 l 5
 527 398 593 351 622 280 c 4
 631 257 636 231 636 204 c 7
 636 97 573 33 485 12 c 4
 452 4 408 0 353 0 c 6
 40 0 l 5
 40 23 l 5
 125 42 l 5
 125 728 l 5
 40 747 l 5
 40 770 l 5
 336 770 l 6
 461 770 540 746 582 666 c 4
 595 641 602 613 602 583 c 7
230 445 m 5
 292 445 l 6
 422 445 490 452 490 586 c 7
 490 684 416 711 316 711 c 6
 230 711 l 5
 230 445 l 5
520 213 m 7
 520 342 448 376 315 376 c 6
 230 376 l 5
 230 129 l 6
 230 76 259 69 318 69 c 7
 450 69 520 85 520 213 c 7
EndSplineSet
Validated: 1
EndChar

StartChar: C
Encoding: 67 67 21
Width: 732
Flags: HMW
LayerCount: 2
Back
SplineSet
590 583 m 7
 590 482 516 431 425 412 c 5
 425 408 l 5
 515 398 581 351 610 280 c 4
 619 257 624 231 624 204 c 7
 624 97 561 33 473 12 c 4
 440 4 396 0 341 0 c 6
 28 0 l 5
 28 23 l 5
 113 42 l 5
 113 728 l 5
 28 747 l 5
 28 770 l 5
 324 770 l 6
 449 770 528 746 570 666 c 4
 583 641 590 613 590 583 c 7
218 445 m 5
 280 445 l 6
 410 445 478 452 478 586 c 7
 478 684.026367188 404.220703125 711 304 711 c 6
 218 711 l 5
 218 445 l 5
508 213 m 7
 508 342 436 376 303 376 c 6
 218 376 l 5
 218 129 l 6
 218 76 247 69 306 69 c 7
 438 69 508 85 508 213 c 7
EndSplineSet
Fore
SplineSet
35 380 m 7
 35 611 172 780 401 780 c 7
 487 780 561 754 616 719 c 5
 620 719 l 5
 669 770 l 5
 687 770 l 5
 687 540 l 5
 657 540 l 5
 620 651 559 721 418 721 c 7
 232 721 161 585 161 387 c 7
 161 189 233 54 418 54 c 7
 565 54 636 135 660 262 c 5
 687 262 l 5
 687 0 l 5
 663 0 l 5
 617 66 l 5
 554 20 495 -10 397 -10 c 7
 170 -10 35 152 35 380 c 7
EndSplineSet
Validated: 1
EndChar

StartChar: D
Encoding: 68 68 22
Width: 779
Flags: HMW
LayerCount: 2
Back
SplineSet
602 583 m 7
 602 482 528 431 437 412 c 5
 437 408 l 5
 527 398 593 351 622 280 c 4
 631 257 636 231 636 204 c 7
 636 97 573 33 485 12 c 4
 452 4 408 0 353 0 c 6
 40 0 l 5
 40 23 l 5
 125 42 l 5
 125 728 l 5
 40 747 l 5
 40 770 l 5
 336 770 l 6
 461 770 540 746 582 666 c 4
 595 641 602 613 602 583 c 7
230 445 m 5
 292 445 l 6
 422 445 490 452 490 586 c 7
 490 684.026367188 416.220703125 711 316 711 c 6
 230 711 l 5
 230 445 l 5
520 213 m 7
 520 342 448 376 315 376 c 6
 230 376 l 5
 230 129 l 6
 230 76 259 69 318 69 c 7
 450 69 520 85 520 213 c 7
EndSplineSet
Fore
SplineSet
40 0 m 1
 40 23 l 1
 125 42 l 1
 125 728 l 1
 40 747 l 1
 40 770 l 1
 289 770 l 2
 573 770 744 659 744 383 c 3
 744 149 613 0 375 0 c 2
 40 0 l 1
230 129 m 2
 230 73 270 69 334 69 c 0
 542 69 619 189 619 395 c 3
 619 611 529 711 309 711 c 2
 230 711 l 1
 230 129 l 2
EndSplineSet
Validated: 1
EndChar

StartChar: E
Encoding: 69 69 23
Width: 669
Flags: HMW
LayerCount: 2
Back
SplineSet
602 583 m 7
 602 482 528 431 437 412 c 5
 437 408 l 5
 527 398 593 351 622 280 c 4
 631 257 636 231 636 204 c 7
 636 97 573 33 485 12 c 4
 452 4 408 0 353 0 c 6
 40 0 l 5
 40 23 l 5
 125 42 l 5
 125 728 l 5
 40 747 l 5
 40 770 l 5
 336 770 l 6
 461 770 540 746 582 666 c 4
 595 641 602 613 602 583 c 7
230 445 m 5
 292 445 l 6
 422 445 490 452 490 586 c 7
 490 684 416 711 316 711 c 6
 230 711 l 5
 230 445 l 5
520 213 m 7
 520 342 448 376 315 376 c 6
 230 376 l 5
 230 129 l 6
 230 76 259 69 318 69 c 7
 450 69 520 85 520 213 c 7
EndSplineSet
Fore
SplineSet
589 550 m 5
 572 612 548 658 517 711 c 5
 230 711 l 5
 230 445 l 5
 409 445 l 5
 426 482 439 502 446 546 c 5
 470 546 l 5
 470 266 l 5
 446 266 l 5
 440 307 428 337 409 376 c 5
 230 376 l 5
 230 70 l 5
 512 70 l 5
 550 132 571 163 596 234 c 5
 629 234 l 5
 592 0 l 5
 40 0 l 5
 40 23 l 5
 125 42 l 5
 125 728 l 5
 40 747 l 5
 40 770 l 5
 596 770 l 5
 613 550 l 5
 589 550 l 5
EndSplineSet
Validated: 1
EndChar

StartChar: H
Encoding: 72 72 24
Width: 847
Flags: HMW
LayerCount: 2
Back
SplineSet
606 583 m 3
 606 482 532 431 441 412 c 1
 441 408 l 1
 531 398 597 351 626 280 c 0
 635 257 640 231 640 204 c 3
 640 97 577 33 489 12 c 0
 456 4 412 0 357 0 c 2
 44 0 l 1
 44 23 l 1
 129 42 l 1
 129 728 l 1
 44 747 l 1
 44 770 l 1
 340 770 l 2
 465 770 544 746 586 666 c 0
 599 641 606 613 606 583 c 3
234 445 m 1
 296 445 l 2
 426 445 494 452 494 586 c 3
 494 684.026367188 420.220703125 711 320 711 c 2
 234 711 l 1
 234 445 l 1
524 213 m 3
 524 342 452 376 319 376 c 2
 234 376 l 1
 234 129 l 2
 234 76 263 69 322 69 c 3
 454 69 524 85 524 213 c 3
EndSplineSet
Fore
SplineSet
613 376 m 5
 235 376 l 5
 235 42 l 5
 324 23 l 5
 324 0 l 5
 40 0 l 5
 40 23 l 5
 130 42 l 5
 130 728 l 5
 40 747 l 5
 40 770 l 5
 324 770 l 5
 324 747 l 5
 235 728 l 5
 235 445 l 5
 613 445 l 5
 613 728 l 5
 523 747 l 5
 523 770 l 5
 807 770 l 5
 807 745 l 5
 718 728 l 5
 718 42 l 5
 807 21 l 5
 807 0 l 5
 523 0 l 5
 523 23 l 5
 613 42 l 5
 613 376 l 5
EndSplineSet
Validated: 1
EndChar

StartChar: I
Encoding: 73 73 25
Width: 364
Flags: HMW
LayerCount: 2
Fore
SplineSet
130 728 m 1
 40 747 l 1
 40 770 l 1
 324 770 l 1
 324 747 l 1
 235 728 l 1
 235 42 l 1
 324 23 l 1
 324 0 l 1
 40 0 l 1
 40 23 l 1
 130 42 l 1
 130 728 l 1
EndSplineSet
Validated: 1
EndChar

StartChar: J
Encoding: 74 74 26
Width: 500
Flags: HMW
LayerCount: 2
Back
SplineSet
371 155 m 2
 371 105.666992188 370.666015625 65.6669921875 369.999023438 35 c 0
 369.33203125 4.3330078125 367.665039062 -21.1669921875 364.998046875 -41.5 c 0
 362.331054688 -61.8330078125 358.831054688 -78.5 354.498046875 -91.5 c 0
 350.165039062 -104.5 344.33203125 -117.666992188 336.999023438 -131 c 0
 313.666015625 -173 283.499023438 -205 246.499023438 -227 c 0
 209.499023438 -249 170.33203125 -260 128.999023438 -260 c 0
 91.666015625 -260 62.3330078125 -252.333007812 41 -237 c 0
 19.6669921875 -221.666992188 9 -200.333984375 9 -173.000976562 c 0
 9 -153.000976562 14.3330078125 -137.16796875 25 -125.500976562 c 0
 35.6669921875 -113.833984375 50 -108.000976562 68 -108.000976562 c 0
 82 -108.000976562 93.3330078125 -111.833984375 102 -119.500976562 c 0
 110.666992188 -127.16796875 117.666992188 -138.66796875 123 -154.000976562 c 0
 130.333007812 -173.333984375 139 -187.166992188 149 -195.5 c 0
 159 -203.833007812 170.666992188 -208 184 -208 c 0
 207.333007812 -208 226.833007812 -194.833007812 242.5 -168.5 c 0
 258.166992188 -142.166992188 266 -102 266 -48 c 2
 266 728 l 1
 176 747 l 1
 176 770 l 1
 460 770 l 1
 460 747 l 1
 371 728 l 1
 371 155 l 2
EndSplineSet
Fore
SplineSet
266 728 m 1
 176 747 l 1
 176 770 l 1
 460 770 l 1
 460 747 l 1
 371 728 l 1
 371 426 l 2
 370 135 317 0 134 0 c 3
 49 0 10 35 10 91 c 3
 10 127 34 152 69 152 c 0
 136 152 109 74 182 74 c 3
 250 74 268 205 268 352 c 2
 266 728 l 1
EndSplineSet
Validated: 1
EndChar

StartChar: O
Encoding: 79 79 27
Width: 796
Flags: HMW
LayerCount: 2
Back
SplineSet
576 583 m 7
 576 482 502 431 411 412 c 5
 411 408 l 5
 501 398 567 351 596 280 c 4
 605 257 610 231 610 204 c 7
 610 97 547 33 459 12 c 4
 426 4 382 0 327 0 c 6
 14 0 l 5
 14 23 l 5
 99 42 l 5
 99 728 l 5
 14 747 l 5
 14 770 l 5
 310 770 l 6
 435 770 514 746 556 666 c 4
 569 641 576 613 576 583 c 7
204 445 m 5
 266 445 l 6
 396 445 464 452 464 586 c 7
 464 684.026367188 390.220703125 711 290 711 c 6
 204 711 l 5
 204 445 l 5
494 213 m 7
 494 342 422 376 289 376 c 6
 204 376 l 5
 204 129 l 6
 204 76 233 69 292 69 c 7
 424 69 494 85 494 213 c 7
EndSplineSet
Fore
SplineSet
398 780 m 3
 620 780 761 608 761 385 c 3
 761 162 620 -10 398 -10 c 3
 176 -10 35 162 35 385 c 3
 35 608 176 780 398 780 c 3
161 386 m 3
 161 203 220 53 398 53 c 3
 576 53 635 205 635 388 c 3
 635 570 575 711 398 711 c 3
 219 711 161 569 161 386 c 3
EndSplineSet
Validated: 1
EndChar

StartChar: r
Encoding: 114 114 28
Width: 404
Flags: HMW
LayerCount: 2
Back
SplineSet
289.998046875 20 m 1
 289.999023438 -0.001953125 l 1
 18.9990234375 -0.001953125 l 1
 18.9990234375 19.998046875 l 1
 94.9990234375 34.998046875 l 1
 94.9990234375 450.998046875 l 1
 20.9990234375 478.998046875 l 1
 20.9990234375 491.998046875 l 1
 175.999023438 540.998046875 l 1
 185.999023438 540.998046875 l 1
 185.999023438 430.998046875 l 1
 209.33203125 466.331054688 232.665039062 493.498046875 255.998046875 512.498046875 c 0
 279.331054688 531.498046875 301.6640625 540.998046875 322.997070312 540.998046875 c 0
 340.330078125 540.998046875 355.163085938 534.831054688 367.49609375 522.498046875 c 0
 379.829101562 510.165039062 385.99609375 495.33203125 385.99609375 477.999023438 c 0
 385.99609375 461.999023438 380.49609375 448.499023438 369.49609375 437.499023438 c 0
 358.49609375 426.499023438 344.663085938 420.999023438 327.99609375 420.999023438 c 0
 311.99609375 420.999023438 299.329101562 427.33203125 289.99609375 439.999023438 c 0
 283.99609375 447.33203125 278.829101562 452.33203125 274.49609375 454.999023438 c 0
 270.163085938 457.666015625 264.99609375 458.999023438 258.99609375 458.999023438 c 0
 244.329101562 458.999023438 230.99609375 450.666015625 218.99609375 433.999023438 c 0
 207.663085938 418.666015625 200.330078125 408.333007812 196.997070312 403 c 0
 193.6640625 397.666992188 191.331054688 392 189.998046875 386 c 2
 189.998046875 35 l 1
 289.998046875 20 l 1
EndSplineSet
Fore
SplineSet
389 478 m 3
 389 446 364 421 331 421 c 3
 315 421 302 427 293 440 c 0
 284 451 278 459 262 459 c 0
 233 459 197 408 193 386 c 1
 193 35 l 1
 293 20 l 1
 293 0 l 1
 22 0 l 1
 22 20 l 1
 98 35 l 1
 98 451 l 1
 20 478 l 1
 20 492 l 1
 113 510 141 522 179 541 c 1
 189 541 l 1
 189 482 l 1
 189 482 265 541 326 541 c 3
 360 541 389 512 389 478 c 3
EndSplineSet
Validated: 1
EndChar

StartChar: k
Encoding: 107 107 29
Width: 604
Flags: HMW
LayerCount: 2
Back
SplineSet
307 530 m 5
 531.000976562 530.001953125 l 5
 531.000976562 510.001953125 l 5
 511.000976562 506.001953125 494.500976562 502.501953125 481.500976562 499.501953125 c 4
 468.500976562 496.501953125 457.66796875 493.001953125 449.000976562 489.001953125 c 4
 440.333984375 485.001953125 432.666992188 480.168945312 426 474.501953125 c 4
 419.333007812 468.834960938 412.333007812 461.66796875 405 453.000976562 c 6
 292 321.000976562 l 5
 530 35.0009765625 l 5
 614 20.0009765625 l 5
 614 0.0009765625 l 5
 439 0.0009765625 l 5
 232 252.000976562 l 5
 193 206.000976562 l 5
 193 35.0009765625 l 5
 268 20.0009765625 l 5
 268 0.0009765625 l 5
 25 0.0009765625 l 5
 25 20.0009765625 l 5
 101 35.0009765625 l 5
 101 741.000976562 l 5
 28 768.000976562 l 5
 28 781.000976562 l 5
 183 830.000976562 l 5
 193 830.000976562 l 5
 193 260.000976562 l 5
 360 450.000976562 l 6
 374 466.000976562 381 478.000976562 381 486.000976562 c 4
 381 492.000976562 376 496.66796875 366 500.000976562 c 4
 356 503.333984375 336.333007812 506.666992188 307 510 c 5
 307 530 l 5
EndSplineSet
Fore
SplineSet
193 830 m 1
 193 277 l 1
 360 467 l 2
 371 480 371 482 371 488 c 0
 371 505 338 507 307 510 c 1
 307 530 l 1
 531 530 l 1
 531 510 l 1
 476 499 434 470 405 435 c 2
 292 303 l 1
 530 35 l 1
 614 20 l 1
 614 0 l 1
 439 0 l 1
 232 234 l 1
 193 188 l 1
 193 35 l 1
 268 20 l 1
 268 0 l 1
 25 0 l 1
 25 20 l 1
 101 35 l 1
 101 741 l 1
 25 768 l 1
 25 782 l 1
 118 800 145 811 183 830 c 1
 193 830 l 1
EndSplineSet
Validated: 1
EndChar

StartChar: w
Encoding: 119 119 30
Width: 855
Flags: HMW
LayerCount: 2
Back
SplineSet
543 -10 m 1
 421.99609375 364.001953125 l 1
 289.99609375 -9.998046875 l 1
 245.99609375 -9.998046875 l 1
 81.99609375 467.001953125 l 2
 76.6630859375 483.001953125 69.49609375 493.668945312 60.49609375 499.001953125 c 0
 51.49609375 504.334960938 34.6630859375 508.001953125 9.99609375 510.001953125 c 1
 9.99609375 530.001953125 l 1
 257.99609375 530.001953125 l 1
 257.99609375 510.001953125 l 1
 242.663085938 508.668945312 230.330078125 507.501953125 220.997070312 506.501953125 c 0
 211.6640625 505.501953125 204.331054688 504.334960938 198.998046875 503.001953125 c 0
 193.665039062 501.668945312 190.165039062 499.8359375 188.498046875 497.502929688 c 0
 186.831054688 495.169921875 185.998046875 492.002929688 185.998046875 488.002929688 c 0
 185.998046875 484.669921875 186.998046875 480.169921875 188.998046875 474.502929688 c 0
 190.998046875 468.8359375 192.998046875 462.668945312 194.998046875 456.001953125 c 2
 294.998046875 124.001953125 l 1
 298.998046875 124.001953125 l 1
 402.998046875 423.001953125 l 1
 388.998046875 467.001953125 l 2
 383.665039062 482.334960938 376.498046875 492.834960938 367.498046875 498.501953125 c 0
 358.498046875 504.168945312 344.998046875 508.001953125 326.998046875 510.001953125 c 1
 326.998046875 530.001953125 l 1
 554.998046875 530.001953125 l 1
 554.998046875 510.001953125 l 1
 539.665039062 508.668945312 527.33203125 507.501953125 517.999023438 506.501953125 c 0
 508.666015625 505.501953125 501.333007812 504.334960938 496 503.001953125 c 0
 490.666992188 501.668945312 487.166992188 499.8359375 485.5 497.502929688 c 0
 483.833007812 495.169921875 483 492.002929688 483 488.002929688 c 0
 483 484.669921875 484 480.169921875 486 474.502929688 c 0
 488 468.8359375 490 462.668945312 492 456.001953125 c 2
 592 124.001953125 l 1
 596 124.001953125 l 1
 704 434.001953125 l 2
 710 450.001953125 713 463.001953125 713 473.001953125 c 0
 713 483.668945312 708 491.501953125 698 496.501953125 c 0
 688 501.501953125 669.333007812 506.001953125 642 510.001953125 c 1
 642 530.001953125 l 1
 845 530.001953125 l 1
 845 510.001953125 l 1
 826.333007812 506.668945312 811.333007812 503.168945312 800 499.501953125 c 0
 788.666992188 495.834960938 779.5 491.16796875 772.5 485.500976562 c 0
 765.5 479.833984375 759.833007812 472.666992188 755.5 464 c 0
 751.166992188 455.333007812 747 445 743 433 c 2
 587 -10 l 1
 543 -10 l 1
EndSplineSet
Fore
SplineSet
703 479 m 0
 703 505 676 505 642 510 c 1
 642 530 l 1
 845 530 l 1
 845 510 l 1
 802 502 772 496 756 464 c 0
 752 455 747 445 743 433 c 2
 587 -10 l 1
 543 -10 l 1
 422 364 l 1
 290 -10 l 1
 246 -10 l 1
 82 467 l 2
 70 502 56 506 10 510 c 1
 10 530 l 1
 258 530 l 1
 258 510 l 1
 234 508 217 507 199 503 c 0
 190 501 186 498 186 488 c 0
 186 478 192 466 195 456 c 2
 289 144 l 1
 293 144 l 1
 397 443 l 1
 389 467 l 2
 379 498 364 506 327 510 c 1
 327 530 l 1
 555 530 l 1
 555 510 l 1
 531 508 514 507 496 503 c 0
 487 501 483 498 483 488 c 0
 483 478 489 466 492 456 c 2
 586 145 l 1
 590 145 l 1
 698 455 l 2
 701 463 703 472 703 479 c 0
EndSplineSet
Validated: 1
EndChar

StartChar: F
Encoding: 70 70 31
Width: 648
Flags: HMW
LayerCount: 2
Back
SplineSet
589 550 m 5
 572 612 548 658 517 711 c 5
 230 711 l 5
 230 445 l 5
 409 445 l 5
 426 482 439 502 446 546 c 5
 470 546 l 5
 470 266 l 5
 446 266 l 5
 440 307 428 337 409 376 c 5
 230 376 l 5
 230 70 l 5
 512 70 l 5
 550 132 571 163 596 234 c 5
 629 234 l 5
 592 0 l 5
 40 0 l 5
 40 23 l 5
 125 42 l 5
 125 728 l 5
 40 747 l 5
 40 770 l 5
 596 770 l 5
 613 550 l 5
 589 550 l 5
EndSplineSet
Fore
SplineSet
589 550 m 1
 572 612 548 658 517 711 c 1
 230 711 l 1
 230 445 l 1
 409 445 l 1
 426 482 439 502 446 546 c 1
 470 546 l 1
 470 266 l 1
 446 266 l 1
 440 307 428 337 409 376 c 1
 230 376 l 1
 230 42 l 1
 344 23 l 1
 344 0 l 1
 40 0 l 1
 40 23 l 1
 125 42 l 1
 125 728 l 1
 40 747 l 1
 40 770 l 1
 596 770 l 1
 613 550 l 1
 589 550 l 1
EndSplineSet
Validated: 1
EndChar

StartChar: G
Encoding: 71 71 32
Width: 805
Flags: HMW
LayerCount: 2
Back
SplineSet
36 380 m 3
 36 611 173 780 402 780 c 3
 488 780 562 754 617 719 c 1
 621 719 l 1
 670 770 l 1
 688 770 l 1
 688 540 l 1
 658 540 l 1
 621 651 560 721 419 721 c 3
 233 721 162 585 162 387 c 3
 162 189 234 54 419 54 c 3
 566 54 637 135 661 262 c 1
 688 262 l 1
 688 0 l 1
 664 0 l 1
 618 66 l 1
 555 20 496 -10 398 -10 c 3
 171 -10 36 152 36 380 c 3
EndSplineSet
Fore
SplineSet
427 722 m 0
 233 722 163 585 163 376 c 0
 163 149 250 54 418 54 c 0
 503 54 567 83 567 169 c 2
 566 344 l 1
 476 363 l 1
 476 386 l 1
 760 386 l 1
 760 363 l 1
 671 344 l 1
 671 81 l 1
 625 38 552 10 476 -3 c 0
 450 -8 424 -10 398 -10 c 0
 283 -10 195 36 137 98 c 0
 77 162 35 256 35 376 c 0
 35 606 181 780 410 780 c 0
 490 780 559 757 602 719 c 1
 606 719 l 1
 660 770 l 1
 682 770 l 1
 682 540 l 1
 659 540 l 1
 614 642 569 722 427 722 c 0
EndSplineSet
Validated: 1
EndChar

StartChar: L
Encoding: 76 76 33
Width: 654
Flags: HMW
LayerCount: 2
Back
SplineSet
602 583 m 7
 602 482 528 431 437 412 c 5
 437 408 l 5
 527 398 593 351 622 280 c 4
 631 257 636 231 636 204 c 7
 636 97 573 33 485 12 c 4
 452 4 408 0 353 0 c 6
 40 0 l 5
 40 23 l 5
 125 42 l 5
 125 728 l 5
 40 747 l 5
 40 770 l 5
 336 770 l 6
 461 770 540 746 582 666 c 4
 595 641 602 613 602 583 c 7
230 445 m 5
 292 445 l 6
 422 445 490 452 490 586 c 7
 490 684 416 711 316 711 c 6
 230 711 l 5
 230 445 l 5
520 213 m 7
 520 342 448 376 315 376 c 6
 230 376 l 5
 230 129 l 6
 230 76 259 69 318 69 c 7
 450 69 520 85 520 213 c 7
EndSplineSet
Fore
SplineSet
230 728 m 1
 230 70 l 1
 519 70 l 1
 557 133 578 167 603 239 c 1
 629 239 l 1
 592 0 l 1
 40 0 l 1
 40 23 l 1
 125 42 l 1
 125 728 l 1
 40 747 l 1
 40 770 l 1
 325 770 l 1
 325 747 l 1
 230 728 l 1
EndSplineSet
Validated: 1
EndChar

StartChar: p
Encoding: 112 112 34
Width: 612
Flags: HMW
LayerCount: 2
Back
SplineSet
196 -216 m 5
 295.000976562 -230.997070312 l 5
 295.000976562 -249.997070312 l 5
 26.0009765625 -249.997070312 l 5
 26.0009765625 -230.997070312 l 5
 101.000976562 -215.997070312 l 5
 101.000976562 451.002929688 l 5
 28.0009765625 478.002929688 l 5
 28.0009765625 492.002929688 l 5
 182.000976562 540.002929688 l 5
 193.000976562 540.002929688 l 5
 193.000976562 452.002929688 l 5
 197.000976562 452.002929688 l 5
 217.000976562 482.669921875 241.66796875 505.002929688 271.000976562 519.002929688 c 4
 300.333984375 533.002929688 330.000976562 540.002929688 360.000976562 540.002929688 c 4
 391.333984375 540.002929688 420.000976562 533.3359375 446.000976562 520.002929688 c 4
 472.000976562 506.669921875 494.16796875 488.169921875 512.500976562 464.502929688 c 4
 530.833984375 440.8359375 545.166992188 412.668945312 555.5 380.001953125 c 4
 565.833007812 347.334960938 571 311.66796875 571 273.000976562 c 4
 571 231.000976562 564.333007812 192.66796875 551 158.000976562 c 4
 537.666992188 123.333984375 518.666992188 93.5009765625 494 68.5009765625 c 4
 469.333007812 43.5009765625 440 24.16796875 406 10.5009765625 c 4
 372 -3.166015625 334.333007812 -9.9990234375 293 -9.9990234375 c 4
 277 -9.9990234375 261 -8.83203125 245 -6.4990234375 c 4
 229 -4.166015625 212.666992188 -0.3330078125 196 5 c 5
 196 -216 l 5
297.000976562 20.0029296875 m 4
 322.333984375 20.0029296875 345.50390625 25.8349609375 366.50390625 37.501953125 c 4
 387.50390625 49.1689453125 405.50390625 65.3359375 420.50390625 86.0029296875 c 4
 435.50390625 106.669921875 447.00390625 131.502929688 455.00390625 160.502929688 c 4
 463.00390625 189.502929688 467.00390625 221.669921875 467.00390625 257.002929688 c 4
 467.00390625 325.002929688 453.00390625 378.3359375 425.00390625 417.002929688 c 4
 397.00390625 455.669921875 358.670898438 475.002929688 310.00390625 475.002929688 c 4
 289.336914062 475.002929688 268.169921875 469.502929688 246.502929688 458.502929688 c 4
 224.8359375 447.502929688 209.668945312 433.669921875 201.001953125 417.002929688 c 5
 201.001953125 118.002929688 l 6
 201.001953125 88.669921875 210.168945312 65.0029296875 228.501953125 47.0029296875 c 4
 246.834960938 29.0029296875 269.66796875 20.0029296875 297.000976562 20.0029296875 c 4
EndSplineSet
Fore
SplineSet
194 540 m 1
 194 486 l 1
 198 486 l 1
 198 486 246 540 361 540 c 3
 431 540 482 507 514 465 c 0
 549 419 572 353 572 273 c 3
 572 138 504 50 407 11 c 0
 373 -3 335 -10 294 -10 c 3
 257 -10 227 -5 197 5 c 1
 197 -216 l 1
 296 -231 l 1
 296 -250 l 1
 27 -250 l 1
 27 -231 l 1
 102 -216 l 1
 102 451 l 1
 25 478 l 1
 25 492 l 1
 118 510 145 521 183 540 c 1
 194 540 l 1
194 142 m 2
 194 85 242 45 298 45 c 3
 355 45 396 79 422 115 c 0
 452 156 468 186 468 257 c 3
 468 375 421 485 311 485 c 3
 267 485 210 450 194 420 c 1
 194 142 l 2
EndSplineSet
Validated: 1
EndChar

StartChar: q
Encoding: 113 113 35
Width: 598
Flags: HMW
LayerCount: 2
Back
SplineSet
418 -216 m 1
 418.000976562 57.9990234375 l 1
 376.000976562 12.666015625 325.333984375 -10.0009765625 266.000976562 -10.0009765625 c 0
 233.333984375 -10.0009765625 203.500976562 -3.833984375 176.500976562 8.4990234375 c 0
 149.500976562 20.83203125 126.16796875 38.1650390625 106.500976562 60.498046875 c 0
 86.833984375 82.8310546875 71.6669921875 109.498046875 61 140.498046875 c 0
 50.3330078125 171.498046875 45 205.665039062 45 242.998046875 c 0
 45 288.998046875 51.3330078125 330.331054688 64 366.998046875 c 0
 76.6669921875 403.665039062 94.5 434.83203125 117.5 460.499023438 c 0
 140.5 486.166015625 168.333007812 505.833007812 201 519.5 c 0
 233.666992188 533.166992188 269.666992188 540 309 540 c 0
 360.333007812 540 406.333007812 524.666992188 447 494 c 1
 452 494 l 1
 497 528 l 1
 513 528 l 1
 513 -216 l 1
 588 -231 l 1
 588 -250 l 1
 319 -250 l 1
 319 -231 l 1
 418 -216 l 1
309.000976562 507.999023438 m 0
 262.333984375 507.999023438 224.499023438 488.331054688 195.499023438 448.998046875 c 0
 166.499023438 409.665039062 151.999023438 350.33203125 151.999023438 270.999023438 c 0
 151.999023438 200.33203125 165.83203125 144.83203125 193.499023438 104.499023438 c 0
 221.166015625 64.166015625 259.333007812 43.9990234375 308 43.9990234375 c 0
 330.666992188 43.9990234375 351.333984375 48.666015625 370.000976562 57.9990234375 c 0
 388.66796875 67.33203125 404.66796875 79.9990234375 418.000976562 95.9990234375 c 1
 418.000976562 381.999023438 l 2
 418.000976562 419.999023438 408.16796875 450.499023438 388.500976562 473.499023438 c 0
 368.833984375 496.499023438 342.333984375 507.999023438 309.000976562 507.999023438 c 0
EndSplineSet
Fore
SplineSet
418 -216 m 1
 418 23 l 1
 418 23 381 -10 266 -10 c 3
 156 -10 90 57 61 140 c 0
 50 171 45 206 45 243 c 3
 45 382 103 479 201 520 c 0
 234 534 270 540 309 540 c 3
 360 540 406 525 447 494 c 1
 452 494 l 1
 497 528 l 1
 513 528 l 1
 513 -216 l 1
 588 -231 l 1
 588 -250 l 1
 319 -250 l 1
 319 -231 l 1
 418 -216 l 1
418 378 m 2
 418 450 379 485 309 485 c 3
 201 485 152 394 152 271 c 3
 152 150 197 45 308 45 c 3
 358 45 394 67 418 96 c 1
 418 378 l 2
EndSplineSet
Validated: 1
EndChar

StartChar: m
Encoding: 109 109 36
Width: 911
Flags: HMW
LayerCount: 2
Back
SplineSet
280 20 m 1
 279.99609375 0.0009765625 l 1
 33.99609375 0.0009765625 l 1
 33.99609375 20.0009765625 l 1
 109.99609375 35.0009765625 l 1
 109.99609375 450.000976562 l 1
 35.99609375 478.000976562 l 1
 35.99609375 491.000976562 l 1
 190.99609375 540.000976562 l 1
 200.99609375 540.000976562 l 1
 200.99609375 455.000976562 l 1
 229.663085938 482.333984375 260.163085938 503.333984375 292.49609375 518.000976562 c 0
 324.829101562 532.66796875 356.99609375 540.000976562 388.99609375 540.000976562 c 0
 401.663085938 540.000976562 414.330078125 538.16796875 426.997070312 534.500976562 c 0
 439.6640625 530.833984375 451.1640625 525.333984375 461.497070312 518.000976562 c 0
 471.830078125 510.66796875 480.663085938 501.66796875 487.99609375 491.000976562 c 0
 495.329101562 480.333984375 500.329101562 468.000976562 502.99609375 454.000976562 c 1
 531.663085938 482.000976562 562.330078125 503.333984375 594.997070312 518.000976562 c 0
 627.6640625 532.66796875 659.997070312 540.000976562 691.997070312 540.000976562 c 0
 715.997070312 540.000976562 737.330078125 534.66796875 755.997070312 524.000976562 c 0
 774.6640625 513.333984375 788.6640625 498.666992188 797.997070312 480 c 0
 800.6640625 474.666992188 802.831054688 468.833984375 804.498046875 462.500976562 c 0
 806.165039062 456.16796875 807.498046875 447.66796875 808.498046875 437.000976562 c 0
 809.498046875 426.333984375 810.165039062 413.166992188 810.498046875 397.5 c 0
 810.831054688 381.833007812 810.998046875 362 810.998046875 338 c 2
 810.998046875 34 l 1
 885.998046875 20 l 1
 885.998046875 0 l 1
 640.998046875 0 l 1
 640.998046875 20 l 1
 715.998046875 34 l 1
 715.998046875 328 l 2
 715.998046875 356.666992188 714.831054688 379.5 712.498046875 396.5 c 0
 710.165039062 413.5 707.33203125 427.666992188 703.999023438 439 c 0
 693.999023438 469.666992188 671.33203125 485 635.999023438 485 c 0
 611.33203125 485 587.83203125 479.5 565.499023438 468.5 c 0
 543.166015625 457.5 523.333007812 441.666992188 506 421 c 1
 506.666992188 411 507.166992188 399.333007812 507.5 386 c 0
 507.833007812 372.666992188 508 356.666992188 508 338 c 2
 508 34 l 1
 583 20 l 1
 583 0 l 1
 338 0 l 1
 338 20 l 1
 413 34 l 1
 413 328 l 2
 413 356.666992188 411.833007812 379.5 409.5 396.5 c 0
 407.166992188 413.5 404.333984375 427.666992188 401.000976562 439 c 0
 390.333984375 469.666992188 367.666992188 485 333 485 c 0
 309 485 286 479.666992188 264 469 c 0
 242 458.333007812 222.333007812 443 205 423 c 1
 205 35 l 1
 280 20 l 1
EndSplineSet
Fore
SplineSet
30 478 m 1
 30 492 l 1
 123 510 154 525 192 544 c 1
 201 544 l 1
 201 485 l 1
 247 529 310 540 389 540 c 3
 421 540 467 539 496 485 c 1
 542 530 612 540 692 540 c 3
 805 540 811 453 811 338 c 2
 811 34 l 1
 886 20 l 1
 886 0 l 1
 641 0 l 1
 641 20 l 1
 716 34 l 1
 716 328 l 2
 716 409 713 472 636 472 c 3
 578 472 535 456 506 421 c 1
 508 395 508 370 508 338 c 2
 508 34 l 1
 583 20 l 1
 583 0 l 1
 338 0 l 1
 338 20 l 1
 413 34 l 1
 413 328 l 2
 413 409 409 472 333 472 c 3
 276 472 230 455 201 421 c 1
 201 35 l 1
 280 20 l 1
 280 0 l 1
 34 0 l 1
 34 20 l 1
 110 35 l 1
 110 450 l 1
 30 478 l 1
EndSplineSet
Validated: 1
EndChar

StartChar: n
Encoding: 110 110 37
Width: 612
Flags: HMW
LayerCount: 2
Back
SplineSet
192 830 m 5
 204 830 l 5
 204 482 l 5
 254 526 321 540 404 540 c 4
 465 540 514 511 527 463 c 4
 533 441 533 416 533 389 c 6
 533 389 533 152 533 34 c 5
 608 20 l 5
 608 0 l 5
 363 0 l 5
 363 20 l 5
 438 34 l 5
 438 328 l 6
 438 417 433 485 348 485 c 4
 292 485 244 463 204 420 c 5
 204 35 l 5
 279 20 l 5
 279 0 l 5
 33 0 l 5
 33 20 l 5
 109 35 l 5
 109 741 l 5
 34 768 l 5
 34 782 l 5
 127 800 154 811 192 830 c 5
EndSplineSet
Fore
SplineSet
30 478 m 1
 30 492 l 1
 123 510 154 525 192 544 c 1
 204 544 l 1
 204 485 l 1
 250 529 309 540 388 540 c 3
 515 540 517 439 517 349 c 2
 517 34 l 1
 592 20 l 1
 592 0 l 1
 347 0 l 1
 347 20 l 1
 422 34 l 1
 422 328 l 2
 422 417 417 472 332 472 c 3
 275 472 233 454 204 420 c 1
 204 35 l 1
 279 20 l 1
 279 0 l 1
 33 0 l 1
 33 20 l 1
 109 35 l 1
 109 450 l 1
 30 478 l 1
EndSplineSet
Validated: 1
EndChar

StartChar: K
Encoding: 75 75 38
Width: 786
Flags: HMW
LayerCount: 2
Back
SplineSet
613 376 m 1
 235 376 l 1
 235 42 l 1
 324 23 l 1
 324 0 l 1
 40 0 l 1
 40 23 l 1
 130 42 l 1
 130 728 l 1
 40 747 l 1
 40 770 l 1
 324 770 l 1
 324 747 l 1
 235 728 l 1
 235 445 l 1
 613 445 l 1
 613 728 l 1
 523 747 l 1
 523 770 l 1
 807 770 l 1
 807 745 l 1
 718 728 l 1
 718 42 l 1
 807 21 l 1
 807 0 l 1
 523 0 l 1
 523 23 l 1
 613 42 l 1
 613 376 l 1
EndSplineSet
Fore
SplineSet
450 747 m 1
 450 770 l 1
 714 770 l 1
 714 747 l 1
 646 735 604 727 568 685 c 2
 370 459 l 1
 691 42 l 1
 786 23 l 5
 786 0 l 5
 585 0 l 1
 300 379 l 1
 235 305 l 1
 235 42 l 1
 324 23 l 1
 324 0 l 1
 40 0 l 1
 40 23 l 1
 130 42 l 1
 130 728 l 1
 40 747 l 1
 40 770 l 1
 324 770 l 1
 324 747 l 1
 235 728 l 1
 235 410 l 1
 492 698 l 2
 502 708 514 721 514 731 c 3
 514 741 503 747 468 747 c 3
 458 747 450 747 450 747 c 1
EndSplineSet
Validated: 1
EndChar

StartChar: M
Encoding: 77 77 39
Width: 1002
Flags: HMW
LayerCount: 2
Back
SplineSet
130 728 m 5
 40 747 l 5
 40 770 l 5
 250 770 l 5
 499 177 l 5
 504 177 l 5
 753 770 l 5
 962 770 l 5
 962 747 l 5
 873 728 l 5
 873 42 l 5
 962 23 l 5
 962 0 l 5
 678 0 l 5
 678 23 l 5
 768 42 l 5
 768 656 l 5
 764 656 l 5
 480 -10 l 5
 453 -10 l 5
 174 660 l 5
 170 660 l 5
 170 42 l 5
 259 23 l 5
 259 0 l 5
 40 0 l 5
 40 23 l 5
 130 42 l 5
 130 728 l 5
EndSplineSet
Fore
SplineSet
498 225 m 1
 727 770 l 1
 962 770 l 1
 962 747 l 1
 873 728 l 1
 873 42 l 1
 962 23 l 1
 962 0 l 1
 678 0 l 1
 678 23 l 1
 768 42 l 1
 768 656 l 1
 764 656 l 1
 480 -10 l 1
 453 -10 l 1
 174 660 l 1
 170 660 l 1
 170 42 l 1
 259 23 l 1
 259 0 l 1
 40 0 l 1
 40 23 l 1
 105 37 l 1
 105 733 l 1
 40 747 l 1
 40 770 l 1
 250 770 l 1
 479 225 l 1
 498 225 l 1
EndSplineSet
Validated: 1
EndChar

StartChar: N
Encoding: 78 78 40
Width: 824
Flags: HMW
LayerCount: 2
Back
SplineSet
694 -20 m 1
 663 -20 l 1
 170 667 l 1
 170 42 l 1
 259 23 l 1
 259 0 l 1
 40 0 l 1
 40 23 l 1
 130 42 l 1
 130 728 l 1
 40 747 l 1
 40 770 l 1
 242 770 l 1
 654 204 l 1
 654 728 l 1
 565 747 l 1
 565 770 l 1
 784 770 l 1
 784 747 l 1
 694 728 l 1
 694 -20 l 1
EndSplineSet
Fore
SplineSet
694 -20 m 1
 663 -20 l 1
 170 667 l 1
 170 42 l 1
 259 23 l 1
 259 0 l 1
 40 0 l 1
 40 23 l 1
 105 37 l 1
 105 733 l 1
 40 747 l 1
 40 770 l 1
 242 770 l 1
 629 239 l 1
 629 733 l 1
 565 747 l 1
 565 770 l 1
 784 770 l 1
 784 747 l 1
 694 728 l 1
 694 -20 l 1
EndSplineSet
Validated: 1
EndChar

StartChar: T
Encoding: 84 84 41
Width: 756
Flags: HMW
LayerCount: 2
Back
SplineSet
217 23 m 1
 327 42 l 1
 327 730 l 1
 126 730 l 1
 87.3291015625 678.034179688 56.248046875 613.77734375 34 550 c 1
 10 550 l 1
 47 770 l 1
 709 770 l 1
 746 550 l 1
 722 550 l 1
 699.784179688 613.686523438 668.618164062 678.106445312 630 730 c 1
 432 730 l 1
 432 42 l 1
 541 23 l 1
 541 0 l 1
 217 0 l 1
 217 23 l 1
EndSplineSet
Fore
SplineSet
217 23 m 1
 327 42 l 1
 327 701 l 1
 116 701 l 1
 77 649 56 614 34 550 c 1
 10 550 l 1
 47 770 l 1
 709 770 l 1
 746 550 l 1
 722 550 l 1
 700 614 679 649 640 701 c 1
 432 701 l 1
 432 42 l 1
 541 23 l 1
 541 0 l 1
 217 0 l 1
 217 23 l 1
EndSplineSet
Validated: 1
EndChar

StartChar: U
Encoding: 85 85 42
Width: 777
Flags: HMW
LayerCount: 2
Back
SplineSet
230 227 m 6
 230 163 246.831054688 115.000976562 280.498046875 83.0009765625 c 4
 314.165039062 51.0009765625 359.33203125 35.0009765625 415.999023438 35.0009765625 c 4
 451.999023438 35.0009765625 483.499023438 40.16796875 510.499023438 50.5009765625 c 4
 537.499023438 60.833984375 558.666015625 76.333984375 573.999023438 97.0009765625 c 4
 587.33203125 115.000976562 596.999023438 140.000976562 602.999023438 172.000976562 c 4
 608.999023438 204.000976562 611.999023438 246.66796875 611.999023438 300.000976562 c 6
 611.999023438 728.000976562 l 5
 522.999023438 747.000976562 l 5
 522.999023438 770.000976562 l 5
 741.999023438 770.000976562 l 5
 741.999023438 747.000976562 l 5
 651.999023438 728.000976562 l 5
 651.999023438 258.000976562 l 6
 651.999023438 216.000976562 648.999023438 180.66796875 642.999023438 152.000976562 c 4
 636.999023438 123.333984375 627.33203125 99.333984375 613.999023438 80.0009765625 c 4
 594.666015625 51.333984375 565.999023438 29.1669921875 527.999023438 13.5 c 4
 489.999023438 -2.1669921875 445.666015625 -10 394.999023438 -10 c 4
 342.999023438 -10 296.999023438 -2 256.999023438 14 c 4
 216.999023438 30 185.999023438 52.6669921875 163.999023438 82 c 4
 150.666015625 99.3330078125 140.833007812 120 134.5 144 c 4
 128.166992188 168 125 200.666992188 125 242 c 6
 125 728 l 5
 35 747 l 5
 35 770 l 5
 319 770 l 5
 319 747 l 5
 230 728 l 5
 230 227 l 6
EndSplineSet
Fore
SplineSet
230 227 m 2
 230 105 297 35 416 35 c 3
 581 35 600 129 600 300 c 2
 599 731 l 1
 523 747 l 1
 523 770 l 1
 742 770 l 1
 742 747 l 1
 665 731 l 1
 664 258 l 2
 664 77 574 -10 395 -10 c 3
 264 -10 161 41 134 144 c 0
 128 168 125 201 125 242 c 2
 125 728 l 1
 35 747 l 1
 35 770 l 1
 319 770 l 1
 319 747 l 1
 230 728 l 1
 230 227 l 2
EndSplineSet
Validated: 1
EndChar

StartChar: V
Encoding: 86 86 43
Width: 774
Flags: MW
LayerCount: 2
Back
SplineSet
372.998046875 -10 m 1
 111.998046875 686.000976562 l 2
 107.998046875 697.333984375 103.665039062 706.666992188 98.998046875 714 c 0
 94.3310546875 721.333007812 88.3310546875 727.333007812 80.998046875 732 c 0
 73.6650390625 736.666992188 64.33203125 740 52.9990234375 742 c 0
 41.666015625 744 27.3330078125 745.666992188 10 747 c 1
 10 770 l 1
 335 770 l 1
 335 747 l 1
 312.333007812 745.666992188 294.166015625 744.333984375 280.499023438 743.000976562 c 0
 266.83203125 741.66796875 256.165039062 740.000976562 248.498046875 738.000976562 c 0
 240.831054688 736.000976562 235.831054688 733.16796875 233.498046875 729.500976562 c 0
 231.165039062 725.833984375 229.998046875 721.333984375 229.998046875 716.000976562 c 0
 229.998046875 710.66796875 231.331054688 704.000976562 233.998046875 696.000976562 c 0
 236.665039062 688.000976562 239.665039062 679.333984375 242.998046875 670.000976562 c 2
 411.998046875 183.000976562 l 1
 416.998046875 183.000976562 l 1
 574.998046875 638.000976562 l 2
 578.331054688 647.333984375 580.831054688 655.833984375 582.498046875 663.500976562 c 0
 584.165039062 671.16796875 584.998046875 678.334960938 584.998046875 685.001953125 c 0
 584.998046875 702.334960938 577.498046875 715.66796875 562.498046875 725.000976562 c 0
 547.498046875 734.333984375 520.998046875 741.666992188 482.998046875 747 c 1
 482.998046875 770 l 1
 763.998046875 770 l 1
 763.998046875 747 l 1
 737.331054688 743 715.998046875 738.333007812 699.998046875 733 c 0
 683.998046875 727.666992188 670.998046875 720.666992188 660.998046875 712 c 0
 650.998046875 703.333007812 642.998046875 693 636.998046875 681 c 0
 630.998046875 669 624.998046875 654 618.998046875 636 c 2
 389.998046875 -10 l 1
 372.998046875 -10 l 1
EndSplineSet
Fore
SplineSet
373 -10 m 1
 112 686 l 2
 101 717 88 736 53 742 c 0
 42 744 27 746 10 747 c 1
 10 770 l 1
 335 770 l 1
 335 747 l 1
 300 745 273 745 248 738 c 0
 235 735 230 730 230 716 c 0
 230 701 238 684 243 670 c 2
 394 236 l 1
 399 236 l 1
 557 691 l 2
 559 698 562 706 562 713 c 3
 562 731 547 747 483 747 c 1
 483 770 l 1
 764 770 l 1
 764 747 l 1
 702 738 660 726 637 681 c 0
 631 669 625 654 619 636 c 2
 390 -10 l 1
 373 -10 l 1
EndSplineSet
Validated: 1
EndChar

StartChar: W
Encoding: 87 87 44
Width: 1143
Flags: MW
LayerCount: 2
Back
SplineSet
373 -10 m 1
 111.99609375 686.000976562 l 2
 107.99609375 697.333984375 103.663085938 706.666992188 98.99609375 714 c 0
 94.3291015625 721.333007812 88.3291015625 727.333007812 80.99609375 732 c 0
 73.6630859375 736.666992188 64.330078125 740 52.9970703125 742 c 0
 41.6640625 744 27.3310546875 745.666992188 9.998046875 747 c 1
 9.998046875 770 l 1
 334.998046875 770 l 1
 334.998046875 747 l 1
 311.665039062 745 292.998046875 743.166992188 278.998046875 741.5 c 0
 264.998046875 739.833007812 254.331054688 738 246.998046875 736 c 0
 239.665039062 734 234.998046875 731.5 232.998046875 728.5 c 0
 230.998046875 725.5 229.998046875 721.666992188 229.998046875 717 c 0
 229.998046875 711.666992188 230.831054688 706 232.498046875 700 c 0
 234.165039062 694 237.665039062 684 242.998046875 670 c 2
 411.998046875 183 l 1
 416.998046875 183 l 1
 538.998046875 576 l 1
 497.998046875 686 l 2
 493.998046875 697.333007812 489.665039062 706.666015625 484.998046875 713.999023438 c 0
 480.331054688 721.33203125 474.331054688 727.33203125 466.998046875 731.999023438 c 0
 459.665039062 736.666015625 450.33203125 739.999023438 438.999023438 741.999023438 c 0
 427.666015625 743.999023438 413.333007812 745.666015625 396 746.999023438 c 1
 396 769.999023438 l 1
 721 769.999023438 l 1
 721 746.999023438 l 1
 697 745.666015625 678.166992188 743.999023438 664.5 741.999023438 c 0
 650.833007812 739.999023438 640.5 737.83203125 633.5 735.499023438 c 0
 626.5 733.166015625 622.166992188 730.166015625 620.5 726.499023438 c 0
 618.833007812 722.83203125 618 718.665039062 618 713.998046875 c 0
 618 704.665039062 621.666992188 689.998046875 629 669.998046875 c 2
 798 182.998046875 l 1
 803 182.998046875 l 1
 944 637.998046875 l 2
 950 656.665039062 953 672.665039062 953 685.998046875 c 0
 953 703.331054688 945.833007812 716.498046875 931.5 725.498046875 c 0
 917.166992188 734.498046875 890.666992188 741.665039062 852 746.998046875 c 1
 852 769.998046875 l 1
 1133 769.998046875 l 1
 1133 746.998046875 l 1
 1106.33300781 742.998046875 1084.83300781 738.331054688 1068.5 732.998046875 c 0
 1052.16699219 727.665039062 1039 720.83203125 1029 712.499023438 c 0
 1019 704.166015625 1011.16699219 693.833007812 1005.5 681.5 c 0
 999.833007812 669.166992188 994 654 988 636 c 2
 782 -10 l 1
 759 -10 l 1
 563 513 l 1
 396 -10 l 1
 373 -10 l 1
EndSplineSet
Fore
SplineSet
373 -10 m 1
 112 686 l 2
 101 717 88 736 53 742 c 0
 42 744 27 746 10 747 c 1
 10 770 l 1
 335 770 l 1
 335 747 l 1
 299 744 272 743 247 736 c 0
 235 733 230 729 230 717 c 0
 230 698 236 691 243 670 c 2
 395 232 l 1
 400 232 l 1
 528 606 l 1
 498 686 l 2
 487 717 474 736 439 742 c 0
 428 744 413 746 396 747 c 1
 396 770 l 1
 721 770 l 1
 721 747 l 1
 683 745 618 747 618 714 c 3
 618 705 622 690 629 670 c 2
 779 238 l 1
 784 238 l 1
 925 693 l 2
 927 699 928 704 928 708 c 3
 928 738 889 742 852 747 c 1
 852 770 l 1
 1133 770 l 1
 1133 747 l 1
 1072 738 1026 728 1005 682 c 0
 999 670 994 654 988 636 c 2
 782 -10 l 1
 759 -10 l 1
 569 496 l 1
 396 -10 l 1
 373 -10 l 1
EndSplineSet
Validated: 1
EndChar

StartChar: Y
Encoding: 89 89 45
Width: 754
Flags: HMW
LayerCount: 2
Back
SplineSet
228 23 m 1
 318.000976562 41.9990234375 l 1
 318.000976562 326.999023438 l 1
 115.000976562 685.999023438 l 2
 109.000976562 696.666015625 103.500976562 705.499023438 98.5009765625 712.499023438 c 0
 93.5009765625 719.499023438 87.333984375 725.33203125 80.0009765625 729.999023438 c 0
 72.66796875 734.666015625 63.5009765625 738.333007812 52.5009765625 741 c 0
 41.5009765625 743.666992188 27.333984375 745.666992188 10.0009765625 747 c 1
 10.0009765625 770 l 1
 338.000976562 770 l 1
 338.000976562 747 l 1
 316.000976562 745.666992188 298.16796875 744 284.500976562 742 c 0
 270.833984375 740 260.166992188 737.5 252.5 734.5 c 0
 244.833007812 731.5 239.666015625 727.833007812 236.999023438 723.5 c 0
 234.33203125 719.166992188 232.999023438 714.666992188 232.999023438 710 c 0
 232.999023438 699.333007812 237.33203125 686 245.999023438 670 c 2
 410.999023438 375 l 1
 414.999023438 375 l 1
 553.999023438 638 l 2
 561.999023438 654 565.999023438 668.333007812 565.999023438 681 c 0
 565.999023438 719.666992188 531.33203125 741.666992188 461.999023438 747 c 1
 461.999023438 770 l 1
 743.999023438 770 l 1
 743.999023438 747 l 1
 717.33203125 743 696.499023438 738 681.499023438 732 c 0
 666.499023438 726 654.33203125 718.666992188 644.999023438 710 c 0
 635.666015625 701.333007812 627.833007812 691 621.5 679 c 0
 615.166992188 667 607.666992188 652.666992188 599 636 c 2
 423 309 l 1
 423 42 l 1
 512 23 l 1
 512 0 l 1
 228 0 l 1
 228 23 l 1
EndSplineSet
Fore
SplineSet
228 23 m 5
 318 42 l 5
 318 327 l 5
 115 686 l 6
 99 714 88 733 53 741 c 4
 42 744 27 746 10 747 c 5
 10 770 l 5
 338 770 l 5
 338 747 l 5
 303 745 275 743 252 734 c 4
 240 729 233 723 233 710 c 4
 233 699 237 686 246 670 c 6
 398 398 l 5
 402 398 l 5
 541 661 l 5
 548 675 552 687 552 698 c 4
 552 725 527 742 462 747 c 5
 462 770 l 5
 744 770 l 5
 744 747 l 5
 653 733 634 703 599 636 c 6
 423 309 l 5
 423 42 l 5
 512 23 l 5
 512 0 l 5
 228 0 l 5
 228 23 l 5
EndSplineSet
Validated: 1
EndChar

StartChar: P
Encoding: 80 80 46
Width: 643
Flags: HMW
LayerCount: 2
Back
SplineSet
40 770 m 1
 350.999023438 770.000976562 l 2
 390.33203125 770.000976562 426.33203125 765.000976562 458.999023438 755.000976562 c 0
 491.666015625 745.000976562 519.833007812 730.333984375 543.5 711.000976562 c 0
 567.166992188 691.66796875 585.5 667.66796875 598.5 639.000976562 c 0
 611.5 610.333984375 618 577.666992188 618 541 c 0
 618 507 611.5 476.833007812 598.5 450.5 c 0
 585.5 424.166992188 566.833007812 402 542.5 384 c 0
 518.166992188 366 488.5 352.5 453.5 343.5 c 0
 418.5 334.5 379.333007812 330 336 330 c 2
 230 330 l 1
 230 42 l 1
 344 23 l 1
 344 0 l 1
 40 0 l 1
 40 23 l 1
 125 42 l 1
 125 728 l 1
 40 747 l 1
 40 770 l 1
229.999023438 369.000976562 m 1
 305 369.004882812 l 2
 347 369.004882812 380.166992188 373.671875 404.5 383.004882812 c 0
 428.833007812 392.337890625 448.333007812 405.670898438 463 423.00390625 c 0
 478.333007812 440.336914062 488.833007812 460.169921875 494.5 482.502929688 c 0
 500.166992188 504.8359375 503 527.668945312 503 551.001953125 c 0
 503 594.334960938 495 630.16796875 479 658.500976562 c 0
 463 686.833984375 440.333007812 706.666992188 411 718 c 0
 399.666992188 722.666992188 387.166992188 725.833984375 373.5 727.500976562 c 0
 359.833007812 729.16796875 342.666015625 730.000976562 321.999023438 730.000976562 c 2
 229.999023438 730.000976562 l 1
 229.999023438 369.000976562 l 1
EndSplineSet
Fore
SplineSet
40 770 m 1
 351 770 l 2
 473 770 561 723 599 639 c 0
 612 610 618 578 618 541 c 3
 618 427 546 368 453 344 c 0
 418 335 379 330 336 330 c 2
 230 330 l 1
 230 42 l 1
 344 23 l 1
 344 0 l 1
 40 0 l 1
 40 23 l 1
 125 42 l 1
 125 728 l 1
 40 747 l 1
 40 770 l 1
230 397 m 1
 305 397 l 2
 436 397 503 450 503 551 c 3
 503 673 445 711 322 711 c 2
 230 711 l 1
 230 397 l 1
EndSplineSet
Validated: 1
EndChar

StartChar: R
Encoding: 82 82 47
Width: 705
Flags: HMW
LayerCount: 2
Back
SplineSet
40 770 m 1
 351 770 l 2
 473 770 561 723 599 639 c 0
 612 610 618 578 618 541 c 3
 618 427 546 368 453 344 c 0
 418 335 379 330 336 330 c 2
 230 330 l 1
 230 42 l 1
 344 23 l 1
 344 0 l 1
 40 0 l 1
 40 23 l 1
 125 42 l 1
 125 728 l 1
 40 747 l 1
 40 770 l 1
230 397 m 1
 305 397 l 2
 436 397 503 450 503 551 c 3
 503 673 445 711 322 711 c 2
 230 711 l 1
 230 397 l 1
EndSplineSet
Fore
SplineSet
608 551 m 7
 608 440 547 367 452 344 c 5
 581 42 l 5
 695 23 l 5
 695 0 l 5
 478 0 l 5
 339 330 l 5
 230 330 l 5
 230 42 l 5
 344 23 l 5
 344 0 l 5
 40 0 l 5
 40 23 l 5
 125 42 l 5
 125 728 l 5
 40 747 l 5
 40 770 l 5
 341 770 l 6
 461 770 549 726 588 645 c 4
 601 618 608 586 608 551 c 7
295 397 m 6
 419 397 493 441 493 561 c 7
 493 679 431 711 312 711 c 6
 230 711 l 5
 230 397 l 5
 295 397 l 6
EndSplineSet
Validated: 1
EndChar

StartChar: S
Encoding: 83 83 48
Width: 556
Flags: HMW
LayerCount: 2
Back
SplineSet
588 583 m 7
 588 482 514 431 423 412 c 5
 423 408 l 5
 513 398 579 351 608 280 c 4
 617 257 622 231 622 204 c 7
 622 97 559 33 471 12 c 4
 438 4 394 0 339 0 c 6
 26 0 l 5
 26 23 l 5
 111 42 l 5
 111 728 l 5
 26 747 l 5
 26 770 l 5
 322 770 l 6
 447 770 526 746 568 666 c 4
 581 641 588 613 588 583 c 7
216 445 m 5
 278 445 l 6
 408 445 476 452 476 586 c 7
 476 684 402 711 302 711 c 6
 216 711 l 5
 216 445 l 5
506 213 m 7
 506 342 434 376 301 376 c 6
 216 376 l 5
 216 129 l 6
 216 76 245 69 304 69 c 7
 436 69 506 85 506 213 c 7
EndSplineSet
Fore
SplineSet
275 61 m 4
 360 61 424 103 424 185 c 7
 424 234 398 246 367 272 c 4
 332 302 283 326 239 349 c 4
 171 385 106 422 72 492 c 4
 61 514 56 540 56 569 c 7
 56 670 117 735 191 764 c 4
 218 775 247 780 279 780 c 7
 348 780 391 755 430 718 c 5
 462 770 l 5
 482 770 l 5
 491 550 l 5
 465 550 l 5
 449 614 426 643 397 673 c 4
 368 703 330 718 284 718 c 7
 210 718 161 677 161 604 c 7
 161 551 187 537 217 511 c 4
 251 481 297 459 339 436 c 4
 406 400 467 364 500 295 c 4
 510 273 516 247 516 217 c 7
 516 147 485 92 447 56 c 4
 408 20 350 -9 278 -9 c 4
 210 -9 166 12 118 41 c 5
 78 0 l 5
 58 0 l 5
 40 256 l 5
 65 262 l 5
 85 181 111 150 144 114 c 4
 177 78 220 61 275 61 c 4
EndSplineSet
Validated: 1
EndChar

StartChar: asciitilde
Encoding: 126 126 49
Width: 590
Flags: HMW
LayerCount: 2
Fore
SplineSet
178 276 m 3
 134 276 120 256 110 223 c 1
 80 223 l 1
 80 279 104 322 140 345 c 0
 155 354 175 359 198 359 c 3
 281 359 329 307 412 307 c 3
 456 307 470 326 480 359 c 1
 510 359 l 1
 510 302 486 260 449 237 c 0
 434 228 415 223 392 223 c 3
 352 223 318 239 286 250 c 0
 255 261 218 276 178 276 c 3
EndSplineSet
Validated: 1
EndChar

StartChar: bar
Encoding: 124 124 50
Width: 270
Flags: HMW
LayerCount: 2
Fore
SplineSet
100 -170 m 5
 100 819 l 5
 170 819 l 5
 170 -170 l 5
 100 -170 l 5
EndSplineSet
Validated: 1
EndChar

StartChar: braceleft
Encoding: 123 123 51
Width: 329
Flags: HMW
LayerCount: 2
Fore
SplineSet
186 -65 m 3
 186 -122 199 -157 252 -157 c 3
 266 -157 280 -155 293 -151 c 1
 299 -180 l 1
 276 -189 257 -194 228 -194 c 3
 139 -194 100 -159 100 -70 c 3
 100 21 126 101 126 194 c 3
 126 278 109 320 30 320 c 1
 30 343 l 1
 104 343 126 385 126 463 c 3
 126 527 112 591 104 649 c 0
 101 668 100 686 100 701 c 3
 100 785 150 828 235 828 c 3
 261 828 280 823 299 815 c 1
 293 789 l 1
 274 792 269 794 252 794 c 3
 204 794 186 750 186 699 c 3
 186 664 194 624 199 589 c 0
 204 551 211 505 211 464 c 7
 211 395 187 351 139 332 c 1
 139 328 l 1
 190 308 211 274 211 202 c 3
 211 132 198 57 190 -9 c 0
 187 -32 186 -50 186 -65 c 3
EndSplineSet
Validated: 1
EndChar

StartChar: braceright
Encoding: 125 125 52
Width: 329
Flags: HMW
LayerCount: 2
Fore
SplineSet
229 -70 m 7
 229 -159 190 -194 101 -194 c 7
 72 -194 53 -189 30 -180 c 5
 36 -151 l 5
 49 -155 62 -157 77 -157 c 7
 130 -157 143 -122 143 -65 c 7
 143 -27 135 23 130 62 c 4
 125 105 118 158 118 202 c 7
 118 274 139 308 190 328 c 5
 190 332 l 5
 142 351 118 395 118 464 c 7
 118 527 131 592 139 649 c 4
 142 668 143 685 143 699 c 7
 143 750 125 794 77 794 c 7
 60 794 55 792 36 789 c 5
 30 815 l 5
 49 823 68 828 94 828 c 7
 179 828 229 785 229 701 c 7
 229 620 203 546 203 463 c 7
 203 385 225 343 299 343 c 5
 299 320 l 5
 220 320 203 278 203 194 c 7
 203 122 217 54 225 -11 c 4
 228 -32 229 -52 229 -70 c 7
EndSplineSet
Validated: 1
EndChar

StartChar: Z
Encoding: 90 90 53
Width: 676
Flags: HMW
LayerCount: 2
Back
SplineSet
622 770 m 5
 622 742.999023438 l 5
 162 39.9990234375 l 5
 496 39.9990234375 l 5
 508 57.9990234375 l 6
 531.333007812 93.9990234375 551 128.83203125 567 162.499023438 c 4
 583 196.166015625 595.666992188 224.333007812 605 247 c 5
 631 244 l 5
 579 0 l 5
 30 0 l 5
 30 28 l 5
 488 730 l 5
 170 730 l 5
 158 708 l 6
 138.666992188 672 123.166992188 640.666992188 111.5 614 c 4
 99.8330078125 587.333007812 91.3330078125 566.333007812 86 551 c 5
 60 552 l 5
 102 770 l 5
 622 770 l 5
EndSplineSet
Fore
SplineSet
622 770 m 1
 622 743 l 1
 181 69 l 1
 515 69 l 1
 526 87 l 2
 552 130 580 186 605 247 c 1
 631 244 l 1
 579 0 l 1
 30 0 l 1
 30 28 l 1
 469 701 l 1
 154 701 l 1
 138 669 l 2
 115 623 102 597 86 551 c 1
 60 552 l 1
 102 770 l 1
 622 770 l 1
EndSplineSet
Validated: 1
EndChar

StartChar: X
Encoding: 88 88 54
Width: 819
Flags: HMW
LayerCount: 2
Back
SplineSet
10 20 m 5
 29.3330078125 22.6669921875 46.5029296875 25.6650390625 61.5029296875 28.998046875 c 4
 76.5029296875 32.3310546875 90.0029296875 36.6640625 102.002929688 41.9970703125 c 4
 114.002929688 47.330078125 124.669921875 53.9970703125 134.002929688 61.9970703125 c 4
 143.3359375 69.9970703125 152.3359375 79.6640625 161.002929688 90.9970703125 c 6
 373.002929688 376.997070312 l 5
 159.002929688 703.997070312 l 6
 155.002929688 710.6640625 150.3359375 716.1640625 145.002929688 720.497070312 c 4
 139.669921875 724.830078125 132.836914062 728.663085938 124.50390625 731.99609375 c 4
 116.170898438 735.329101562 105.670898438 738.162109375 93.00390625 740.495117188 c 4
 80.3369140625 742.828125 64.00390625 744.995117188 44.00390625 746.995117188 c 5
 44.00390625 769.995117188 l 5
 346.00390625 769.995117188 l 5
 346.00390625 746.995117188 l 5
 316.670898438 745.662109375 297.837890625 743.329101562 289.504882812 739.99609375 c 4
 281.171875 736.663085938 277.004882812 732.330078125 277.004882812 726.997070312 c 4
 277.004882812 722.330078125 277.837890625 717.497070312 279.504882812 712.497070312 c 4
 281.171875 707.497070312 284.671875 700.997070312 290.004882812 692.997070312 c 6
 445.004882812 455.997070312 l 5
 606.004882812 674.997070312 l 6
 616.671875 689.6640625 622.004882812 701.6640625 622.004882812 710.997070312 c 4
 622.004882812 720.330078125 616.171875 727.830078125 604.504882812 733.497070312 c 4
 592.837890625 739.1640625 574.004882812 743.6640625 548.004882812 746.997070312 c 5
 548.004882812 769.997070312 l 5
 796.004882812 769.997070312 l 5
 796.004882812 746.997070312 l 5
 778.004882812 743.6640625 762.504882812 740.331054688 749.504882812 736.998046875 c 4
 736.504882812 733.665039062 724.837890625 729.498046875 714.504882812 724.498046875 c 4
 704.171875 719.498046875 694.671875 713.331054688 686.004882812 705.998046875 c 4
 677.337890625 698.665039062 668.337890625 689.33203125 659.004882812 677.999023438 c 6
 468.004882812 420.999023438 l 5
 701.004882812 64.9990234375 l 6
 705.671875 57.666015625 711.171875 51.4990234375 717.504882812 46.4990234375 c 4
 723.837890625 41.4990234375 731.170898438 37.33203125 739.50390625 33.9990234375 c 4
 747.836914062 30.666015625 757.669921875 28.166015625 769.002929688 26.4990234375 c 4
 780.3359375 24.83203125 793.668945312 23.33203125 809.001953125 21.9990234375 c 5
 809.001953125 -0.0009765625 l 5
 509.001953125 -0.0009765625 l 5
 509.001953125 21.9990234375 l 5
 540.334960938 24.666015625 561.16796875 27.3330078125 571.500976562 30 c 4
 581.833984375 32.6669921875 587.000976562 36.6669921875 587.000976562 42 c 4
 587.000976562 45.3330078125 585.833984375 49.5 583.500976562 54.5 c 4
 581.16796875 59.5 577.000976562 66.6669921875 571.000976562 76 c 6
 398.000976562 339 l 5
 214.000976562 92 l 6
 202.66796875 76.6669921875 197.000976562 63.6669921875 197.000976562 53 c 4
 197.000976562 44.3330078125 203.66796875 37.5 217.000976562 32.5 c 4
 230.333984375 27.5 251.666992188 23.3330078125 281 20 c 5
 281 0 l 5
 10 0 l 5
 10 20 l 5
EndSplineSet
Fore
SplineSet
548 747 m 1
 548 770 l 1
 796 770 l 1
 796 747 l 1
 750 738 715 730 686 706 c 0
 677 699 668 689 659 678 c 2
 468 421 l 1
 701 65 l 2
 722 32 759 26 809 22 c 1
 809 -0 l 1
 509 -0 l 1
 509 22 l 1
 540 25 561 27 571 30 c 0
 581 33 587 37 587 42 c 0
 587 55 579 64 571 76 c 2
 398 339 l 1
 214 92 l 2
 203 77 197 64 197 53 c 3
 197 44 204 37 217 32 c 0
 230 27 252 23 281 20 c 1
 281 0 l 1
 10 0 l 1
 10 20 l 1
 70 28 82 28 146 114 c 2
 358 400 l 1
 159 704 l 1
 139 737 95 742 44 747 c 1
 44 770 l 1
 346 770 l 1
 346 747 l 1
 317 746 298 743 290 740 c 0
 282 737 277 732 277 727 c 0
 277 712 282 705 290 693 c 2
 430 479 l 1
 591 698 l 2
 599 709 603 718 603 724 c 3
 603 739 583 743 548 747 c 1
EndSplineSet
Validated: 1
EndChar

StartChar: equal
Encoding: 61 61 55
Width: 566
Flags: HMW
LayerCount: 2
Fore
SplineSet
78 401 m 5
 78 445 l 5
 488 445 l 5
 488 401 l 5
 78 401 l 5
78 240 m 5
 78 284 l 5
 488 284 l 5
 488 240 l 5
 78 240 l 5
EndSplineSet
Validated: 1
EndChar

StartChar: less
Encoding: 60 60 56
Width: 519
Flags: HMW
LayerCount: 2
Fore
SplineSet
40 310 m 1
 40 361 l 1
 449 556 l 1
 449 495 l 1
 112 341 l 1
 112 337 l 1
 449 181 l 1
 449 116 l 1
 40 310 l 1
EndSplineSet
Validated: 1
EndChar

StartChar: greater
Encoding: 62 62 57
Width: 519
Flags: HMW
LayerCount: 2
Fore
SplineSet
70 121 m 5
 70 181 l 5
 407 337 l 5
 407 341 l 5
 70 495 l 5
 70 561 l 5
 479 366 l 5
 479 315 l 5
 70 121 l 5
EndSplineSet
Validated: 1
EndChar

StartChar: at
Encoding: 64 64 58
Width: 874
Flags: HMW
LayerCount: 2
Fore
SplineSet
441 -104 m 0
 518 -104 572 -91 618 -64 c 1
 629 -93 l 1
 562 -126 491 -143 416 -143 c 0
 250 -143 139 -72 85 44 c 0
 65 88 55 141 55 203 c 0
 55 456 228 640 479 640 c 0
 636 640 741 561 786 449 c 0
 801 411 809 371 809 328 c 0
 809 243 779 171 741 121 c 0
 706 75 652 31 578 31 c 0
 520 31 475 60 475 113 c 0
 475 125 474 131 480 137 c 1
 476 138 l 1
 451 104 424 79 398 65 c 0
 372 51 347 44 322 44 c 0
 253 44 220 94 220 163 c 0
 220 242 260 315 299 362 c 0
 337 407 396 460 470 460 c 0
 509 460 533 444 548 421 c 1
 552 421 l 1
 563 460 l 1
 643 460 l 1
 562 170 l 2
 557 156 553 137 553 120 c 0
 553 91 567 81 594 81 c 0
 646 81 685 116 709 150 c 0
 739 192 759 253 759 325 c 0
 759 464 682 547 576 579 c 0
 541 590 506 595 469 595 c 0
 350 595 263 542 206 475 c 0
 151 410 111 316 111 202 c 0
 111 118 133 47 175 -3 c 0
 229 -68 316 -104 441 -104 c 0
307 165 m 0
 307 126 314 99 349 99 c 0
 370 99 391 108 413 126 c 0
 453 159 483 213 504 272 c 0
 514 300 519 329 519 358 c 0
 519 392 509 417 475 417 c 0
 456 417 436 410 416 395 c 0
 374 364 341 313 322 256 c 0
 312 226 307 196 307 165 c 0
EndSplineSet
Validated: 1
EndChar

StartChar: colon
Encoding: 58 58 59
Width: 284
Flags: HMW
LayerCount: 2
Fore
SplineSet
141 333 m 3
 101 333 73 362 73 401 c 3
 73 441 100 471 141 471 c 3
 182 471 211 442 211 401 c 3
 211 362 181 333 141 333 c 3
141 -10 m 3
 101 -10 73 19 73 58 c 3
 73 98 100 128 141 128 c 3
 182 128 211 99 211 58 c 3
 211 19 181 -10 141 -10 c 3
EndSplineSet
Validated: 1
EndChar

StartChar: semicolon
Encoding: 59 59 60
Width: 286
Flags: HMW
LayerCount: 2
Fore
SplineSet
142 333 m 3
 102 333 74 362 74 401 c 3
 74 441 101 471 142 471 c 3
 183 471 212 442 212 401 c 3
 212 362 182 333 142 333 c 3
141 128 m 3
 189 128 213 82 213 30 c 3
 213 -54 162 -111 107 -151 c 1
 87 -122 l 1
 106 -108 121 -93 132 -77 c 0
 143 -61 149 -47 149 -36 c 3
 149 -14 126 -4 111 5 c 0
 92 16 73 30 73 61 c 3
 73 99 103 128 141 128 c 3
EndSplineSet
Validated: 1
EndChar

StartChar: Q
Encoding: 81 81 61
Width: 838
Flags: HMW
LayerCount: 2
Back
SplineSet
418 780 m 0
 470 780 518.000976562 770.002929688 562.000976562 750.002929688 c 0
 606.000976562 730.002929688 644.333984375 702.3359375 677.000976562 667.002929688 c 0
 709.66796875 631.669921875 735.16796875 589.836914062 753.500976562 541.50390625 c 0
 771.833984375 493.170898438 781.000976562 441.00390625 781.000976562 385.00390625 c 0
 781.000976562 335.00390625 773.500976562 288.00390625 758.500976562 244.00390625 c 0
 743.500976562 200.00390625 722.333984375 161.00390625 695.000976562 127.00390625 c 0
 667.66796875 93.00390625 634.834960938 65.50390625 596.501953125 44.50390625 c 0
 558.168945312 23.50390625 515.668945312 11.00390625 469.001953125 7.00390625 c 1
 469.001953125 3.00390625 l 1
 485.668945312 -0.99609375 502.3359375 -6.8291015625 519.002929688 -14.49609375 c 0
 535.669921875 -22.1630859375 552.669921875 -29.99609375 570.002929688 -37.99609375 c 0
 587.3359375 -45.99609375 605.3359375 -52.8291015625 624.002929688 -58.49609375 c 0
 642.669921875 -64.1630859375 662.336914062 -66.99609375 683.00390625 -66.99609375 c 0
 705.670898438 -66.99609375 724.337890625 -62.6630859375 739.004882812 -53.99609375 c 0
 753.671875 -45.3291015625 767.671875 -31.99609375 781.004882812 -13.99609375 c 1
 808.004882812 -23.99609375 l 1
 787.337890625 -71.3291015625 761.170898438 -106.49609375 729.50390625 -129.49609375 c 0
 697.836914062 -152.49609375 664.669921875 -163.99609375 630.002929688 -163.99609375 c 0
 609.3359375 -163.99609375 590.8359375 -160.163085938 574.502929688 -152.49609375 c 0
 558.169921875 -144.829101562 543.002929688 -135.49609375 529.002929688 -124.49609375 c 0
 515.002929688 -113.49609375 501.502929688 -101.329101562 488.502929688 -87.99609375 c 0
 475.502929688 -74.6630859375 462.169921875 -62.49609375 448.502929688 -51.49609375 c 0
 434.8359375 -40.49609375 420.168945312 -31.1630859375 404.501953125 -23.49609375 c 0
 388.834960938 -15.8291015625 371.334960938 -11.99609375 352.001953125 -11.99609375 c 0
 330.668945312 -11.99609375 315.001953125 -16.3291015625 305.001953125 -24.99609375 c 0
 295.001953125 -33.6630859375 290.001953125 -44.330078125 290.001953125 -56.9970703125 c 0
 290.001953125 -62.9970703125 290.834960938 -67.830078125 292.501953125 -71.4970703125 c 0
 294.168945312 -75.1640625 296.168945312 -78.8310546875 298.501953125 -82.498046875 c 0
 300.834960938 -86.1650390625 302.834960938 -90.1650390625 304.501953125 -94.498046875 c 0
 306.168945312 -98.8310546875 307.001953125 -103.998046875 307.001953125 -109.998046875 c 0
 307.001953125 -124.665039062 302.168945312 -136.665039062 292.501953125 -145.998046875 c 0
 282.834960938 -155.331054688 270.66796875 -159.998046875 256.000976562 -159.998046875 c 0
 240.66796875 -159.998046875 228.500976562 -154.998046875 219.500976562 -144.998046875 c 0
 210.500976562 -134.998046875 206.000976562 -121.665039062 206.000976562 -104.998046875 c 0
 206.000976562 -80.998046875 215.833984375 -58.6650390625 235.500976562 -37.998046875 c 0
 255.16796875 -17.3310546875 282.000976562 -0.3310546875 316.000976562 13.001953125 c 1
 316.000976562 17.001953125 l 1
 276.66796875 25.6689453125 241.000976562 41.1689453125 209.000976562 63.501953125 c 0
 177.000976562 85.8349609375 149.66796875 113.16796875 127.000976562 145.500976562 c 0
 104.333984375 177.833984375 86.6669921875 214.500976562 74 255.500976562 c 0
 61.3330078125 296.500976562 55 339.66796875 55 385.000976562 c 0
 55 441.000976562 64.1669921875 493.16796875 82.5 541.500976562 c 0
 100.833007812 589.833984375 126.333007812 631.666992188 159 667 c 0
 191.666992188 702.333007812 230 730 274 750 c 0
 318 770 366 780 418 780 c 0
181.000976562 386.002929688 m 0
 181.000976562 331.3359375 186.33203125 282.336914062 196.999023438 239.00390625 c 0
 207.666015625 195.670898438 223.333007812 158.837890625 244 128.504882812 c 0
 264.666992188 98.171875 289.5 75.0048828125 318.5 59.0048828125 c 0
 347.5 43.0048828125 380.666992188 35.0048828125 418 35.0048828125 c 0
 454.666992188 35.0048828125 487.666992188 43.0048828125 517 59.0048828125 c 0
 546.333007812 75.0048828125 571.333007812 98.171875 592 128.504882812 c 0
 612.666992188 158.837890625 628.333984375 195.670898438 639.000976562 239.00390625 c 0
 649.66796875 282.336914062 655.000976562 331.669921875 655.000976562 387.002929688 c 0
 655.000976562 497.002929688 634.333984375 582.502929688 593.000976562 643.502929688 c 0
 551.66796875 704.502929688 493.66796875 735.002929688 419.000976562 735.002929688 c 0
 381.66796875 735.002929688 348.334960938 727.169921875 319.001953125 711.502929688 c 0
 289.668945312 695.8359375 264.668945312 673.002929688 244.001953125 643.002929688 c 0
 223.334960938 613.002929688 207.66796875 576.3359375 197.000976562 533.002929688 c 0
 186.333984375 489.669921875 181.000976562 440.669921875 181.000976562 386.002929688 c 0
EndSplineSet
Fore
SplineSet
181 386 m 0
 181 203 240 53 418 53 c 0
 596 53 655 205 655 388 c 0
 655 570 595 711 418 711 c 0
 239 711 181 569 181 386 c 0
418 780 m 0
 640 780 781 608 781 385 c 0
 781 262 738 154 662 82 c 1
 669 63 711 23 808 -25 c 1
 799 -43 l 1
 673 -25 607 -4 538 9 c 1
 501 -3 461 -10 418 -10 c 0
 196 -10 55 162 55 385 c 0
 55 608 196 780 418 780 c 0
EndSplineSet
Validated: 1
EndChar

StartChar: plus
Encoding: 43 43 62
Width: 500
Flags: HMW
LayerCount: 2
Fore
SplineSet
225 315 m 5
 45 315 l 5
 45 364 l 5
 225 364 l 5
 225 544 l 5
 276 544 l 5
 276 364 l 5
 455 364 l 5
 455 315 l 5
 276 315 l 5
 276 134 l 5
 225 134 l 5
 225 315 l 5
EndSplineSet
Validated: 1
EndChar

StartChar: comma
Encoding: 44 44 63
Width: 258
Flags: HMW
LayerCount: 2
Fore
SplineSet
127 128 m 3
 171 128 198 88 198 43 c 3
 198 -51 153 -107 93 -151 c 1
 73 -122 l 1
 92 -108 107 -93 118 -77 c 0
 129 -61 135 -47 135 -36 c 3
 135 -11 115 -2 98 7 c 0
 78 18 60 30 60 61 c 3
 60 99 89 128 127 128 c 3
EndSplineSet
Validated: 1
EndChar

StartChar: quotesingle
Encoding: 39 39 64
Width: 218
Flags: HMW
LayerCount: 2
Fore
SplineSet
109 830 m 3
 143 830 162 807 162 774 c 3
 162 738 151 702 144 666 c 0
 135 618 125 562 124 505 c 1
 94 505 l 1
 92 587 75 658 61 725 c 0
 57 743 56 758 56 770 c 3
 56 806 74 830 109 830 c 3
EndSplineSet
Validated: 1
EndChar

StartChar: quotedbl
Encoding: 34 34 65
Width: 370
Flags: HMW
LayerCount: 2
Fore
SplineSet
109 830 m 3
 143 830 162 807 162 774 c 3
 162 738 151 702 144 666 c 0
 135 618 125 562 124 505 c 1
 94 505 l 1
 92 587 75 658 61 725 c 0
 57 743 56 758 56 770 c 3
 56 806 74 830 109 830 c 3
261 830 m 3
 295 830 314 807 314 774 c 3
 314 738 303 701 296 665 c 0
 287 617 277 562 276 505 c 1
 246 505 l 1
 244 587 227 658 213 725 c 0
 209 743 208 758 208 770 c 3
 208 806 226 830 261 830 c 3
EndSplineSet
Validated: 1
EndChar

StartChar: numbersign
Encoding: 35 35 66
Width: 674
Flags: HMW
LayerCount: 2
Fore
SplineSet
518 696 m 1
 491 525 l 1
 634 525 l 1
 622 469 l 1
 482 469 l 1
 458 318 l 1
 598 318 l 1
 584 262 l 1
 449 262 l 1
 423 92 l 1
 366 92 l 1
 392 262 l 1
 243 262 l 1
 217 92 l 1
 159 92 l 1
 185 262 l 1
 40 262 l 1
 54 318 l 1
 194 318 l 1
 218 469 l 1
 78 469 l 1
 90 525 l 1
 227 525 l 1
 254 696 l 1
 312 696 l 1
 285 525 l 1
 434 525 l 1
 461 696 l 1
 518 696 l 1
252 318 m 1
 401 318 l 1
 425 469 l 1
 276 469 l 1
 252 318 l 1
EndSplineSet
Validated: 1
EndChar

StartChar: dollar
Encoding: 36 36 67
Width: 534
Flags: HMW
LayerCount: 2
Back
SplineSet
295.997070312 61 m 0
 380.997070312 61 444.997070312 103 444.997070312 185 c 3
 444.997070312 234 418.997070312 246 387.997070312 272 c 0
 352.997070312 302 303.997070312 326 259.997070312 349 c 0
 191.997070312 385 126.997070312 422 92.9970703125 492 c 0
 81.9970703125 514 76.9970703125 540 76.9970703125 569 c 3
 76.9970703125 670 137.997070312 735 211.997070312 764 c 0
 238.997070312 775 267.997070312 780 299.997070312 780 c 3
 368.997070312 780 411.997070312 755 450.997070312 718 c 1
 482.997070312 770 l 1
 502.997070312 770 l 1
 511.997070312 550 l 1
 485.997070312 550 l 1
 469.997070312 614 446.997070312 643 417.997070312 673 c 0
 388.997070312 703 350.997070312 718 304.997070312 718 c 3
 230.997070312 718 181.997070312 677 181.997070312 604 c 3
 181.997070312 551 207.997070312 537 237.997070312 511 c 0
 271.997070312 481 317.997070312 459 359.997070312 436 c 0
 426.997070312 400 487.997070312 364 520.997070312 295 c 0
 530.997070312 273 536.997070312 247 536.997070312 217 c 3
 536.997070312 147 505.997070312 92 467.997070312 56 c 0
 428.997070312 20 370.997070312 -9 298.997070312 -9 c 0
 230.997070312 -9 186.997070312 12 138.997070312 41 c 1
 98.9970703125 0 l 1
 78.9970703125 0 l 1
 60.9970703125 256 l 1
 85.9970703125 262 l 1
 105.997070312 181 131.997070312 150 164.997070312 114 c 0
 197.997070312 78 240.997070312 61 295.997070312 61 c 0
EndSplineSet
Fore
SplineSet
50 121 m 0
 50 156 70 180 104 180 c 0
 169 180 158 95 188 60 c 0
 203 43 224 34 255 32 c 1
 255 332 l 1
 184 370 113 409 76 483 c 0
 65 506 59 534 59 566 c 0
 59 661 109 722 174 754 c 0
 199 766 226 774 255 778 c 1
 255 888 l 1
 297 888 l 1
 297 780 l 1
 370 776 431 747 460 699 c 0
 468 684 473 667 473 650 c 0
 473 615 453 591 418 591 c 0
 376 591 367 625 358 659 c 0
 347 699 334 725 297 736 c 1
 297 451 l 1
 365 413 433 375 467 303 c 0
 478 280 484 252 484 220 c 0
 484 123 434 59 371 24 c 0
 348 10 324 1 297 -4 c 1
 297 -102 l 1
 255 -102 l 1
 255 -9 l 1
 170 -9 99 20 66 70 c 0
 55 86 50 103 50 121 c 0
297 35 m 1
 353 48 392 91 392 159 c 0
 392 193 383 221 364 244 c 0
 346 267 324 287 297 305 c 1
 297 35 l 1
255 737 m 1
 200 729 164 686 164 622 c 0
 164 589 173 561 190 538 c 0
 207 515 229 495 255 478 c 1
 255 737 l 1
EndSplineSet
Validated: 1
EndChar

StartChar: percent
Encoding: 37 37 68
Width: 806
Flags: HMW
LayerCount: 2
Fore
SplineSet
192 744 m 3
 146 744 138 698 133 652 c 0
 131 629 130 600 130 565 c 3
 130 507 130 461 144 424 c 0
 153 402 165 390 192 390 c 3
 239 390 246 432 251 478 c 0
 253 501 255 530 255 565 c 3
 255 623 254 670 240 708 c 0
 232 731 220 744 192 744 c 3
613 415 m 3
 664 415 702 385 725 352 c 0
 752 315 771 262 771 200 c 3
 771 109 733 40 675 7 c 0
 656 -4 635 -10 613 -10 c 3
 562 -10 525 19 501 51 c 0
 474 87 456 139 456 200 c 3
 456 292 493 364 551 398 c 0
 570 409 591 415 613 415 c 3
613 380 m 3
 567 380 559 334 554 288 c 0
 552 265 551 236 551 201 c 3
 551 143 551 97 565 60 c 0
 574 38 586 26 613 26 c 3
 660 26 667 68 672 114 c 0
 674 137 676 166 676 201 c 3
 676 259 675 306 661 344 c 0
 653 367 641 380 613 380 c 3
569 713 m 1
 529 691 492 684 444 684 c 3
 401 684 361 685 311 704 c 1
 311 704 329 674 337 648 c 0
 345 622 350 594 350 564 c 3
 350 473 312 404 254 371 c 0
 235 360 214 354 192 354 c 3
 141 354 104 383 80 415 c 0
 53 451 35 503 35 564 c 3
 35 656 73 728 131 762 c 0
 150 773 170 779 192 779 c 3
 214 779 235 773 254 762 c 1
 318 730 378 714 435 714 c 3
 496 714 552 733 604 770 c 1
 674 770 l 1
 204 0 l 1
 135 0 l 1
 569 713 l 1
EndSplineSet
Validated: 1
EndChar

StartChar: period
Encoding: 46 46 69
Width: 258
Flags: HMW
LayerCount: 2
Fore
SplineSet
128 -10 m 3
 88 -10 60 19 60 58 c 3
 60 98 87 128 128 128 c 3
 169 128 198 99 198 58 c 3
 198 19 168 -10 128 -10 c 3
EndSplineSet
Validated: 1
EndChar

StartChar: exclam
Encoding: 33 33 71
Width: 300
Flags: HMW
LayerCount: 2
Fore
SplineSet
150 780 m 7
 190 780 210 752 210 714 c 7
 210 701 208 677 204 643 c 4
 189 516 179 370 170 230 c 5
 129 230 l 5
 120 370 110 514 95 641 c 4
 91 675 89 698 89 711 c 7
 89 749 111 780 150 780 c 7
149 -10 m 7
 112 -10 85 18 85 54 c 7
 85 92 110 120 149 120 c 7
 189 120 215 94 215 54 c 7
 215 17 188 -10 149 -10 c 7
EndSplineSet
Validated: 1
EndChar

StartChar: zero
Encoding: 48 48 72
Width: 632
Flags: HMW
LayerCount: 2
Fore
SplineSet
315 780 m 7
 402 780 461 723 500 664 c 4
 546 594 577 495 577 381 c 7
 577 217 519 83 418 20 c 4
 386 0 352 -10 315 -10 c 7
 228 -10 168 44 130 102 c 4
 85 170 55 269 55 381 c 7
 55 547 112 684 212 749 c 4
 244 770 278 780 315 780 c 7
315 729 m 7
 255 729 227 695 208 647 c 4
 180 575 177 492 177 382 c 7
 177 273 180 190 208 119 c 4
 227 72 255 41 315 41 c 7
 375 41 404 73 423 120 c 4
 451 190 455 274 455 382 c 7
 455 491 451 575 423 646 c 4
 404 694 375 729 315 729 c 7
EndSplineSet
Validated: 1
EndChar

StartChar: one
Encoding: 49 49 73
Width: 421
Flags: HMW
LayerCount: 2
Fore
SplineSet
44 650 m 1
 127 677 193 721 256 780 c 1
 277 772 l 1
 277 42 l 1
 406 22 l 1
 406 0 l 1
 40 0 l 1
 40 22 l 1
 172 42 l 1
 172 629 l 1
 44 629 l 1
 44 650 l 1
EndSplineSet
Validated: 1
EndChar

StartChar: two
Encoding: 50 50 74
Width: 579
Flags: HMW
LayerCount: 2
Fore
SplineSet
437 90 m 1
 466 123 494 166 517 207 c 1
 539 199 l 1
 463 0 l 1
 34 0 l 1
 25 23 l 1
 91 87 147 145 193 195 c 0
 239 245 276 291 304 332 c 0
 332 373 353 412 366 446 c 0
 379 480 386 513 386 545 c 0
 386 616 357 669 309 692 c 0
 293 700 276 704 257 704 c 0
 179 704 117 644 87 588 c 1
 66 599 l 1
 95 676 151 739 227 767 c 0
 251 776 276 780 301 780 c 0
 364 780 412 752 444 718 c 0
 477 683 501 632 501 566 c 0
 501 533 494 500 481 466 c 0
 468 432 447 396 419 358 c 0
 391 320 354 278 310 234 c 0
 266 190 213 142 150 90 c 1
 437 90 l 1
EndSplineSet
Validated: 1
EndChar

StartChar: three
Encoding: 51 51 75
Width: 553
Flags: HMW
LayerCount: 2
Fore
SplineSet
233 376 m 0
 214 376 196 373 176 371 c 1
 170 398 l 1
 224 422 266 452 295 487 c 0
 324 522 339 561 339 602 c 0
 339 661 305 710 249 710 c 0
 171 710 118 651 93 591 c 1
 69 597 l 1
 85 679 140 740 212 767 c 0
 236 776 261 780 288 780 c 0
 362 780 415 746 438 695 c 0
 446 677 450 658 450 637 c 0
 450 603 439 571 417 540 c 0
 395 509 364 483 324 460 c 1
 324 456 l 1
 429 447 498 369 498 255 c 0
 498 174 463 110 421 67 c 0
 379 24 316 -10 235 -10 c 0
 154 -10 90 22 60 73 c 0
 50 90 45 107 45 126 c 0
 45 163 65 187 101 187 c 0
 145 187 158 145 169 111 c 0
 182 71 204 35 257 35 c 0
 328 35 372 87 393 140 c 0
 401 160 405 181 405 204 c 0
 405 284 357 337 300 362 c 0
 279 371 257 376 233 376 c 0
EndSplineSet
Validated: 1
EndChar

StartChar: four
Encoding: 52 52 76
Width: 582
Flags: HMW
LayerCount: 2
Fore
SplineSet
338 213 m 1
 18 213 l 1
 10 230 l 1
 413 780 l 1
 439 770 l 1
 439 289 l 1
 532 289 l 1
 532 213 l 1
 439 213 l 1
 439 42 l 1
 528 23 l 1
 528 0 l 1
 218 0 l 1
 218 23 l 1
 338 42 l 1
 338 213 l 1
338 581 m 1
 334 581 l 1
 127 293 l 1
 128 289 l 1
 338 289 l 1
 338 581 l 1
EndSplineSet
Validated: 1
EndChar

StartChar: five
Encoding: 53 53 77
Width: 549
Flags: HMW
LayerCount: 2
Fore
SplineSet
35 116 m 0
 35 152 53 174 88 174 c 0
 147 174 148 107 172 71 c 0
 186 50 207 35 243 35 c 0
 293 35 329 61 354 90 c 0
 381 122 400 170 400 226 c 0
 400 316 356 376 292 403 c 0
 270 412 246 417 219 417 c 0
 178 417 142 404 111 378 c 1
 96 380 l 1
 148 757 l 1
 466 757 l 1
 439 667 l 1
 182 667 l 1
 157 494 l 1
 186 504 208 510 244 510 c 0
 362 510 441 450 476 366 c 0
 488 336 494 303 494 267 c 0
 494 181 459 115 414 70 c 0
 369 26 302 -10 217 -10 c 0
 139 -10 78 18 49 66 c 0
 40 81 35 98 35 116 c 0
EndSplineSet
Validated: 1
EndChar

StartChar: six
Encoding: 54 54 78
Width: 588
Flags: HMW
LayerCount: 2
Back
SplineSet
185.999023438 412 m 5
 215.077229219 442.398622344 275.957451655 464 335.999023438 464 c 4
 441.348560471 464 507.448733182 406.567144759 536.999023438 329 c 4
 547.666015625 301 552.999023438 270 552.999023438 236 c 4
 552.999023438 117.784891352 489.062391467 41.5080225034 402.5 8 c 4
 371.5 -4 337.333007812 -10 300 -10 c 4
 175.707463051 -10 103.151973078 57.7079799846 72 153 c 4
 60.6669921875 187.666992188 55 227 55 271 c 4
 55 396.568143843 99.6337699147 498.845026553 157.5 576 c 4
 223.823189815 664.430919754 318.647566222 734.822141139 431.999023438 776.999023438 c 5
 439.999023438 751.999023438 l 5
 376.577589502 718.174258672 317.190358332 659.882597492 273.999023438 602.499023438 c 4
 235.462989829 551.300435949 195.700418998 483.142777942 185.999023438 412 c 5
172 241 m 4
 172 134.383837895 209.307617188 42 306 42 c 4
 395.741210938 42 433.999023438 121.829135463 433.999023438 219 c 4
 433.999023438 321.216728005 391.960190765 407 296.999023438 407 c 4
 246.823605423 407 205.860816592 383.363218079 183.999023438 352.999023438 c 5
 177.544919001 323.307873787 172 277.332346629 172 241 c 4
EndSplineSet
Fore
SplineSet
186 412 m 1
 215 442 276 464 336 464 c 0
 441 464 507 407 537 329 c 0
 548 301 553 270 553 236 c 0
 553 118 489 42 402 8 c 0
 371 -4 337 -10 300 -10 c 0
 176 -10 103 58 72 153 c 0
 61 188 55 227 55 271 c 0
 55 397 100 499 158 576 c 0
 224 664 319 735 432 777 c 1
 440 752 l 1
 377 718 317 659 274 602 c 0
 235 551 196 483 186 412 c 1
172 241 m 0
 172 134 209 42 306 42 c 0
 396 42 434 122 434 219 c 0
 434 321 392 407 297 407 c 0
 247 407 203 365 181 335 c 1
 175 304 172 277 172 241 c 0
EndSplineSet
Validated: 1
EndChar

StartChar: seven
Encoding: 55 55 79
Width: 496
Flags: HMW
LayerCount: 2
Fore
SplineSet
110 667 m 1
 82 643 68 625 46 591 c 1
 25 602 l 1
 94 759 l 1
 478 759 l 1
 486 745 l 1
 407 564 344 402 280 206 c 0
 265 161 248 109 229 48 c 0
 217 9 196 -10 165 -10 c 0
 134 -10 117 10 117 41 c 0
 117 54 121 70 128 88 c 0
 135 106 145 129 157 154 c 1
 377 667 l 1
 110 667 l 1
EndSplineSet
Validated: 1
EndChar

StartChar: eight
Encoding: 56 56 80
Width: 592
Flags: HMW
LayerCount: 2
Fore
SplineSet
372 440 m 1
 429 405 471 371 497 335 c 0
 523 299 537 259 537 215 c 0
 537 77 426 -10 288 -10 c 0
 158 -10 55 67 55 195 c 0
 55 301 125 358 207 401 c 1
 138 447 79 494 79 589 c 0
 79 710 175 780 297 780 c 0
 408 780 502 721 502 612 c 0
 502 540 459 483 372 440 c 1
291 735 m 0
 221 735 173 692 173 623 c 0
 173 534 248 495 325 460 c 1
 384 503 414 554 414 612 c 0
 414 686 365 735 291 735 c 0
303 35 m 0
 389 35 446 86 446 171 c 0
 446 284 351 332 252 376 c 1
 195 341 155 282 155 196 c 0
 155 100 208 35 303 35 c 0
EndSplineSet
Validated: 1
EndChar

StartChar: nine
Encoding: 57 57 81
Width: 593
Flags: HMW
LayerCount: 2
Fore
SplineSet
407 355 m 1
 378 325 317 303 257 303 c 3
 122 303 40 396 40 531 c 3
 40 682 142 777 293 777 c 3
 457 777 538 661 538 496 c 3
 538 370 493 268 435 191 c 0
 369 103 275 31 161 -10 c 1
 153 15 l 1
 216 49 276 108 319 165 c 0
 358 216 397 284 407 355 c 1
421 526 m 3
 421 633 384 722 287 722 c 3
 197 722 159 645 159 548 c 3
 159 446 201 370 296 370 c 3
 346 370 387 394 409 424 c 1
 415 454 421 490 421 526 c 3
EndSplineSet
Validated: 1
EndChar

StartChar: question
Encoding: 63 63 82
Width: 434
Flags: HMW
LayerCount: 2
Back
SplineSet
197 780 m 3
 237 780 257 752 257 714 c 3
 257 701 255 677 251 643 c 0
 236 516 226 370 217 230 c 1
 176 230 l 1
 167 370 157 514 142 641 c 0
 138 675 136 698 136 711 c 3
 136 749 158 780 197 780 c 3
196 -10 m 3
 159 -10 132 18 132 54 c 3
 132 92 157 120 196 120 c 3
 236 120 262 94 262 54 c 3
 262 17 235 -10 196 -10 c 3
EndSplineSet
Fore
SplineSet
196 -10 m 3
 157 -10 132 17 132 55 c 3
 132 93 159 120 197 120 c 3
 235 120 262 93 262 55 c 3
 262 17 234 -10 196 -10 c 3
124 608 m 0
 124 579 136 586 136 558 c 0
 136 535 106 523 87 523 c 0
 71 523 45 531 45 566 c 0
 45 652 128 723 221 723 c 0
 323 723 389 645 389 554 c 3
 389 475 327 431 280 397 c 0
 232 362 218 342 218 274 c 2
 218 230 l 25
 176 230 l 25
 176 276 l 2
 176 319 181 378 246 437 c 0
 286 474 301 503 301 550 c 3
 301 615 273 660 216 660 c 0
 159 660 124 638 124 608 c 0
EndSplineSet
Validated: 1
EndChar

StartChar: uni0000
Encoding: 0 0 83
Width: 857
Flags: MW
LayerCount: 2
Back
SplineSet
618 376 m 5
 240 376 l 5
 240 42 l 5
 329 23 l 5
 329 0 l 5
 45 0 l 5
 45 23 l 5
 135 42 l 5
 135 728 l 5
 45 747 l 5
 45 770 l 5
 329 770 l 5
 329 747 l 5
 240 728 l 5
 240 445 l 5
 618 445 l 5
 618 728 l 5
 528 747 l 5
 528 770 l 5
 812 770 l 5
 812 745 l 5
 723 728 l 5
 723 42 l 5
 812 21 l 5
 812 0 l 5
 528 0 l 5
 528 23 l 5
 618 42 l 5
 618 376 l 5
EndSplineSet
Fore
SplineSet
45 770 m 1
 812 770 l 1
 812 0 l 1
 45 0 l 1
 45 770 l 1
135 680 m 1
 135 90 l 1
 722 90 l 1
 722 680 l 1
 135 680 l 1
428 611 m 0
 390 611 372 589 360 558 c 0
 342 512 340 459 340 389 c 0
 340 346 341 309 346 276 c 1
 498 556 l 2
 497 558 l 0
 485 589 466 611 428 611 c 0
428 643 m 0
 484 643 522 607 547 569 c 0
 576 524 596 461 596 388 c 0
 596 283 559 197 494 157 c 0
 474 144 452 138 428 138 c 0
 372 138 334 172 310 209 c 0
 281 253 262 316 262 388 c 0
 262 494 298 582 362 624 c 0
 382 637 404 643 428 643 c 0
356 229 m 2
 357 226 359 223 360 220 c 0
 372 190 390 170 428 170 c 0
 466 170 485 191 497 221 c 0
 515 266 518 320 518 389 c 0
 518 436 517 475 511 510 c 1
 356 229 l 2
EndSplineSet
Validated: 1
EndChar

StartChar: plusminus
Encoding: 177 177 84
Width: 576
Flags: HMW
LayerCount: 2
Fore
SplineSet
263 422 m 1
 83 422 l 1
 83 471 l 1
 263 471 l 1
 263 651 l 1
 314 651 l 1
 314 471 l 1
 493 471 l 1
 493 422 l 1
 314 422 l 1
 314 241 l 1
 263 241 l 1
 263 422 l 1
83 106 m 1
 83 155 l 1
 493 155 l 1
 493 106 l 1
 83 106 l 1
EndSplineSet
Validated: 1
EndChar

StartChar: uni00B2
Encoding: 178 178 85
Width: 405
Flags: HMW
LayerCount: 2
Fore
SplineSet
44 801 m 1
 69 867 123 926 207 926 c 0
 274 926 320 888 340 840 c 0
 347 823 351 804 351 784 c 0
 351 731 330 695 302 660 c 0
 255 601 197 555 130 502 c 1
 295 502 l 1
 313 520 329 543 343 568 c 1
 367 563 l 1
 315 416 l 1
 34 416 l 1
 28 454 l 1
 96 518 154 575 202 642 c 0
 220 667 233 689 241 710 c 0
 249 731 253 752 253 771 c 0
 253 823 224 863 174 863 c 0
 124 863 85 823 66 787 c 1
 44 801 l 1
EndSplineSet
Validated: 1
EndChar

StartChar: uni00B3
Encoding: 179 179 86
Width: 389
Flags: HMW
LayerCount: 2
Fore
SplineSet
155 657 m 4
 144 657 129 656 120 654 c 5
 111 683 l 5
 146 696 174 714 194 737 c 4
 214 760 224 783 224 808 c 4
 224 842 202 865 168 865 c 4
 124 865 90 835 74 803 c 5
 53 812 l 5
 67 876 124 926 200 926 c 4
 265 926 316 888 316 824 c 4
 316 768 273 732 227 720 c 5
 227 716 l 5
 297 710 346 659 346 583 c 4
 346 502 295 446 236 422 c 4
 214 413 190 409 165 409 c 4
 110 409 65 430 44 464 c 4
 37 475 34 487 34 500 c 4
 34 527 50 548 77 548 c 4
 108 548 116 521 125 499 c 4
 135 474 145 451 180 451 c 4
 229 451 256 492 256 544 c 4
 256 610 219 657 155 657 c 4
EndSplineSet
Validated: 1
EndChar

StartChar: degree
Encoding: 176 176 87
Width: 340
Flags: HMW
LayerCount: 2
Fore
SplineSet
170 587 m 3
 99 587 49 638 49 708 c 3
 49 778 100 830 170 830 c 3
 240 830 291 778 291 708 c 3
 291 637 240 587 170 587 c 3
170 790 m 3
 123 790 90 755 90 708 c 3
 90 662 124 628 170 628 c 3
 217 628 250 661 250 708 c 3
 250 756 218 790 170 790 c 3
EndSplineSet
Validated: 1
EndChar

StartChar: acute
Encoding: 180 180 88
Width: 170
Flags: HMW
LayerCount: 2
Fore
SplineSet
121 859 m 0
 144 859 160 840 160 816 c 0
 160 789 147 774 130 755 c 2
 31 631 l 1
 10 642 l 1
 66 812 l 2
 75 838 88 859 121 859 c 0
EndSplineSet
Validated: 1
EndChar

StartChar: periodcentered
Encoding: 183 183 89
Width: 282
Flags: HMW
LayerCount: 2
Fore
SplineSet
140 219 m 7
 100 219 72 248 72 287 c 7
 72 327 99 357 140 357 c 7
 181 357 210 328 210 287 c 7
 210 248 180 219 140 219 c 7
EndSplineSet
Validated: 1
EndChar

StartChar: multiply
Encoding: 215 215 90
Width: 491
Flags: HMW
LayerCount: 2
Fore
SplineSet
209 340 m 1
 69 480 l 1
 106 517 l 1
 246 377 l 1
 386 517 l 1
 425 478 l 1
 285 338 l 1
 424 199 l 1
 387 162 l 1
 248 301 l 1
 107 160 l 1
 68 199 l 1
 209 340 l 1
EndSplineSet
Validated: 1
EndChar

StartChar: dieresis
Encoding: 168 168 91
Width: 317
Flags: HMW
LayerCount: 2
Fore
SplineSet
65 670 m 3
 33 670 10 694 10 725 c 3
 10 757 32 780 65 780 c 3
 99 780 120 758 120 725 c 3
 120 693 98 670 65 670 c 3
252 670 m 3
 220 670 197 694 197 725 c 3
 197 757 219 780 252 780 c 3
 286 780 307 758 307 725 c 3
 307 693 285 670 252 670 c 3
EndSplineSet
Validated: 1
EndChar

StartChar: macron
Encoding: 175 175 92
Width: 307
Flags: HMW
LayerCount: 2
Fore
SplineSet
10 709 m 1
 10 780 l 1
 297 780 l 1
 297 709 l 1
 10 709 l 1
EndSplineSet
Validated: 1
EndChar

StartChar: bracketleft
Encoding: 91 91 93
Width: 324
Flags: HMW
LayerCount: 2
Fore
SplineSet
101 -187 m 5
 101 820 l 5
 300 820 l 5
 300 788 l 5
 182 788 l 5
 182 -156 l 5
 300 -156 l 5
 300 -187 l 5
 101 -187 l 5
EndSplineSet
Validated: 1
EndChar

StartChar: backslash
Encoding: 92 92 94
Width: 360
Flags: HMW
LayerCount: 2
Fore
SplineSet
246 -169 m 5
 45 819 l 5
 115 819 l 5
 315 -169 l 5
 246 -169 l 5
EndSplineSet
Validated: 1
EndChar

StartChar: bracketright
Encoding: 93 93 95
Width: 324
Flags: HMW
LayerCount: 2
Fore
SplineSet
24 -187 m 5
 24 -156 l 5
 142 -156 l 5
 142 788 l 5
 24 788 l 5
 24 820 l 5
 223 820 l 5
 223 -187 l 5
 24 -187 l 5
EndSplineSet
Validated: 1
EndChar

StartChar: asciicircum
Encoding: 94 94 96
Width: 495
Flags: HMW
LayerCount: 2
Fore
SplineSet
45 332 m 1
 230 711 l 1
 266 711 l 1
 450 332 l 1
 408 332 l 1
 249 649 l 1
 245 649 l 1
 88 332 l 1
 45 332 l 1
EndSplineSet
Validated: 1
EndChar

StartChar: underscore
Encoding: 95 95 97
Width: 700
Flags: HMW
LayerCount: 2
Fore
SplineSet
75 -74 m 5
 75 -30 l 5
 625 -30 l 5
 625 -74 l 5
 75 -74 l 5
EndSplineSet
Validated: 1
EndChar

StartChar: grave
Encoding: 96 96 98
Width: 170
Flags: HMW
LayerCount: 2
Fore
SplineSet
10 816 m 3
 10 840 26 859 49 859 c 3
 82 859 95 838 104 812 c 2
 160 642 l 1
 139 631 l 1
 40 755 l 2
 23 774 10 789 10 816 c 3
EndSplineSet
Validated: 1
EndChar

StartChar: quotedblleft
Encoding: 8220 8220 99
Width: 437
Flags: HMW
LayerCount: 2
Fore
SplineSet
124 551 m 3
 80 551 53 591 53 636 c 3
 53 730 98 786 158 830 c 1
 178 801 l 1
 159 787 144 772 133 756 c 0
 122 740 116 726 116 715 c 3
 116 690 136 681 153 672 c 0
 173 661 191 649 191 618 c 3
 191 580 162 551 124 551 c 3
316 551 m 3
 272 551 245 591 245 636 c 3
 245 730 290 786 350 830 c 1
 370 801 l 1
 351 787 336 772 325 756 c 0
 314 740 308 726 308 715 c 3
 308 690 328 681 345 672 c 0
 365 661 383 649 383 618 c 3
 383 580 354 551 316 551 c 3
EndSplineSet
Validated: 1
EndChar

StartChar: quotedblright
Encoding: 8221 8221 100
Width: 434
Flags: HMW
LayerCount: 2
Fore
SplineSet
315 830 m 3
 359 830 386 790 386 745 c 3
 386 651 341 595 281 551 c 1
 261 580 l 1
 280 594 295 609 306 625 c 0
 317 641 323 655 323 666 c 7
 323 691 303 700 286 709 c 0
 266 720 248 732 248 763 c 3
 248 801 277 830 315 830 c 3
123 830 m 3
 167 830 194 790 194 745 c 3
 194 651 149 595 89 551 c 1
 69 580 l 1
 88 594 103 609 114 625 c 0
 125 641 131 655 131 666 c 7
 131 691 111 700 94 709 c 0
 74 720 56 732 56 763 c 3
 56 801 85 830 123 830 c 3
EndSplineSet
Validated: 1
EndChar

StartChar: quotedblbase
Encoding: 8222 8222 101
Width: 455
Flags: HMW
LayerCount: 2
Fore
SplineSet
321 128 m 3
 365 128 392 88 392 43 c 3
 392 -51 347 -107 287 -151 c 1
 267 -122 l 1
 286 -108 301 -93 312 -77 c 0
 323 -61 329 -47 329 -36 c 3
 329 -11 309 -2 292 7 c 0
 272 18 254 30 254 61 c 3
 254 99 283 128 321 128 c 3
129 128 m 3
 173 128 200 88 200 43 c 3
 200 -51 155 -107 95 -151 c 1
 75 -122 l 1
 94 -108 109 -93 120 -77 c 0
 131 -61 137 -47 137 -36 c 3
 137 -11 117 -2 100 7 c 0
 80 18 62 30 62 61 c 3
 62 99 91 128 129 128 c 3
EndSplineSet
Validated: 1
EndChar

StartChar: quoteleft
Encoding: 8216 8216 102
Width: 245
Flags: HMW
LayerCount: 2
Fore
SplineSet
124 551 m 7
 80 551 53 591 53 636 c 7
 53 730 98 786 158 830 c 5
 178 801 l 5
 159 787 144 772 133 756 c 4
 122 740 116 726 116 715 c 7
 116 690 136 681 153 672 c 4
 173 661 191 649 191 618 c 7
 191 580 162 551 124 551 c 7
EndSplineSet
Validated: 1
EndChar

StartChar: quoteright
Encoding: 8217 8217 103
Width: 242
Flags: HMW
LayerCount: 2
Fore
SplineSet
123 830 m 3
 167 830 194 790 194 745 c 3
 194 651 149 595 89 551 c 1
 69 580 l 1
 88 594 103 609 114 625 c 0
 125 641 131 655 131 666 c 3
 131 691 111 700 94 709 c 0
 74 720 56 732 56 763 c 3
 56 801 85 830 123 830 c 3
EndSplineSet
Validated: 1
EndChar

StartChar: ellipsis
Encoding: 8230 8230 104
Width: 822
Flags: HMW
LayerCount: 2
Fore
SplineSet
130 -10 m 4
 90 -10 62 19 62 58 c 4
 62 98 89 128 130 128 c 4
 171 128 200 99 200 58 c 4
 200 19 170 -10 130 -10 c 4
410 -10 m 4
 370 -10 342 19 342 58 c 4
 342 98 369 128 410 128 c 4
 451 128 480 99 480 58 c 4
 480 19 450 -10 410 -10 c 4
690 -10 m 4
 650 -10 622 19 622 58 c 4
 622 98 649 128 690 128 c 4
 731 128 760 99 760 58 c 4
 760 19 730 -10 690 -10 c 4
EndSplineSet
Validated: 1
EndChar

StartChar: fraction
Encoding: 8260 8260 105
Width: 220
Flags: HMW
LayerCount: 2
Fore
SplineSet
-159 0 m 5
 310 770 l 5
 380 770 l 5
 -90 0 l 5
 -159 0 l 5
EndSplineSet
Validated: 1
EndChar

StartChar: bullet
Encoding: 8226 8226 106
Width: 410
Flags: HMW
LayerCount: 2
Fore
SplineSet
85 374 m 3
 85 440 138 489 205 489 c 3
 272 489 325 440 325 374 c 3
 325 308 272 259 205 259 c 3
 138 259 85 308 85 374 c 3
EndSplineSet
Validated: 1
EndChar

StartChar: dagger
Encoding: 8224 8224 107
Width: 444
Flags: HMW
LayerCount: 2
Fore
SplineSet
222 704 m 0
 240 704 255 683 255 658 c 2
 255 462 l 25
 349 465 l 2
 380 465 388 445 388 431 c 0
 388 418 380 396 349 396 c 0
 322 396 292 408 255 416 c 1
 255 225 l 2
 255 62 244 -100 237 -181 c 0
 234 -202 234 -216 222 -216 c 0
 208 -216 209 -197 207 -181 c 0
 200 -100 187 62 187 225 c 2
 187 416 l 1
 150 408 118 396 94 396 c 0
 63 396 56 419 56 431 c 0
 56 448 67 465 94 465 c 2
 187 462 l 25
 187 658 l 2
 187 683 203 704 222 704 c 0
EndSplineSet
Validated: 1
EndChar

StartChar: daggerdbl
Encoding: 8225 8225 108
Width: 444
Flags: HMW
LayerCount: 2
Back
SplineSet
56 22 m 0
 56 37 64 57 95 57 c 0
 127 57 175 37 211 33 c 1
 209 84 187 162 187 206 c 0
 187 244 211 249 222 249 c 0
 235 249 257 241 257 210 c 0
 257 157 235 92 232 33 c 1
 272 37 317 57 349 57 c 0
 374 57 388 42 388 22 c 0
 388 9 381 -13 349 -13 c 0
 317 -13 268 7 232 11 c 1
 234 -40 257 -118 257 -162 c 0
 257 -200 233 -205 222 -205 c 0
 209 -205 187 -196 187 -165 c 0
 187 -112 208 -48 211 11 c 1
 170 7 126 -13 95 -13 c 0
 64 -13 56 10 56 22 c 0
56 478 m 0
 56 490 62 512 95 512 c 0
 130 512 170 492 211 488 c 1
 209 539 187 618 187 662 c 0
 187 700 211 704 222 704 c 0
 235 704 257 696 257 665 c 0
 257 612 235 547 232 488 c 1
 269 492 315 512 348 512 c 0
 380 512 388 492 388 478 c 0
 388 465 381 443 349 443 c 0
 314 443 273 463 232 467 c 1
 234 416 257 337 257 293 c 0
 257 255 233 251 222 251 c 0
 209 251 187 259 187 290 c 0
 187 343 208 408 211 467 c 1
 176 464 127 443 94 443 c 0
 62 443 56 466 56 478 c 0
EndSplineSet
Fore
SplineSet
255 306 m 25
 349 309 l 2
 380 309 388 289 388 275 c 0
 388 262 380 240 349 240 c 0
 322 240 292 252 255 260 c 1
 255 225 l 2
 255 62 244 -100 237 -181 c 0
 234 -202 234 -216 222 -216 c 0
 208 -216 209 -197 207 -181 c 0
 200 -100 187 62 187 225 c 2
 187 260 l 1
 150 252 118 240 94 240 c 0
 63 240 56 263 56 275 c 0
 56 292 67 309 94 309 c 2
 187 306 l 25
 187 416 l 1
 150 408 118 396 94 396 c 0
 63 396 56 419 56 431 c 0
 56 448 67 465 94 465 c 2
 187 462 l 25
 187 658 l 2
 187 683 203 704 222 704 c 0
 240 704 255 683 255 658 c 2
 255 462 l 25
 349 465 l 2
 380 465 388 445 388 431 c 0
 388 418 380 396 349 396 c 0
 322 396 292 408 255 416 c 1
 255 306 l 25
EndSplineSet
Validated: 1
EndChar

StartChar: endash
Encoding: 8211 8211 109
Width: 753
Flags: HMW
LayerCount: 2
Fore
SplineSet
77 221 m 5
 77 282 l 5
 676 282 l 5
 676 221 l 5
 77 221 l 5
EndSplineSet
Validated: 1
EndChar

StartChar: emdash
Encoding: 8212 8212 110
Width: 1074
Flags: HMW
LayerCount: 2
Fore
SplineSet
77 222 m 5
 77 282 l 5
 997 282 l 5
 997 222 l 5
 77 222 l 5
EndSplineSet
Validated: 1
EndChar

StartChar: asterisk
Encoding: 42 42 111
Width: 485
Flags: HMW
LayerCount: 2
Back
SplineSet
420 486 m 0
 420 462.078125 402.869140625 447 379 447 c 0
 356.147460938 447 342.34375 460.59375 330 473.5 c 0
 314.21484375 490.00390625 298.658203125 509.073242188 280 524 c 2
 254 544 l 1
 259.002929688 510 l 2
 262.3359375 487.333007812 266.8359375 467.333007812 272.502929688 450 c 0
 278.169921875 432.666992188 281.002929688 417.333984375 281.002929688 404.000976562 c 0
 281.002929688 380.940429688 267.481445312 364.000976562 244.002929688 364.000976562 c 0
 219.092773438 364.000976562 206.002929688 382.561523438 206.002929688 408.000976562 c 0
 206.002929688 422.66796875 209.169921875 438.66796875 215.502929688 456.000976562 c 0
 221.8359375 473.333984375 226.3359375 491.666992188 229.002929688 511 c 2
 233.002929688 544 l 1
 205.002929688 523 l 1
 178.622070312 501.895507812 160.25 471.594726562 132.502929688 453.5 c 0
 124.8359375 448.5 116.002929688 446 106.002929688 446 c 0
 81.810546875 446 65.0029296875 461.4296875 65.0029296875 484.999023438 c 0
 65.0029296875 510.171875 85.53125 518.264648438 106.502929688 524.5 c 0
 134.522460938 532.831054688 165.661132812 538.026367188 192.002929688 550 c 2
 221.002929688 563 l 1
 190.002929688 576 l 2
 154.736328125 590.426757812 104.571289062 591.752929688 76.501953125 612.5 c 0
 68.8349609375 618.166992188 65.001953125 627 65.001953125 639 c 0
 65.001953125 663.083984375 80.9228515625 679 106.001953125 679 c 0
 128.8203125 679 141.639648438 665.424804688 154.000976562 652.5 c 0
 170.471679688 635.279296875 185.120117188 615.739257812 206.000976562 601 c 2
 232.000976562 582 l 1
 228.000976562 616 l 2
 225.333984375 638 220.833984375 656.166992188 214.500976562 670.5 c 0
 208.16796875 684.833007812 205.000976562 700 205.000976562 716 c 0
 205.000976562 743.709960938 217.866210938 762 243.000976562 762 c 0
 267.227539062 762 280.000976562 743.098632812 280.000976562 716 c 0
 280.000976562 698.623046875 273.806640625 684.646484375 269.501953125 670.5 c 0
 264.276367188 653.327148438 258.249023438 636.458984375 257.000976562 614 c 2
 254.000976562 582 l 1
 279.000976562 602 l 2
 301.135742188 619.474609375 316.008789062 637.674804688 333.500976562 655.999023438 c 0
 345.299804688 668.359375 357.358398438 679.998046875 379.000976562 679.998046875 c 0
 404.494140625 679.998046875 420.000976562 663.870117188 420.000976562 639.998046875 c 0
 420.000976562 614.109375 400.337890625 605.924804688 379.000976562 599.998046875 c 0
 351.614257812 592.391601562 321.229492188 587.728515625 295 576.998046875 c 2
 264 563.998046875 l 1
 293 550.998046875 l 2
 320.893554688 538.213867188 350.614257812 533.162109375 380 525 c 0
 400.870117188 519.203125 420 510.926757812 420 486 c 0
EndSplineSet
Fore
SplineSet
221 563 m 1
 106 599 l 2
 85 605 65 613 65 639 c 0
 65 663 81 679 106 679 c 0
 128 679 140 667 152 655 c 2
 232 582 l 1
 205 716 l 3
 205 744 218 762 243 762 c 3
 267 762 280 743 280 716 c 0
 254 582 l 1
 334 656 l 2
 346 668 357 680 379 680 c 0
 404 680 420 664 420 640 c 0
 420 614 400 606 379 600 c 2
 264 564 l 1
 380 525 l 2
 400 518 420 511 420 486 c 0
 420 462 403 447 379 447 c 0
 356 447 346 458 330 473 c 2
 254 544 l 1
 281 404 l 0
 281 381 267 364 244 364 c 3
 219 364 206 383 206 408 c 0
 233 544 l 1
 155 472 l 2
 139 457 129 446 106 446 c 0
 82 446 65 461 65 485 c 0
 65 510 85 517 105 524 c 2
 221 563 l 1
EndSplineSet
Validated: 1
EndChar

StartChar: hyphen
Encoding: 45 45 112
Width: 469
Flags: HMW
LayerCount: 2
Fore
SplineSet
75 210 m 5
 75 294 l 5
 394 294 l 5
 394 210 l 5
 75 210 l 5
EndSplineSet
Validated: 1
EndChar

StartChar: slash
Encoding: 47 47 113
Width: 359
Flags: HMW
LayerCount: 2
Fore
SplineSet
45 -169 m 5
 245 819 l 5
 314 819 l 5
 113 -169 l 5
 45 -169 l 5
EndSplineSet
Validated: 1
EndChar

StartChar: parenright
Encoding: 41 41 114
Width: 304
Flags: HMW
LayerCount: 2
Fore
SplineSet
37 -187 m 5
 113 -64 165 99 165 304 c 4
 165 416 142 525 115 613 c 4
 92 688 59 768 25 820 c 5
 36 830 l 5
 94 782 147 702 183 623 c 4
 223 537 257 426 257 305 c 4
 257 179 229 75 188 -10 c 4
 152 -85 104 -148 53 -200 c 5
 37 -187 l 5
EndSplineSet
Validated: 1
EndChar

StartChar: parenleft
Encoding: 40 40 115
Width: 302
Flags: HMW
LayerCount: 2
Fore
SplineSet
137 304 m 0
 137 99 189 -64 265 -187 c 1
 249 -200 l 1
 136 -84 45 73 45 305 c 0
 45 426 79 538 119 624 c 0
 155 703 208 782 266 830 c 1
 277 820 l 1
 243 768 211 688 188 614 c 0
 161 526 137 416 137 304 c 0
EndSplineSet
Validated: 1
EndChar

StartChar: cent
Encoding: 162 162 116
Width: 550
Flags: W
HStem: -8 71<231.565 282 324 393.112> 471 68<213.19 282 324 380.147>
VStem: 45 102<158.681 376.716> 282 42<-130 -10 66 471 538.272 671> 386 105<377.935 463.946>
LayerCount: 2
Back
SplineSet
324 540 m 5
 350 539.333007812 374.333984375 535.834960938 397.000976562 529.501953125 c 4
 419.66796875 523.168945312 439.16796875 514.668945312 455.500976562 504.001953125 c 4
 471.833984375 493.334960938 484.666992188 481.001953125 494 467.001953125 c 4
 503.333007812 453.001953125 508 438.001953125 508 422.001953125 c 4
 508 404.668945312 504 390.8359375 496 380.502929688 c 4
 488 370.169921875 476.666992188 365.002929688 462 365.002929688 c 4
 444.666992188 365.002929688 431.333984375 370.169921875 422.000976562 380.502929688 c 4
 412.66796875 390.8359375 406.334960938 406.668945312 403.001953125 428.001953125 c 4
 399.001953125 453.334960938 390.501953125 472.16796875 377.501953125 484.500976562 c 4
 364.501953125 496.833984375 346.668945312 504.333984375 324.001953125 507.000976562 c 5
 324.001953125 63.0009765625 l 5
 355.334960938 63.0009765625 384.16796875 69.0009765625 410.500976562 81.0009765625 c 4
 436.833984375 93.0009765625 459.000976562 111.333984375 477.000976562 136.000976562 c 6
 488.000976562 151.000976562 l 5
 507.000976562 141.000976562 l 5
 502.000976562 128.000976562 l 6
 486.66796875 88.0009765625 463.66796875 56.333984375 433.000976562 33.0009765625 c 4
 402.333984375 9.66796875 366.000976562 -3.9990234375 324.000976562 -7.9990234375 c 5
 324.000976562 -129.999023438 l 5
 282.000976562 -129.999023438 l 5
 282.000976562 -8.9990234375 l 5
 248.000976562 -6.9990234375 216.833984375 0.833984375 188.500976562 14.5009765625 c 4
 160.16796875 28.16796875 136.000976562 46.66796875 116.000976562 70.0009765625 c 4
 96.0009765625 93.333984375 80.333984375 121.000976562 69.0009765625 153.000976562 c 4
 57.66796875 185.000976562 52.0009765625 220.000976562 52.0009765625 258.000976562 c 4
 52.0009765625 296.000976562 57.5009765625 331.16796875 68.5009765625 363.500976562 c 4
 79.5009765625 395.833984375 95.16796875 424.166992188 115.500976562 448.5 c 4
 135.833984375 472.833007812 160.166992188 492.833007812 188.5 508.5 c 4
 216.833007812 524.166992188 248 534 282 538 c 5
 282 670 l 5
 324 670 l 5
 324 540 l 5
154.000976562 278.001953125 m 4
 154.000976562 219.334960938 165 172.000976562 187 136.000976562 c 4
 209 100.000976562 240.666992188 77.333984375 282 68.0009765625 c 5
 282 506.000976562 l 5
 264.666992188 502.66796875 248.333984375 494.834960938 233.000976562 482.501953125 c 4
 217.66796875 470.168945312 204.16796875 454.168945312 192.500976562 434.501953125 c 4
 180.833984375 414.834960938 171.500976562 391.834960938 164.500976562 365.501953125 c 4
 157.500976562 339.168945312 154.000976562 310.001953125 154.000976562 278.001953125 c 4
EndSplineSet
Fore
SplineSet
491 422 m 0
 491 390 476 365 445 365 c 0
 410 365 391 386 386 428 c 0
 382 467 359 471 324 472 c 1
 324 63 l 1
 390 64 440 94 470 136 c 2
 481 151 l 1
 500 141 l 1
 495 128 l 2
 468 57 410 4 324 -8 c 1
 324 -130 l 1
 282 -130 l 1
 282 -10 l 1
 139 -6 45 106 45 258 c 0
 45 413 140 525 282 539 c 1
 282 671 l 1
 324 671 l 1
 324 540 l 1
 404 535 491 492 491 422 c 0
282 471 m 1
 178 461 147 394 147 278 c 0
 147 167 189 83 282 66 c 1
 282 471 l 1
EndSplineSet
Validated: 1
EndChar

StartChar: sterling
Encoding: 163 163 117
Width: 678
Flags: W
HStem: -10 97<349.682 529.284> -9 44<86.7487 164.683> 104 44<89.4469 187.235> 322 44<130 240 368 548> 703 72<429.539 507.375>
VStem: 32 53<36.7118 97.8909> 571 35<133.546 163>
LayerCount: 2
Fore
SplineSet
32 61 m 0x7e
 32 116 83 148 141 148 c 0
 159 148 180 145 203 139 c 1
 218 198 229 253 240 322 c 1
 130 322 l 1
 130 366 l 1
 249 366 l 1
 273 483 l 2
 293 583 321 657 358 704 c 0
 395 751 441 775 498 775 c 0
 556 775 620 751 620 699 c 0
 620 666 594 641 562 641 c 0
 531 641 518 663 507 684 c 0
 498 702 490 703 464 703 c 0
 447 703 432 692 425 671 c 0
 405 599 395 526 379 430 c 2
 368 366 l 1
 548 366 l 1
 548 322 l 1
 359 322 l 1
 341 243 321 179 292 116 c 1
 334 97 380 87 430 87 c 0
 509 87 556 112 571 163 c 1
 606 163 l 1
 606 54 552 -10 445 -10 c 0xbe
 389 -10 352 8 314 31 c 0
 299 40 282 52 263 67 c 1
 229 28 183 -9 120 -9 c 0
 71 -9 32 14 32 61 c 0x7e
85 65 m 0
 85 46 98 35 118 35 c 0x7e
 153 35 177 64 188 93 c 1
 173 100 161 104 141 104 c 0
 110 104 85 94 85 65 c 0
EndSplineSet
Validated: 1
EndChar

StartChar: currency
Encoding: 164 164 118
Width: 634
Flags: W
HStem: 152 64<240.884 393.486> 518 64<240.514 393.446>
VStem: 102 70<286.258 448.992> 462 70<286.166 448.747>
LayerCount: 2
Back
SplineSet
125 127 m 5
 77 174.999023438 l 5
 144 240.999023438 l 5
 116 274.999023438 102 317.33203125 102 367.999023438 c 4
 102 415.999023438 116 457.999023438 144 493.999023438 c 5
 77 558.999023438 l 5
 125 606.999023438 l 5
 191 539.999023438 l 5
 226.333007812 567.999023438 268.333007812 581.999023438 317 581.999023438 c 4
 363 581.999023438 405.333007812 568.33203125 444 540.999023438 c 5
 509 606.999023438 l 5
 557 558.999023438 l 5
 490 492.999023438 l 5
 518 457.666015625 532 415.999023438 532 367.999023438 c 4
 532 320.666015625 518.333007812 278.333007812 491 241 c 5
 557 175 l 5
 509 127 l 5
 443 194 l 5
 407.666992188 166 365.666992188 152 317 152 c 4
 269 152 227 166 191 194 c 5
 125 127 l 5
317 215.999023438 m 4
 337 215.999023438 355.666992188 219.999023438 373 227.999023438 c 4
 390.333007812 235.999023438 405.666015625 246.83203125 418.999023438 260.499023438 c 4
 432.33203125 274.166015625 442.83203125 290.166015625 450.499023438 308.499023438 c 4
 458.166015625 326.83203125 461.999023438 346.33203125 461.999023438 366.999023438 c 4
 461.999023438 387.666015625 458.166015625 407.166015625 450.499023438 425.499023438 c 4
 442.83203125 443.83203125 432.33203125 459.83203125 418.999023438 473.499023438 c 4
 405.666015625 487.166015625 390.333007812 497.999023438 373 505.999023438 c 4
 355.666992188 513.999023438 337 517.999023438 317 517.999023438 c 4
 297 517.999023438 278.333007812 513.999023438 261 505.999023438 c 4
 243.666992188 497.999023438 228.333984375 487.166015625 215.000976562 473.499023438 c 4
 201.66796875 459.83203125 191.16796875 443.999023438 183.500976562 425.999023438 c 4
 175.833984375 407.999023438 172.000976562 388.666015625 172.000976562 367.999023438 c 4
 172.000976562 347.33203125 175.833984375 327.83203125 183.500976562 309.499023438 c 4
 191.16796875 291.166015625 201.66796875 274.999023438 215.000976562 260.999023438 c 4
 228.333984375 246.999023438 243.666992188 235.999023438 261 227.999023438 c 4
 278.333007812 219.999023438 297 215.999023438 317 215.999023438 c 4
EndSplineSet
Fore
SplineSet
125 127 m 1
 77 175 l 1
 144 241 l 1
 116 275 102 317 102 368 c 3
 102 416 116 458 144 494 c 1
 77 559 l 1
 125 607 l 1
 191 540 l 1
 226 568 268 582 317 582 c 3
 363 582 405 568 444 541 c 1
 509 607 l 1
 557 559 l 1
 490 493 l 1
 518 458 532 416 532 368 c 3
 532 321 518 278 491 241 c 1
 557 175 l 1
 509 127 l 1
 443 194 l 1
 408 166 366 152 317 152 c 3
 269 152 227 166 191 194 c 1
 125 127 l 1
317 216 m 3
 401 216 462 283 462 367 c 3
 462 451 401 518 317 518 c 3
 233 518 172 451 172 368 c 3
 172 284 233 216 317 216 c 3
EndSplineSet
Validated: 1
EndChar

StartChar: yen
Encoding: 165 165 119
Width: 754
Flags: W
HStem: 0 23<182 215.158 433.211 466> 209 44<105 272 377 536> 330 44<105 253 395 536> 747 23<34 82.0971 267.818 312 396 450.869 575.443 618>
VStem: 272 105<42 209 253 330>
LayerCount: 2
Back
SplineSet
105 374 m 5
 252.999023438 374.001953125 l 5
 118.999023438 686.001953125 l 6
 113.666015625 698.001953125 108.666015625 707.668945312 103.999023438 715.001953125 c 4
 99.33203125 722.334960938 93.83203125 728.16796875 87.4990234375 732.500976562 c 4
 81.166015625 736.833984375 73.8330078125 740.000976562 65.5 742.000976562 c 4
 57.1669921875 744.000976562 46.6669921875 745.66796875 34 747.000976562 c 5
 34 770.000976562 l 5
 312 770.000976562 l 5
 312 747.000976562 l 5
 286.666992188 742.333984375 268.5 737.000976562 257.5 731.000976562 c 4
 246.5 725.000976562 241 716.333984375 241 705.000976562 c 4
 241 695.66796875 244 684.000976562 250 670.000976562 c 6
 359 405.000976562 l 5
 363 405.000976562 l 5
 472 671.000976562 l 6
 476 681.66796875 478 691.334960938 478 700.001953125 c 4
 478 713.334960938 471.833007812 723.66796875 459.5 731.000976562 c 4
 447.166992188 738.333984375 426 743.666992188 396 747 c 5
 396 770 l 5
 618 770 l 5
 618 747 l 5
 602 743.666992188 588.666992188 740.166992188 578 736.5 c 4
 567.333007812 732.833007812 558 727.166015625 550 719.499023438 c 4
 542 711.83203125 534.333007812 701.33203125 527 687.999023438 c 4
 519.666992188 674.666015625 511.666992188 657.333007812 503 636 c 6
 395 374 l 5
 536 374 l 5
 536 330 l 5
 377 330 l 5
 377 253 l 5
 536 253 l 5
 536 209 l 5
 377 209 l 5
 377 42 l 5
 466 23 l 5
 466 0 l 5
 182 0 l 5
 182 23 l 5
 272 42 l 5
 272 209 l 5
 105 209 l 5
 105 253 l 5
 272 253 l 5
 272 330 l 5
 105 330 l 5
 105 374 l 5
EndSplineSet
Fore
SplineSet
464 722 m 3
 464 735 438 742 396 747 c 1
 396 770 l 1
 618 770 l 1
 618 747 l 1
 588 741 568 736 550 719 c 0
 528 699 517 671 503 636 c 2
 395 374 l 1
 536 374 l 1
 536 330 l 1
 377 330 l 1
 377 253 l 1
 536 253 l 1
 536 209 l 1
 377 209 l 1
 377 42 l 1
 466 23 l 1
 466 0 l 1
 182 0 l 1
 182 23 l 1
 272 42 l 1
 272 209 l 1
 105 209 l 1
 105 253 l 1
 272 253 l 1
 272 330 l 1
 105 330 l 1
 105 374 l 1
 253 374 l 1
 119 686 l 2
 107 714 96 735 66 742 c 0
 57 744 47 746 34 747 c 1
 34 770 l 1
 312 770 l 1
 312 747 l 1
 287 742 268 737 258 731 c 0
 246 725 241 716 241 705 c 0
 241 696 244 684 250 670 c 2
 346 436 l 1
 350 436 l 1
 459 702 l 2
 463 713 464 713 464 722 c 3
EndSplineSet
Validated: 1
EndChar

StartChar: section
Encoding: 167 167 120
Width: 1000
VWidth: 0
Flags: W
HStem: -158 63<179.767 356.258> 767 63<181.253 355.764>
VStem: 64 92<302.142 408.146> 69 79<-58.623 1.8757 629.604 736.727> 387 90<264.002 374.234> 395 77<-61.4412 55.4039>
LayerCount: 2
Back
SplineSet
286 830 m 4
 312.666992188 830 337.3359375 827.5 360.002929688 822.5 c 4
 382.669921875 817.5 402.336914062 810.5 419.00390625 801.5 c 4
 435.670898438 792.5 448.50390625 781.666992188 457.50390625 769 c 4
 466.50390625 756.333007812 471.00390625 742.666015625 471.00390625 727.999023438 c 4
 471.00390625 712.666015625 466.50390625 699.999023438 457.50390625 689.999023438 c 4
 448.50390625 679.999023438 436.336914062 674.999023438 421.00390625 674.999023438 c 4
 405.670898438 674.999023438 394.50390625 680.499023438 387.50390625 691.499023438 c 4
 380.50390625 702.499023438 373.00390625 717.999023438 365.00390625 737.999023438 c 4
 360.336914062 749.33203125 355.50390625 758.83203125 350.50390625 766.499023438 c 4
 345.50390625 774.166015625 339.670898438 780.333007812 333.00390625 785 c 4
 326.336914062 789.666992188 318.336914062 793 309.00390625 795 c 4
 299.670898438 797 288.670898438 798 276.00390625 798 c 4
 235.336914062 798 203.836914062 789 181.50390625 771 c 4
 159.170898438 753 148.00390625 727.333007812 148.00390625 694 c 4
 148.00390625 665.333007812 156.170898438 642 172.50390625 624 c 4
 188.836914062 606 209.169921875 590.5 233.502929688 577.5 c 4
 257.8359375 564.5 284.168945312 552.333007812 312.501953125 541 c 4
 340.834960938 529.666992188 367.16796875 516.166992188 391.500976562 500.5 c 4
 415.833984375 484.833007812 436.166992188 465.5 452.5 442.5 c 4
 468.833007812 419.5 477 390 477 354 c 4
 477 316.666992188 468.166992188 283.666992188 450.5 255 c 4
 432.833007812 226.333007812 408.333007812 204 377 188 c 5
 403.666992188 171.333007812 426.166992188 150.666015625 444.5 125.999023438 c 4
 462.833007812 101.33203125 472 68.6650390625 472 27.998046875 c 4
 472 -30.001953125 452.5 -75.501953125 413.5 -108.501953125 c 4
 374.5 -141.501953125 320.666992188 -158.001953125 252 -158.001953125 c 4
 224.666992188 -158.001953125 199.5 -155.334960938 176.5 -150.001953125 c 4
 153.5 -144.668945312 133.666992188 -137.001953125 117 -127.001953125 c 4
 100.333007812 -117.001953125 87.3330078125 -105.168945312 78 -91.501953125 c 4
 68.6669921875 -77.8349609375 64 -63.001953125 64 -47.001953125 c 4
 64 -31.001953125 68.5 -18.001953125 77.5 -8.001953125 c 4
 86.5 1.998046875 98.6669921875 6.998046875 114 6.998046875 c 4
 128.666992188 6.998046875 139.5 1.8310546875 146.5 -8.501953125 c 4
 153.5 -18.8349609375 161 -34.66796875 169 -56.0009765625 c 4
 173 -66.0009765625 177.333007812 -75.333984375 182 -84.0009765625 c 4
 186.666992188 -92.66796875 192.5 -100.16796875 199.5 -106.500976562 c 4
 206.5 -112.833984375 215.5 -117.666992188 226.5 -121 c 4
 237.5 -124.333007812 251.333007812 -126 268 -126 c 4
 308 -126 339.166992188 -116.166992188 361.5 -96.5 c 4
 383.833007812 -76.8330078125 395 -49.666015625 395 -14.9990234375 c 4
 395 15.66796875 386.833007812 40.5009765625 370.5 59.5009765625 c 4
 354.166992188 78.5009765625 333.666992188 94.833984375 309 108.500976562 c 4
 284.333007812 122.16796875 257.833007812 134.66796875 229.5 146.000976562 c 4
 201.166992188 157.333984375 174.666992188 170.500976562 150 185.500976562 c 4
 125.333007812 200.500976562 104.833007812 218.833984375 88.5 240.500976562 c 4
 72.1669921875 262.16796875 64 290.334960938 64 325.001953125 c 4
 64 363.668945312 75 397.001953125 97 425.001953125 c 4
 119 453.001953125 149.666992188 473.668945312 189 487.001953125 c 5
 173 495.668945312 157.666992188 505.168945312 143 515.501953125 c 4
 128.333007812 525.834960938 115.5 537.66796875 104.5 551.000976562 c 4
 93.5 564.333984375 84.8330078125 579.666992188 78.5 597 c 4
 72.1669921875 614.333007812 69 634 69 656 c 4
 69 710 88.1669921875 752.5 126.5 783.5 c 4
 164.833007812 814.5 218 830 286 830 c 4
400.001953125 313 m 4
 400.001953125 333 395.334960938 350.333984375 386.001953125 365.000976562 c 4
 376.668945312 379.66796875 364.001953125 393.000976562 348.001953125 405.000976562 c 4
 332.001953125 417.000976562 313.834960938 427.833984375 293.501953125 437.500976562 c 4
 273.168945312 447.16796875 252.001953125 457.000976562 230.001953125 467.000976562 c 5
 204.001953125 459.66796875 183.001953125 446.500976562 167.001953125 427.500976562 c 4
 151.001953125 408.500976562 143.001953125 386.333984375 143.001953125 361.000976562 c 4
 143.001953125 339.000976562 148.834960938 320.66796875 160.501953125 306.000976562 c 4
 172.168945312 291.333984375 187.3359375 278.500976562 206.002929688 267.500976562 c 4
 224.669921875 256.500976562 245.502929688 246.66796875 268.502929688 238.000976562 c 4
 291.502929688 229.333984375 314.3359375 219.666992188 337.002929688 209 c 5
 356.3359375 219.666992188 371.668945312 234 383.001953125 252 c 4
 394.334960938 270 400.001953125 290.333007812 400.001953125 313 c 4
EndSplineSet
Fore
SplineSet
69 656 m 3xd0
 69 774 162 830 286 830 c 3
 359 830 428 811 458 769 c 0
 467 756 471 743 471 728 c 0
 471 698 452 675 421 675 c 3
 353 675 412 767 276 767 c 3
 201 767 148 738 148 694 c 3
 148 665 157 642 173 624 c 0
 226 565 323 544 392 500 c 0
 438 470 477 429 477 354 c 3xd8
 477 273 434 217 377 188 c 1
 404 171 426 151 444 126 c 0
 462 101 472 69 472 28 c 3
 472 -95 380 -158 252 -158 c 3
 175 -158 109 -137 78 -92 c 0
 69 -78 64 -63 64 -47 c 0
 64 -16 83 7 114 7 c 0
 129 7 139 1 146 -9 c 0
 181 -60 152 -95 268 -95 c 3
 343 -95 395 -63 395 -15 c 3
 395 16 386 41 370 60 c 0
 317 121 221 143 150 186 c 0
 104 214 64 252 64 325 c 3xe4
 64 412 120 464 189 487 c 1
 128 520 69 562 69 656 c 3xd0
330 222 m 1
 361 239 387 271 387 316 c 3
 387 356 365 379 340 398 c 0
 310 421 271 437 234 454 c 1
 193 442 156 409 156 359 c 3xe8
 156 315 184 292 213 275 c 0
 248 254 291 240 330 222 c 1
EndSplineSet
Validated: 1
EndChar

StartChar: brokenbar
Encoding: 166 166 121
Width: 275
Flags: W
VStem: 104 67<-171 216 432 819>
LayerCount: 2
Fore
SplineSet
104 432 m 1
 104 819 l 1
 171 819 l 1
 171 432 l 1
 104 432 l 1
104 -171 m 1
 104 216 l 1
 171 216 l 1
 171 -171 l 1
 104 -171 l 1
EndSplineSet
Validated: 1
EndChar

StartChar: uni00AD
Encoding: 173 173 122
Width: 465
Flags: W
HStem: 210 84<73 392>
VStem: 73 319<210 294>
LayerCount: 2
Fore
SplineSet
73 210 m 5
 73 294 l 5
 392 294 l 5
 392 210 l 5
 73 210 l 5
EndSplineSet
Validated: 1
EndChar

StartChar: logicalnot
Encoding: 172 172 123
Width: 572
Flags: W
HStem: 264 44<84 443>
VStem: 443 51<147 264>
LayerCount: 2
Fore
SplineSet
443 264 m 5
 84 264 l 5
 84 308 l 5
 494 308 l 5
 494 147 l 5
 443 147 l 5
 443 264 l 5
EndSplineSet
Validated: 1
EndChar

StartChar: paragraph
Encoding: 182 182 124
Width: 583
Flags: W
HStem: 714 56<340 400> 745 25<498.059 524>
VStem: 31 309<457.499 656.92> 279 61<-108 340> 400 61<-108 714>
LayerCount: 2
Back
SplineSet
294 -108 m 5
 294 339.997070312 l 5
 238 339.997070312 l 6
 206 339.997070312 177.333007812 345.6640625 152 356.997070312 c 4
 126.666992188 368.330078125 105 383.830078125 87 403.497070312 c 4
 69 423.1640625 55.1669921875 445.831054688 45.5 471.498046875 c 4
 35.8330078125 497.165039062 31 524.665039062 31 553.998046875 c 4
 31 586.665039062 36.3330078125 616.33203125 47 642.999023438 c 4
 57.6669921875 669.666015625 73 692.333007812 93 711 c 4
 113 729.666992188 137.333007812 744.166992188 166 754.5 c 4
 194.666992188 764.833007812 227 770 263 770 c 6
 524 770 l 5
 524 745 l 5
 446 728 l 5
 446 -108 l 5
 400 -108 l 5
 400 730 l 5
 340 730 l 5
 340 -108 l 5
 294 -108 l 5
EndSplineSet
Fore
SplineSet
279 -108 m 1x98
 279 340 l 1x98
 238 340 l 2
 137 340 73 398 46 471 c 0
 36 497 31 525 31 554 c 0
 31 661 86 726 166 754 c 0
 195 765 227 770 263 770 c 2
 524 770 l 1
 524 745 l 1x68
 461 728 l 1
 461 -108 l 1
 400 -108 l 1
 400 714 l 1
 340 714 l 1
 340 -108 l 1
 279 -108 l 1x98
EndSplineSet
Validated: 1
EndChar

StartChar: cedilla
Encoding: 184 184 125
Width: 230
Flags: W
HStem: -257 37<21.3973 130.384> -125 67<105 139.75>
VStem: 145 75<-208.506 -130.486>
LayerCount: 2
Fore
SplineSet
220 -156 m 0
 220 -222 159 -257 88 -257 c 0
 57 -257 27 -247 10 -233 c 1
 24 -203 l 1
 43 -214 54 -220 80 -220 c 0
 116 -220 145 -202 145 -168 c 0
 145 -139 129 -125 97 -125 c 0
 80 -125 63 -128 46 -133 c 1
 37 -124 l 1
 97 17 l 1
 134 17 l 1
 105 -58 l 1
 170 -58 220 -94 220 -156 c 0
EndSplineSet
Validated: 1
EndChar

StartChar: guillemotleft
Encoding: 171 171 126
Width: 436
Flags: W
VStem: 58 305
LayerCount: 2
Fore
SplineSet
197 53 m 1
 58 236 l 1
 58 255 l 1
 195 436 l 1
 207 431 l 1
 141 246 l 1
 209 61 l 1
 197 53 l 1
353 53 m 1
 214 236 l 1
 214 255 l 1
 351 436 l 1
 363 431 l 1
 297 246 l 1
 365 61 l 1
 353 53 l 1
EndSplineSet
Validated: 1
EndChar

StartChar: exclamdown
Encoding: 161 161 127
Width: 300
Flags: W
HStem: -10 21G<130.5 170> 520 20G<124.5 174.5> 650 130<100.347 199.764>
VStem: 89 121<4.74997 283.036 662.068 767.478>
LayerCount: 2
Fore
SplineSet
150 -10 m 3
 111 -10 89 21 89 59 c 3
 89 72 91 95 95 129 c 0
 110 256 120 400 129 540 c 1
 170 540 l 1
 179 400 189 254 204 127 c 0
 208 93 210 69 210 56 c 3
 210 18 190 -10 150 -10 c 3
149 780 m 3
 188 780 215 753 215 716 c 3
 215 676 189 650 149 650 c 3
 110 650 85 678 85 716 c 3
 85 752 112 780 149 780 c 3
EndSplineSet
Validated: 1
EndChar

StartChar: mu
Encoding: 181 181 128
Width: 598
Flags: W
HStem: -10 54<223.298 342.555> 510 20G<105 200 410 505>
VStem: 105 95<68.7324 530> 105 61<-174 5> 410 95<109.422 530>
LayerCount: 2
Back
SplineSet
423 -10 m 5
 416 -10 l 5
 416 60 l 5
 412 61 l 5
 372 11 314 -10 233 -10 c 4
 159 -10 114 29 107 97 c 4
 105 120 105 142 105 169 c 6
 105 495 l 5
 30 510 l 5
 30 530 l 5
 200 530 l 5
 200 193 l 6
 200 108 201 44 282 44 c 4
 339 44 381 99 410 135 c 5
 410 375 l 4
 410 495 l 5
 335 510 l 5
 335 530 l 5
 505 530 l 5
 505 75 l 5
 581 52 l 5
 581 38 l 5
 488 20 461 9 423 -10 c 5
EndSplineSet
Fore
SplineSet
109 -174 m 25xd8
 105 169 l 2
 105 530 l 1
 200 530 l 1
 200 193 l 2xe8
 200 108 201 44 282 44 c 0
 339 44 381 99 410 135 c 1
 410 375 l 1
 410 530 l 1
 505 530 l 1
 505 75 l 1
 581 52 l 1
 581 38 l 1
 488 20 461 9 423 -10 c 1
 416 -10 l 1
 416 60 l 1
 412 61 l 1
 372 11 309 -10 247 -10 c 3
 209 -10 189 -8 166 5 c 1
 166 -174 l 25
 109 -174 l 25xd8
EndSplineSet
Validated: 1
EndChar

StartChar: guillemotright
Encoding: 187 187 129
Width: 436
Flags: W
VStem: 71 307
LayerCount: 2
Fore
SplineSet
227 61 m 5
 295 246 l 5
 229 431 l 5
 241 436 l 5
 378 255 l 5
 378 236 l 5
 239 53 l 5
 227 61 l 5
71 61 m 5
 139 246 l 5
 73 431 l 5
 85 436 l 5
 222 255 l 5
 222 236 l 5
 83 53 l 5
 71 61 l 5
EndSplineSet
Validated: 1
EndChar

StartChar: questiondown
Encoding: 191 191 130
Width: 434
Flags: W
HStem: -10 63<163.286 294.892> 593 130<188.15 286.653>
VStem: 45 88<83.3581 232.448> 172 130<608.143 706.85> 216 42<354.715 483> 310 79<74.5873 169.668>
LayerCount: 2
Fore
SplineSet
238 723 m 7xf4
 277 723 302 696 302 658 c 7
 302 620 275 593 237 593 c 7
 199 593 172 620 172 658 c 7
 172 696 200 723 238 723 c 7xf4
310 105 m 4
 310 134 298 127 298 155 c 4
 298 178 328 190 347 190 c 4
 363 190 389 182 389 147 c 4
 389 61 306 -10 213 -10 c 4
 111 -10 45 68 45 159 c 7
 45 238 107 282 154 316 c 4
 202 351 216 371 216 439 c 6
 216 483 l 29
 258 483 l 29
 258 437 l 6xec
 258 394 253 335 188 276 c 4
 148 239 133 210 133 163 c 7
 133 98 161 53 218 53 c 4
 275 53 310 75 310 105 c 4
EndSplineSet
Validated: 1
EndChar

StartChar: registered
Encoding: 174 174 131
Width: 690
Flags: W
HStem: 227 31<260.162 429.777> 355 9<228 257.75 309.625 349 449.75 490> 487 27<304 347> 639 24<304 389.008> 654 9<228 257.75> 750 30<259.976 429.962>
VStem: 67 36<412.861 595.279> 262 42<372 487 514 639> 409 46<528.098 628.639> 586 37<406.835 601.103>
LayerCount: 2
Back
SplineSet
228 663 m 1
 346 663.000976562 l 2
 380 663.000976562 407.5 655.66796875 428.5 641.000976562 c 0
 449.5 626.333984375 460 605.000976562 460 577.000976562 c 0
 460 556.333984375 453.833007812 539.666992188 441.5 527 c 0
 429.166992188 514.333007812 412 505.333007812 390 500 c 1
 458 375 l 1
 488 367 l 1
 488 355 l 1
 402 355 l 1
 331 495 l 1
 308 495 l 1
 308 375 l 1
 344 367 l 1
 344 355 l 1
 228 355 l 1
 228 367 l 1
 254 375 l 1
 254 642 l 1
 228 650 l 1
 228 663 l 1
308 516.000976562 m 1
 334 516.000976562 355.833007812 520.66796875 373.5 530.000976562 c 0
 391.166992188 539.333984375 400 555.666992188 400 579 c 0
 400 599.666992188 393 615.333984375 379 626.000976562 c 0
 365 636.66796875 341.333007812 642.000976562 308 642.000976562 c 1
 308 516.000976562 l 1
EndSplineSet
Fore
SplineSet
455 575 m 3xf7c0
 455 531 431 502 393 493 c 1
 444 372 l 1
 490 364 l 1
 490 355 l 1
 403 355 l 1
 347 487 l 1
 304 487 l 1
 304 372 l 1
 349 364 l 1
 349 355 l 1
 228 355 l 1
 228 364 l 1
 262 372 l 1
 262 646 l 1
 228 654 l 1
 228 663 l 1xefc0
 348 663 l 2
 396 663 431 645 447 613 c 0
 452 602 455 589 455 575 c 3xf7c0
330 514 m 2
 380 514 409 531 409 579 c 3
 409 626 385 639 337 639 c 2
 304 639 l 1xf7c0
 304 514 l 1
 330 514 l 2
67 504 m 3
 67 663 186 780 345 780 c 3
 504 780 623 662 623 504 c 3
 623 346 503 227 345 227 c 3
 187 227 67 346 67 504 c 3
103 504 m 3
 103 365 206 258 345 258 c 3
 484 258 586 365 586 504 c 3
 586 643 484 750 345 750 c 3
 206 750 103 643 103 504 c 3
EndSplineSet
Validated: 1
EndChar

StartChar: copyright
Encoding: 169 169 132
Width: 904
VWidth: 0
Flags: W
HStem: -10 45<330.729 573.224> 151 38<378.364 531.34> 590 35<380.667 533.254> 735 45<330.915 573.41>
VStem: 55 52<263.7 506.3> 226 76<274.238 496.938> 601 17<283.6 314 481 499.171> 796 53<263.5 506.5>
LayerCount: 2
Back
SplineSet
231 385 m 0
 231 419 236.497070312 450.171875 247.497070312 478.504882812 c 0
 258.497070312 506.837890625 273.6640625 531.170898438 292.997070312 551.50390625 c 0
 312.330078125 571.836914062 335.330078125 587.836914062 361.997070312 599.50390625 c 0
 388.6640625 611.170898438 417.6640625 617.00390625 448.997070312 617.00390625 c 0
 494.997070312 617.00390625 535.997070312 603.670898438 571.997070312 577.00390625 c 1
 575.997070312 577.00390625 l 1
 599.997070312 615.00390625 l 1
 613.997070312 615.00390625 l 1
 613.997070312 472.00390625 l 1
 591.997070312 472.00390625 l 1
 588.6640625 483.336914062 585.331054688 492.669921875 581.998046875 500.002929688 c 0
 578.665039062 507.3359375 574.665039062 514.668945312 569.998046875 522.001953125 c 0
 557.331054688 543.334960938 542.498046875 558.66796875 525.498046875 568.000976562 c 0
 508.498046875 577.333984375 488.331054688 582.000976562 464.998046875 582.000976562 c 0
 418.998046875 582.000976562 384.331054688 565.500976562 360.998046875 532.500976562 c 0
 337.665039062 499.500976562 325.998046875 452.333984375 325.998046875 391.000976562 c 0
 325.998046875 328.333984375 337.831054688 280.000976562 361.498046875 246.000976562 c 0
 385.165039062 212.000976562 418.998046875 195.000976562 462.998046875 195.000976562 c 0
 505.665039062 195.000976562 539.33203125 212.66796875 563.999023438 248.000976562 c 0
 570.666015625 257.333984375 576.499023438 268.333984375 581.499023438 281.000976562 c 0
 586.499023438 293.66796875 590.666015625 307.66796875 593.999023438 323.000976562 c 1
 613.999023438 323.000976562 l 1
 613.999023438 162.000976562 l 1
 599.999023438 162.000976562 l 1
 573.999023438 208.000976562 l 1
 554.666015625 192.000976562 535.166015625 180.16796875 515.499023438 172.500976562 c 0
 495.83203125 164.833984375 473.33203125 161.000976562 447.999023438 161.000976562 c 0
 415.999023438 161.000976562 386.83203125 166.500976562 360.499023438 177.500976562 c 0
 334.166015625 188.500976562 311.333007812 203.833984375 292 223.500976562 c 0
 272.666992188 243.16796875 257.666992188 266.66796875 247 294.000976562 c 0
 236.333007812 321.333984375 231 351.666992188 231 385 c 0
EndSplineSet
Fore
SplineSet
226 385 m 3
 226 524 309 625 446 625 c 3
 498 625 542 609 575 588 c 1
 577 588 l 1
 607 619 l 1
 618 619 l 1
 618 481 l 1
 600 481 l 1
 578 548 541 590 456 590 c 3
 344 590 302 508 302 389 c 3
 302 270 345 189 456 189 c 3
 544 189 587 238 601 314 c 1
 618 314 l 1
 618 157 l 1
 603 157 l 1
 576 197 l 1
 538 169 503 151 444 151 c 3
 308 151 226 248 226 385 c 3
55 385 m 3
 55 611 226 780 452 780 c 3
 679 780 849 611 849 385 c 3
 849 159 678 -10 452 -10 c 3
 225 -10 55 159 55 385 c 3
107 385 m 3
 107 187 254 35 452 35 c 3
 651 35 796 186 796 385 c 3
 796 584 651 735 452 735 c 3
 254 735 107 583 107 385 c 3
EndSplineSet
Validated: 1
EndChar

StartChar: ampersand
Encoding: 38 38 133
Width: 812
Flags: W
HStem: -10 81<246.828 417.233> 0 23<775.5 797> 441 24<542 581.217 728.072 797> 724 56<303.106 437.688>
VStem: 90 104<124.95 292.988> 202 70<579.045 691.895> 460 69<602.648 702.273>
LayerCount: 2
Back
SplineSet
277.000976562 431 m 5
 261.000976562 451.666992188 248.004882812 470.66796875 238.004882812 488.000976562 c 4
 228.004882812 505.333984375 220.337890625 521.333984375 215.004882812 536.000976562 c 4
 209.671875 550.66796875 206.171875 563.834960938 204.504882812 575.501953125 c 4
 202.837890625 587.168945312 202.004882812 597.668945312 202.004882812 607.001953125 c 4
 202.004882812 633.001953125 207.004882812 656.668945312 217.004882812 678.001953125 c 4
 227.004882812 699.334960938 240.337890625 717.501953125 257.004882812 732.501953125 c 4
 273.671875 747.501953125 293.171875 759.168945312 315.504882812 767.501953125 c 4
 337.837890625 775.834960938 361.004882812 780.001953125 385.004882812 780.001953125 c 4
 404.337890625 780.001953125 422.670898438 777.334960938 440.00390625 772.001953125 c 4
 457.336914062 766.668945312 472.669921875 759.001953125 486.002929688 749.001953125 c 4
 499.3359375 739.001953125 509.8359375 726.668945312 517.502929688 712.001953125 c 4
 525.169921875 697.334960938 529.002929688 680.66796875 529.002929688 662.000976562 c 4
 529.002929688 632.66796875 517.8359375 601.500976562 495.502929688 568.500976562 c 4
 473.169921875 535.500976562 434.669921875 499.333984375 380.002929688 460.000976562 c 5
 584.002929688 208.000976562 l 5
 601.3359375 238.000976562 614.8359375 268.66796875 624.502929688 300.000976562 c 4
 634.169921875 331.333984375 639.002929688 362.000976562 639.002929688 392.000976562 c 4
 639.002929688 400.66796875 638.169921875 407.500976562 636.502929688 412.500976562 c 4
 634.8359375 417.500976562 630.668945312 421.833984375 624.001953125 425.500976562 c 4
 617.334960938 429.16796875 607.66796875 432.000976562 595.000976562 434.000976562 c 4
 582.333984375 436.000976562 564.666992188 438.333984375 542 441.000976562 c 5
 542 465.000976562 l 5
 797 465.000976562 l 5
 797 441.000976562 l 5
 775 439.000976562 757.333007812 436.66796875 744 434.000976562 c 4
 730.666992188 431.333984375 720.166992188 427.666992188 712.5 423 c 4
 704.833007812 418.333007812 699.333007812 412.333007812 696 405 c 4
 692.666992188 397.666992188 689.666992188 388.333984375 687 377.000976562 c 4
 681 351.66796875 671.666992188 321.16796875 659 285.500976562 c 4
 646.333007812 249.833984375 629.333007812 214.000976562 608 178.000976562 c 5
 711 51.0009765625 l 5
 797 23.0009765625 l 5
 797 0.0009765625 l 5
 623 0.0009765625 l 5
 547 94.0009765625 l 5
 527 72.0009765625 506.5 54.333984375 485.5 41.0009765625 c 4
 464.5 27.66796875 443.666992188 17.16796875 423 9.5009765625 c 4
 402.333007812 1.833984375 382.333007812 -3.3330078125 363 -6 c 4
 343.666992188 -8.6669921875 325 -10 307 -10 c 4
 233 -10 178.333007812 7.6669921875 143 43 c 4
 107.666992188 78.3330078125 90 124 90 180 c 4
 90 204 93.3330078125 226.166992188 100 246.5 c 4
 106.666992188 266.833007812 117.333984375 286.833007812 132.000976562 306.5 c 4
 146.66796875 326.166992188 166.000976562 346 190.000976562 366 c 4
 214.000976562 386 243.000976562 407.666992188 277.000976562 431 c 5
194.004882812 224.000976562 m 4
 194.004882812 201.333984375 196.838867188 179.334960938 202.505859375 158.001953125 c 4
 208.172851562 136.668945312 217.33984375 117.8359375 230.006835938 101.502929688 c 4
 242.673828125 85.169921875 259.006835938 72.0029296875 279.006835938 62.0029296875 c 4
 299.006835938 52.0029296875 323.006835938 47.0029296875 351.006835938 47.0029296875 c 4
 362.33984375 47.0029296875 374.83984375 48.169921875 388.506835938 50.5029296875 c 4
 402.173828125 52.8359375 416.340820312 56.8359375 431.0078125 62.5029296875 c 4
 445.674804688 68.169921875 460.674804688 76.0029296875 476.0078125 86.0029296875 c 4
 491.340820312 96.0029296875 506.673828125 109.002929688 522.006835938 125.002929688 c 5
 298.006835938 404.002929688 l 5
 276.673828125 388.002929688 259.173828125 372.169921875 245.506835938 356.502929688 c 4
 231.83984375 340.8359375 221.172851562 325.668945312 213.505859375 311.001953125 c 4
 205.838867188 296.334960938 200.671875 281.66796875 198.004882812 267.000976562 c 4
 195.337890625 252.333984375 194.004882812 238.000976562 194.004882812 224.000976562 c 4
461.005859375 637.001953125 m 4
 461.005859375 672.334960938 452.006835938 699.000976562 434.006835938 717.000976562 c 4
 416.006835938 735.000976562 392.673828125 744.000976562 364.006835938 744.000976562 c 4
 338.673828125 744.000976562 317.006835938 736.66796875 299.006835938 722.000976562 c 4
 281.006835938 707.333984375 272.006835938 684.000976562 272.006835938 652.000976562 c 4
 272.006835938 642.66796875 273.173828125 632.834960938 275.506835938 622.501953125 c 4
 277.83984375 612.168945312 282.172851562 600.501953125 288.505859375 587.501953125 c 4
 294.838867188 574.501953125 303.671875 559.668945312 315.004882812 543.001953125 c 4
 326.337890625 526.334960938 341.004882812 507.001953125 359.004882812 485.001953125 c 5
 397.671875 511.668945312 424.338867188 536.668945312 439.005859375 560.001953125 c 4
 453.672851562 583.334960938 461.005859375 609.001953125 461.005859375 637.001953125 c 4
EndSplineSet
Fore
SplineSet
307 -10 m 3xbe
 173 -10 90 55 90 180 c 0
 90 293 146 382 257 459 c 1
 220 507 202 529 202 607 c 3
 202 691 253 744 316 768 c 0
 338 776 361 780 385 780 c 3
 463 780 529 740 529 662 c 3
 529 570 454 513 380 460 c 1
 555 244 l 1
 584 294 609 353 609 391 c 3
 609 420 583 433 542 441 c 1
 542 465 l 1
 797 465 l 1
 797 441 l 1
 733 435 700 432 687 377 c 0
 671 310 643 236 608 178 c 1
 711 51 l 1
 797 23 l 1
 797 0 l 1
 623 0 l 1x7e
 547 94 l 1
 491 33 418 -10 307 -10 c 3xbe
194 224 m 0
 194 120 232 71 337 71 c 3xbe
 415 71 453 119 493 161 c 1
 298 404 l 1
 262 377 233 348 214 311 c 0
 200 286 194 258 194 224 c 0
364 724 m 3
 321 724 272 692 272 646 c 3
 272 606 308 549 338 512 c 1
 407 559 460 610 460 656 c 3
 460 696 426 724 364 724 c 3
EndSplineSet
Validated: 1
EndChar

StartChar: f_f
Encoding: 64256 64256 134
Width: 683
Flags: MW
LayerCount: 2
Back
SplineSet
491 695 m 7
 491 666 471 646 442 646 c 7
 371 646 417 742 343 742 c 7
 249 742 208 637 208 536 c 6
 208 530 l 5
 377 530 l 5
 377 488 l 5
 208 488 l 5
 208 35 l 5
 314 20 l 5
 314 0 l 5
 38 0 l 5
 38 20 l 5
 113 35 l 5
 113 488 l 5
 25 488 l 5
 37 530 l 5
 113 530 l 5
 113 578 113.352864735 563.975262817 115 590 c 4
 120 669 156 714 208 746 c 4
 239 765 284.766601562 780 362 780 c 7
 424 780 491 751 491 695 c 7
778 745 m 3
 778 716 758 696 729 696 c 3
 658 696 704 790 630 790 c 3
 536 790 535 686 535 585 c 2
 535 530 l 1
 664 530 l 1
 664 488 l 1
 535 488 l 1
 535 35 l 1
 641 20 l 1
 641 0 l 1
 365 0 l 1
 365 20 l 1
 440 35 l 1
 440 488 l 1
 352 488 l 1
 364 530 l 1
 440 530 l 1
 440 578 440 615 442 641 c 0
 447 720 479 764 531 796 c 0
 562 815 602 830 649 830 c 3
 711 830 778 801 778 745 c 3
EndSplineSet
Fore
SplineSet
472 741 m 1
 505 790 569 830 649 830 c 7
 711 830 778 801 778 745 c 7
 778 716 758 696 729 696 c 7
 658 696 704 790 630 790 c 7
 536 790 535 686 535 585 c 2
 535 530 l 1
 664 530 l 1
 664 488 l 1
 535 488 l 1
 535 35 l 1
 641 20 l 1
 641 0 l 1
 365 0 l 1
 365 20 l 1
 440 35 l 1
 440 488 l 1
 208 488 l 1
 208 35 l 1
 314 20 l 1
 314 0 l 1
 38 0 l 1
 38 20 l 1
 113 35 l 1
 113 488 l 1
 25 488 l 1
 37 530 l 1
 113 530 l 1
 113 578 113 564 115 590 c 0
 120 669 156 714 208 746 c 0
 239 765 285 780 362 780 c 3
 404 780 448 767 472 741 c 1
440 530 m 1
 440 578 440 615 442 641 c 1
 442 646 l 1
 371 646 417 742 343 742 c 3
 249 742 208 637 208 536 c 2
 208 530 l 1
 440 530 l 1
EndSplineSet
Validated: 1
LCarets2: 1 0
Ligature2: "'liga' standard ligatures-subtable" f f
EndChar

StartChar: f_i
Encoding: 64257 64257 135
Width: 625
Flags: W
HStem: 0 20<38 73 264.533 314 354 389.467 565 600> 488 42<37 113 208 366.591> 790 40<277.125 392.758>
VStem: 113 95<35 488 530 713.679> 430 95<35 466>
LayerCount: 2
Back
SplineSet
37 530 m 1
 113.001953125 530 l 1
 113.001953125 554 113.168945312 575.166992188 113.501953125 593.5 c 0
 113.834960938 611.833007812 114.66796875 627.833007812 116.000976562 641.5 c 0
 117.333984375 655.166992188 118.833984375 667 120.500976562 677 c 0
 122.16796875 687 124.66796875 695.666992188 128.000976562 703 c 0
 136.000976562 722.333007812 147.333984375 739.833007812 162.000976562 755.5 c 0
 176.66796875 771.166992188 193.66796875 784.5 213.000976562 795.5 c 0
 232.333984375 806.5 253.500976562 815 276.500976562 821 c 0
 299.500976562 827 323.333984375 830 348.000976562 830 c 0
 404.66796875 830 448.500976562 821.833007812 479.500976562 805.5 c 0
 510.500976562 789.166992188 526.000976562 767 526.000976562 739 c 0
 526.000976562 721.666992188 521.000976562 707.666992188 511.000976562 697 c 0
 501.000976562 686.333007812 487.66796875 681 471.000976562 681 c 0
 442.333984375 681 421.333984375 701.333007812 408.000976562 742 c 0
 401.333984375 763.333007812 393.500976562 777.333007812 384.500976562 784 c 0
 375.500976562 790.666992188 360.333984375 794 339.000976562 794 c 0
 311.000976562 794 288.333984375 788.666992188 271.000976562 778 c 0
 253.66796875 767.333007812 238.66796875 751 226.000976562 729 c 0
 219.333984375 717.666992188 214.666992188 701.666992188 212 681 c 0
 209.333007812 660.333007812 208 628.333007812 208 585 c 2
 208 530 l 1
 356 530 l 1
 516 540 l 1
 525 540 l 1
 525 35 l 1
 600 20 l 1
 600 0 l 1
 354 0 l 1
 354 20 l 1
 430 35 l 1
 430 466 l 1
 356 498 l 1
 208 498 l 1
 208 35 l 5
 314 20 l 5
 314 0 l 1
 38 0 l 1
 38 20 l 5
 113 35 l 5
 113 498 l 1
 25 498 l 1
 37 530 l 1
EndSplineSet
Fore
SplineSet
526 743 m 3
 526 709 510 681 474 681 c 3
 393 681 426 790 352 790 c 3
 231 790 208 686 208 585 c 2
 208 530 l 1
 337 530 l 2
 435 530 476 544 514 563 c 1
 525 563 l 1
 525 35 l 1
 600 20 l 1
 600 0 l 1
 354 0 l 1
 354 20 l 1
 430 35 l 1
 430 466 l 1
 337 488 l 1
 208 488 l 1
 208 35 l 1
 314 20 l 1
 314 0 l 1
 38 0 l 1
 38 20 l 1
 113 35 l 1
 113 488 l 1
 25 488 l 1
 37 530 l 1
 113 530 l 1
 113 578 113 615 115 641 c 0
 120 720 162 764 214 796 c 0
 260 824 312 830 375 830 c 3
 437 830 526 799 526 743 c 3
EndSplineSet
Validated: 1
Ligature2: "'liga' standard ligatures-subtable" f i
EndChar

StartChar: f_f_i
Encoding: 64259 64259 136
Width: 952
Flags: W
HStem: 0 20<38 73 264.533 314 365 400 591.533 641 681 716.467 892 927> 488 42<37 113 208 440 535 693.591> 742 38<282.341 382.09> 790 40<604.125 719.758>
VStem: 113 95<35 488 530 653.766> 440 95<35 488 530 646> 757 95<35 466>
LayerCount: 2
Back
SplineSet
37 530 m 1
 113.002929688 530.000976562 l 1
 113.002929688 547.333984375 113.3359375 562.166992188 114.002929688 574.5 c 0
 114.669921875 586.833007812 115.669921875 597.833007812 117.002929688 607.5 c 0
 118.3359375 617.166992188 119.8359375 625.5 121.502929688 632.5 c 0
 123.169921875 639.5 125.336914062 646.333007812 128.00390625 653 c 0
 135.336914062 672.333007812 146.169921875 689.833007812 160.502929688 705.5 c 0
 174.8359375 721.166992188 191.8359375 734.5 211.502929688 745.5 c 0
 231.169921875 756.5 253.002929688 765 277.002929688 771 c 0
 301.002929688 777 326.669921875 780 354.002929688 780 c 0
 381.3359375 780 405.8359375 777 427.502929688 771 c 0
 449.169921875 765 467.002929688 757 481.002929688 747 c 1
 502.3359375 773 530.168945312 793.333007812 564.501953125 808 c 0
 598.834960938 822.666992188 635.66796875 830 675.000976562 830 c 0
 731.66796875 830 775.500976562 821.833007812 806.500976562 805.5 c 0
 837.500976562 789.166992188 853.000976562 767 853.000976562 739 c 0
 853.000976562 721.666992188 848.000976562 707.666992188 838.000976562 697 c 0
 828.000976562 686.333007812 814.66796875 681 798.000976562 681 c 0
 769.333984375 681 748.333984375 701.333007812 735.000976562 742 c 0
 728.333984375 763.333007812 720.500976562 777.333007812 711.500976562 784 c 0
 702.500976562 790.666992188 687.333984375 794 666.000976562 794 c 0
 638.000976562 794 615.333984375 788.666992188 598.000976562 778 c 0
 580.66796875 767.333007812 565.66796875 751 553.000976562 729 c 0
 546.333984375 717.666992188 541.666992188 701.666992188 539 681 c 0
 536.333007812 660.333007812 535 628.333007812 535 585 c 2
 535 530 l 1
 683 530 l 1
 843 540 l 1
 852 540 l 1
 852 35 l 1
 927 20 l 1
 927 0 l 1
 681 0 l 1
 681 20 l 1
 757 35 l 1
 757 466 l 1
 683 498 l 1
 535 498 l 1
 535 35 l 1
 641 20 l 5
 641 0 l 1
 365 0 l 1
 365 20 l 1
 440 35 l 1
 440 498 l 1
 208 498 l 1
 208 35 l 1
 314 20 l 1
 314 0 l 1
 38 0 l 1
 38 20 l 1
 113 35 l 1
 113 498 l 1
 25 498 l 1
 37 530 l 1
440.002929688 530.000976562 m 1
 440.002929688 580.66796875 441 620 443 648 c 1
 437.666992188 679.333007812 424.833984375 703.5 404.500976562 720.5 c 0
 384.16796875 737.5 358.000976562 746 326.000976562 746 c 0
 302.66796875 746 283.000976562 740.833007812 267.000976562 730.5 c 0
 251.000976562 720.166992188 237.333984375 703.666992188 226.000976562 681 c 0
 222.000976562 673.666992188 218.833984375 666.333984375 216.500976562 659.000976562 c 0
 214.16796875 651.66796875 212.334960938 642.66796875 211.001953125 632.000976562 c 0
 209.668945312 621.333984375 208.8359375 608.000976562 208.502929688 592.000976562 c 0
 208.169921875 576.000976562 208.002929688 555.333984375 208.002929688 530.000976562 c 1
 440.002929688 530.000976562 l 1
EndSplineSet
Fore
SplineSet
853 743 m 3
 853 709 837 681 801 681 c 3
 720 681 753 790 679 790 c 3
 558 790 535 686 535 585 c 2
 535 530 l 1
 664 530 l 2
 762 530 803 544 841 563 c 1
 852 563 l 1
 852 35 l 1
 927 20 l 1
 927 0 l 1
 681 0 l 1
 681 20 l 1
 757 35 l 1
 757 466 l 1
 664 488 l 1
 535 488 l 1
 535 35 l 1
 641 20 l 1
 641 0 l 1
 365 0 l 1
 365 20 l 1
 440 35 l 1
 440 488 l 1
 363 488 285 488 208 488 c 1
 208 35 l 1
 314 20 l 1
 314 0 l 1
 38 0 l 1
 38 20 l 1
 113 35 l 1
 113 488 l 1
 25 488 l 1
 37 530 l 1
 113 530 l 1
 113 578 113 564 115 590 c 0
 120 669 156 714 208 746 c 0
 239 765 285 780 362 780 c 3
 404 780 451 764 475 738 c 1
 492 762 516 781 541 796 c 0
 587 824 639 830 702 830 c 3
 764 830 853 799 853 743 c 3
208 530 m 1
 285 530 363 530 440 530 c 1
 440 578 440 615 442 641 c 1
 442 646 l 1
 371 646 417 742 343 742 c 3
 249 742 208 637 208 536 c 2
 208 530 l 1
EndSplineSet
Validated: 1
Ligature2: "'liga' standard ligatures-subtable" f f i
EndChar

StartChar: f_l
Encoding: 64258 64258 137
Width: 625
Flags: W
HStem: 0 20<38 73 264.533 314 364 396.667 562.8 595> 488 42<37 113 208 434> 790 40<275.538 419.078>
VStem: 113 95<35 488 530 714.596> 434 92<35 488 530 775.716>
LayerCount: 2
Back
SplineSet
526 743 m 0
 526 709 510 681 474 681 c 0
 393 681 426 790 352 790 c 0
 231 790 208 686 208 585 c 2
 208 530 l 1
 337 530 l 2
 435 530 476 544 514 563 c 1
 525 563 l 1
 525 35 l 5
 600 20 l 5
 600 0 l 1
 354 0 l 1
 354 20 l 1
 430 35 l 5
 430 466 l 1
 337 488 l 1
 208 488 l 1
 208 35 l 1
 314 20 l 1
 314 0 l 1
 38 0 l 1
 38 20 l 1
 113 35 l 1
 113 488 l 1
 25 488 l 1
 37 530 l 1
 113 530 l 1
 113 578 113 615 115 641 c 0
 120 720 162 764 214 796 c 0
 260 824 312 830 375 830 c 0
 437 830 526 799 526 743 c 0
EndSplineSet
Fore
SplineSet
526 35 m 1
 595 20 l 1
 595 0 l 1
 364 0 l 1
 364 20 l 1
 434 35 l 1
 434 488 l 1
 208 488 l 1
 208 35 l 1
 314 20 l 1
 314 0 l 1
 38 0 l 1
 38 20 l 1
 113 35 l 1
 113 488 l 1
 25 488 l 1
 37 530 l 1
 113 530 l 1
 113 578 113 615 115 641 c 0
 120 720 162 764 214 796 c 0
 260 824 312 830 375 830 c 3
 437 830 526 799 526 743 c 2
 526 35 l 1
434 739 m 2
 434 759 417 790 354 790 c 3
 230 790 208 687 208 585 c 2
 208 530 l 1
 434 530 l 1
 434 739 l 2
EndSplineSet
Validated: 1
Ligature2: "'liga' standard ligatures-subtable" f l
EndChar

StartChar: f_f_l
Encoding: 64260 64260 138
Width: 946
Flags: MW
LayerCount: 2
Back
SplineSet
36 19 m 1
 111 34.0009765625 l 1
 111 498.000976562 l 1
 23 498.000976562 l 1
 35 530.000976562 l 1
 111 530.000976562 l 1
 111 547.333984375 111.333007812 562.166992188 112 574.5 c 0
 112.666992188 586.833007812 113.666992188 597.833007812 115 607.5 c 0
 116.333007812 617.166992188 117.833007812 625.5 119.5 632.5 c 0
 121.166992188 639.5 123.333984375 646.333007812 126.000976562 653 c 0
 133.333984375 672.333007812 144.166992188 689.833007812 158.5 705.5 c 0
 172.833007812 721.166992188 189.833007812 734.5 209.5 745.5 c 0
 229.166992188 756.5 251 765 275 771 c 0
 299 777 324.666992188 780 352 780 c 0
 379.333007812 780 403.833007812 777 425.5 771 c 0
 447.166992188 765 465 757 479 747 c 1
 499.666992188 772.333007812 527.333984375 792.5 562.000976562 807.5 c 0
 596.66796875 822.5 635.66796875 830 679.000976562 830 c 0
 701.66796875 830 723.16796875 828.666992188 743.500976562 826 c 0
 763.833984375 823.333007812 781.666992188 819.5 797 814.5 c 0
 812.333007812 809.5 824.5 803.833007812 833.5 797.5 c 0
 842.5 791.166992188 847 784 847 776 c 2
 847 34 l 1
 916 19 l 1
 916 0 l 1
 685 0 l 1
 685 19 l 1
 755 34 l 1
 755 498 l 1
 533 498 l 1
 533 34 l 1
 639 19 l 1
 639 0 l 1
 363 0 l 1
 363 19 l 1
 438 34 l 1
 438 498 l 1
 206 498 l 1
 206 34 l 1
 312 19 l 1
 312 0 l 1
 36 0 l 1
 36 19 l 1
533 530.000976562 m 1
 754.998046875 529.998046875 l 1
 754.998046875 704.998046875 l 2
 754.998046875 730.998046875 746.165039062 752.665039062 728.498046875 769.998046875 c 0
 710.831054688 787.331054688 688.331054688 795.998046875 660.998046875 795.998046875 c 0
 632.998046875 795.998046875 610.498046875 790.831054688 593.498046875 780.498046875 c 0
 576.498046875 770.165039062 562.331054688 753.665039062 550.998046875 730.998046875 c 0
 546.998046875 723.665039062 543.831054688 716.33203125 541.498046875 708.999023438 c 0
 539.165039062 701.666015625 537.33203125 692.833007812 535.999023438 682.5 c 0
 534.666015625 672.166992188 533.833007812 659.333984375 533.5 644.000976562 c 0
 533.166992188 628.66796875 533 609.000976562 533 585.000976562 c 2
 533 530.000976562 l 1
437.998046875 529.998046875 m 1
 437.998046875 583.331054688 438.99609375 622.997070312 440.99609375 648.997070312 c 1
 434.99609375 680.330078125 421.99609375 704.330078125 401.99609375 720.997070312 c 0
 381.99609375 737.6640625 355.99609375 745.997070312 323.99609375 745.997070312 c 0
 300.663085938 745.997070312 280.99609375 740.830078125 264.99609375 730.497070312 c 0
 248.99609375 720.1640625 235.329101562 703.6640625 223.99609375 680.997070312 c 0
 219.99609375 673.6640625 216.829101562 666.331054688 214.49609375 658.998046875 c 0
 212.163085938 651.665039062 210.330078125 642.665039062 208.997070312 631.998046875 c 0
 207.6640625 621.331054688 206.831054688 607.998046875 206.498046875 591.998046875 c 0
 206.165039062 575.998046875 205.998046875 555.331054688 205.998046875 529.998046875 c 1
 437.998046875 529.998046875 l 1
EndSplineSet
Fore
SplineSet
755 739 m 6
 755 759 738 790 675 790 c 4
 551 790 529 687 529 585 c 6
 529 530 l 5
 755 530 l 5
 755 739 l 6
847 35 m 5
 916 20 l 5
 916 0 l 5
 685 0 l 5
 685 20 l 5
 755 35 l 5
 755 488 l 5
 529 488 l 5
 529 35 l 5
 635 20 l 5
 635 0 l 5
 359 0 l 5
 359 20 l 5
 434 35 l 5
 434 488 l 5
 208 488 l 5
 208 35 l 5
 314 20 l 5
 314 0 l 5
 38 0 l 5
 38 20 l 5
 113 35 l 5
 113 488 l 5
 25 488 l 5
 37 530 l 5
 113 530 l 5
 113 578 113 564 115 590 c 4
 120 669 156 714 208 746 c 4
 239 765 285 780 362 780 c 4
 404 780 448 767 472 741 c 5
 489 763 511 781 535 796 c 4
 581 824 633 830 696 830 c 4
 758 830 847 799 847 743 c 6
 847 35 l 5
434 530 m 5
 434 574 434 618 436 646 c 5
 373 651 415 742 343 742 c 4
 249 742 208 637 208 536 c 6
 208 530 l 5
 434 530 l 5
EndSplineSet
Validated: 1
LCarets2: 2 0 0
Ligature2: "'liga' standard ligatures-subtable" f f l
EndChar
